<?xml version="1.0" encoding="utf-8"?>
<!-- Generator: Adobe Illustrator 16.2.0, SVG Export Plug-In . SVG Version: 6.00 Build 0)  -->
<!DOCTYPE svg PUBLIC "-//W3C//DTD SVG 1.1//EN" "http://www.w3.org/Graphics/SVG/1.1/DTD/svg11.dtd">
<svg version="1.1" id="Layer_1" xmlns="http://www.w3.org/2000/svg" xmlns:xlink="http://www.w3.org/1999/xlink" x="0px" y="0px"
	 width="150px" height="150px" viewBox="0 0 150 150" enable-background="new 0 0 150 150" xml:space="preserve">
<g>
	<path fill-rule="evenodd" clip-rule="evenodd" fill="#FFFFFF" d="M34.493,138.12V11.881C45.893,4.547,59.4,0.213,73.893,0h2.213
		c14.494,0.213,28,4.547,39.4,11.881V138.12C103.813,145.627,89.92,150,75,150C60.08,150,46.173,145.627,34.493,138.12z"/>
	<path fill-rule="evenodd" clip-rule="evenodd" fill="#191980" d="M0,75C0,40.387,23.48,11.227,55.359,2.6V147.4
		C23.48,138.761,0,109.601,0,75z"/>
	<path fill-rule="evenodd" clip-rule="evenodd" fill="#BA0000" d="M94.639,147.4V2.6C126.52,11.24,150,40.387,150,75
		C150,109.601,126.52,138.761,94.639,147.4z"/>
</g>
</svg>
