<?xml version="1.0" encoding="utf-8"?>
<!-- Generator: Adobe Illustrator 16.2.0, SVG Export Plug-In . SVG Version: 6.00 Build 0)  -->
<!DOCTYPE svg PUBLIC "-//W3C//DTD SVG 1.1//EN" "http://www.w3.org/Graphics/SVG/1.1/DTD/svg11.dtd">
<svg version="1.1" id="Layer_1" xmlns="http://www.w3.org/2000/svg" xmlns:xlink="http://www.w3.org/1999/xlink" x="0px" y="0px"
	 width="150px" height="150px" viewBox="0 0 150 150" enable-background="new 0 0 150 150" xml:space="preserve">
<path fill="#191980" d="M0,75C0,33.6,33.6,0,75,0c41.4,0,75,33.6,75,75c0,41.4-33.6,75-75,75C33.6,150,0,116.4,0,75z"/>
<g>
	<defs>
		<path id="SVGID_1_" d="M130.854,125.04L6.906,43.533c3.334-7.213,7.787-13.8,13.133-19.547l123.588,81.28
			C140.428,112.533,136.093,119.2,130.854,125.04z"/>
	</defs>
	<clipPath id="SVGID_2_">
		<use xlink:href="#SVGID_1_"  overflow="visible"/>
	</clipPath>
</g>
<path fill="#FFFFFF" d="M130.854,125.04L6.906,43.533c3.334-7.213,7.787-13.8,13.133-19.547l123.588,81.28
	C140.428,112.533,136.093,119.2,130.854,125.04z"/>
<g>
	<defs>
		<path id="SVGID_3_" d="M134.52,120.613l-125-82.2c1.986-3.546,4.254-6.907,6.773-10.08l124.813,82.095
			C139.188,114.014,136.975,117.413,134.52,120.613z"/>
	</defs>
	<clipPath id="SVGID_4_">
		<use xlink:href="#SVGID_3_"  overflow="visible"/>
	</clipPath>
</g>
<path fill="#BA0000" d="M134.52,120.613l-125-82.2c1.986-3.546,4.254-6.907,6.773-10.08l124.813,82.095
	C139.188,114.014,136.975,117.413,134.52,120.613z"/>
<g>
	<defs>
		<path id="SVGID_5_" d="M6.707,106.025L130.52,24.6c5.28,5.813,9.653,12.44,12.922,19.693L19.694,125.652
			C14.4,119.867,10,113.254,6.707,106.025z"/>
	</defs>
	<clipPath id="SVGID_6_">
		<use xlink:href="#SVGID_5_"  overflow="visible"/>
	</clipPath>
</g>
<path fill="#FFFFFF" d="M6.707,106.025L130.52,24.6c5.28,5.813,9.653,12.44,12.922,19.693L19.694,125.652
	C14.4,119.867,10,113.254,6.707,106.025z"/>
<g>
	<defs>
		<path id="SVGID_7_" d="M9.279,111.16l124.934-82.174c2.48,3.2,4.721,6.587,6.667,10.16l-124.907,82.12
			C13.48,118.094,11.24,114.707,9.279,111.16z"/>
	</defs>
	<clipPath id="SVGID_8_">
		<use xlink:href="#SVGID_7_"  overflow="visible"/>
	</clipPath>
</g>
<path fill="#BA0000" d="M9.279,111.16l124.934-82.174c2.48,3.2,4.721,6.587,6.667,10.16l-124.907,82.12
	C13.48,118.094,11.24,114.707,9.279,111.16z"/>
<path fill="#FFFFFF" d="M63.721,149.16v-61.6H1.039C0.359,83.48,0,79.279,0,75c0-4.227,0.346-8.373,1.014-12.4h62.707V0.84
	C67.4,0.293,71.16,0,75,0c4.439,0,8.787,0.387,13.014,1.133V62.6h60.961C149.641,66.627,150,70.773,150,75
	c0,4.279-0.359,8.48-1.055,12.561H88.014v61.319C83.787,149.613,79.439,150,75,150C71.16,150,67.4,149.721,63.721,149.16z"/>
<path fill="#BA0000" d="M67.533,149.641V83.652H0.494C0.16,80.813,0,77.92,0,75c0-2.867,0.16-5.707,0.467-8.494h67.066V0.373
	C69.986,0.119,72.48,0,75,0c3.119,0,6.188,0.187,9.213,0.56v65.946h65.309C149.84,69.293,150,72.133,150,75
	c0,2.92-0.173,5.813-0.493,8.652H84.213v65.787C81.188,149.813,78.119,150,75,150C72.48,150,69.986,149.88,67.533,149.641z"/>
</svg>
