<?xml version="1.0" encoding="utf-8"?>
<!-- Generator: Adobe Illustrator 16.2.0, SVG Export Plug-In . SVG Version: 6.00 Build 0)  -->
<!DOCTYPE svg PUBLIC "-//W3C//DTD SVG 1.1//EN" "http://www.w3.org/Graphics/SVG/1.1/DTD/svg11.dtd">
<svg version="1.1" id="Layer_1" xmlns="http://www.w3.org/2000/svg" xmlns:xlink="http://www.w3.org/1999/xlink" x="0px" y="0px"
	 width="150px" height="150px" viewBox="0 0 150 150" enable-background="new 0 0 150 150" xml:space="preserve">
<g>
	<path fill-rule="evenodd" clip-rule="evenodd" fill="#BA0000" d="M0,75c0-10.04,1.986-19.626,5.573-28.387H144.44
		C148.027,55.374,150,64.96,150,75c0,9.453-1.747,18.507-4.947,26.84H4.959C1.76,93.507,0,84.453,0,75z"/>
	<path fill-rule="evenodd" clip-rule="evenodd" d="M75,0c31.733,0,58.879,19.734,69.826,47.587H5.173C16.133,19.734,43.28,0,75,0z"
		/>
	<path fill-rule="evenodd" clip-rule="evenodd" fill="#FFBD00" d="M4.613,100.921H145.4C134.84,129.56,107.293,150,75,150
		C42.72,150,15.173,129.56,4.613,100.921z"/>
</g>
</svg>
