<?xml version="1.0" encoding="utf-8"?>
<!-- Generator: Adobe Illustrator 16.2.0, SVG Export Plug-In . SVG Version: 6.00 Build 0)  -->
<!DOCTYPE svg PUBLIC "-//W3C//DTD SVG 1.1//EN" "http://www.w3.org/Graphics/SVG/1.1/DTD/svg11.dtd">
<svg version="1.1" id="Layer_1" xmlns="http://www.w3.org/2000/svg" xmlns:xlink="http://www.w3.org/1999/xlink" x="0px" y="0px"
	 width="150px" height="150px" viewBox="0 0 150 150" enable-background="new 0 0 150 150" xml:space="preserve">
<g>
	<path fill-rule="evenodd" clip-rule="evenodd" fill="#FFFFFF" d="M0,75c0-20.026,7.854-38.213,20.654-51.68h108.68
		C142.133,36.787,150,54.974,150,75c0,20.134-7.959,38.44-20.893,51.907H20.881C7.947,113.44,0,95.134,0,75z"/>
	<path fill-rule="evenodd" clip-rule="evenodd" fill="#191980" d="M75,0c21.734,0,41.334,9.268,55.027,24.067H19.961
		C33.654,9.268,53.254,0,75,0z"/>
	<path fill-rule="evenodd" clip-rule="evenodd" fill="#191980" d="M19.961,125.947h110.066C116.32,140.734,96.734,150,75,150
		C53.254,150,33.666,140.734,19.961,125.947z"/>
	<path fill-rule="evenodd" clip-rule="evenodd" fill="#191980" d="M74.947,122.587L61.16,98.907H33.348L47.254,75L33.348,51.094
		h27.826l13.773-23.667l13.773,23.667h27.813L102.627,75l13.906,23.907H88.721L74.947,122.587z M74.947,107.214l4.826-8.307h-9.666
		L74.947,107.214z M56.666,91.174l-4.932-8.48l-4.947,8.48H56.666z M84.279,91.174L93.68,75l-9.412-16.173H65.613L56.201,75
		l9.412,16.174H84.279z M103.094,91.174l-4.934-8.493l-4.947,8.493H103.094z M98.16,67.32l4.947-8.493h-9.895L98.16,67.32z
		 M51.734,67.32l4.932-8.493h-9.879L51.734,67.32z M79.773,51.094l-4.826-8.307l-4.826,8.307H79.773z"/>
</g>
</svg>
