<?xml version="1.0" encoding="utf-8"?>
<!-- Generator: Adobe Illustrator 16.2.0, SVG Export Plug-In . SVG Version: 6.00 Build 0)  -->
<!DOCTYPE svg PUBLIC "-//W3C//DTD SVG 1.1//EN" "http://www.w3.org/Graphics/SVG/1.1/DTD/svg11.dtd">
<svg version="1.1" id="Layer_1" xmlns="http://www.w3.org/2000/svg" xmlns:xlink="http://www.w3.org/1999/xlink" x="0px" y="0px"
	 width="150px" height="150px" viewBox="0 0 150 150" enable-background="new 0 0 150 150" xml:space="preserve">
<g>
	<path fill-rule="evenodd" clip-rule="evenodd" fill="#FFFFFF" d="M32.6,136.891V13.109c25.467-17.479,59.347-17.479,84.8,0v123.781
		C91.946,154.37,58.066,154.37,32.6,136.891z"/>
	<path fill-rule="evenodd" clip-rule="evenodd" fill="#307330" d="M21.96,128.038c-29.28-29.278-29.28-76.796,0-106.075
		c9.4-9.4,20.667-15.773,32.613-19.146v144.367C42.626,143.811,31.36,137.438,21.96,128.038z"/>
	<path fill-rule="evenodd" clip-rule="evenodd" fill="#BA0000" d="M95.44,147.184V2.817c11.933,3.373,23.213,9.746,32.6,19.146
		c29.28,29.278,29.28,76.796,0,106.075C118.653,137.438,107.373,143.811,95.44,147.184z"/>
</g>
</svg>
