<?xml version="1.0" encoding="utf-8"?>
<!-- Generator: Adobe Illustrator 16.2.0, SVG Export Plug-In . SVG Version: 6.00 Build 0)  -->
<!DOCTYPE svg PUBLIC "-//W3C//DTD SVG 1.1//EN" "http://www.w3.org/Graphics/SVG/1.1/DTD/svg11.dtd">
<svg version="1.1" id="Layer_1" xmlns="http://www.w3.org/2000/svg" xmlns:xlink="http://www.w3.org/1999/xlink" x="0px" y="0px"
	 width="150px" height="150px" viewBox="0 0 150 150" enable-background="new 0 0 150 150" xml:space="preserve">
<g>
	<path fill-rule="evenodd" clip-rule="evenodd" fill="#FFFFFF" d="M0,75C0,33.973,33,0.6,73.894,0.014h2.213
		C117,0.6,150,33.973,150,75c0,41.4-33.601,75-75,75C33.6,150,0,116.4,0,75z"/>
	<path fill-rule="evenodd" clip-rule="evenodd" fill="#BA0000" d="M75,0c14.479,0,28,4.107,39.467,11.213H35.533
		C47,4.107,60.52,0,75,0z"/>
	<path fill-rule="evenodd" clip-rule="evenodd" fill="#BA0000" d="M21.333,22.613h107.334c3.479,3.574,6.613,7.494,9.333,11.693H12
		C14.72,30.107,17.854,26.187,21.333,22.613z"/>
	<path fill-rule="evenodd" clip-rule="evenodd" fill="#BA0000" d="M5.946,45.707h138.106c1.601,3.746,2.894,7.653,3.867,11.693H2.08
		C3.053,53.36,4.347,49.453,5.946,45.707z"/>
	<path fill-rule="evenodd" clip-rule="evenodd" fill="#BA0000" d="M0,75c0-2.093,0.08-4.16,0.253-6.2h149.493
		C149.92,70.84,150,72.907,150,75c0,1.84-0.066,3.681-0.2,5.493H0.2C0.066,78.681,0,76.84,0,75z"/>
	<path fill-rule="evenodd" clip-rule="evenodd" fill="#BA0000" d="M1.906,91.88h146.187c-0.933,4.041-2.187,7.947-3.733,11.693H5.64
		C4.093,99.827,2.84,95.921,1.906,91.88z"/>
	<path fill-rule="evenodd" clip-rule="evenodd" fill="#BA0000" d="M11.934,115.587h126.133c-2.707,4.199-5.826,8.12-9.307,11.693
		H21.24C17.76,123.707,14.64,119.786,11.934,115.587z"/>
	<path fill-rule="evenodd" clip-rule="evenodd" fill="#BA0000" d="M36.359,139.28h77.28C102.359,146.08,89.133,150,75,150
		C60.866,150,47.64,146.08,36.359,139.28z"/>
	<path fill-rule="evenodd" clip-rule="evenodd" fill="#191980" d="M0,75C0,33.6,33.6,0,75,0c6.706,0,13.213,0.88,19.399,2.534V80.36
		H0.187C0.066,78.587,0,76.8,0,75z"/>
	<g>
		<path fill-rule="evenodd" clip-rule="evenodd" fill="#FFFFFF" d="M41.693,11.453l-2.92-2.133c0.64-0.347,1.293-0.693,1.933-1.027
			L41.693,11.453z M35.587,11.414l0.093-0.28c0.641-0.387,1.267-0.773,1.92-1.146L35.587,11.414z"/>
		<path fill-rule="evenodd" clip-rule="evenodd" fill="#FFFFFF" d="M57.974,11.453l-3.04-2.213l-3.067,2.173l1.16-3.574L50.013,5.6
			h3.761l0.946-2.827c0.16-0.04,0.307-0.08,0.453-0.12l0.96,2.959l3.773,0.041l-3.053,2.2L57.974,11.453z"/>
		<polygon fill-rule="evenodd" clip-rule="evenodd" fill="#FFFFFF" points="74.253,11.453 71.213,9.24 68.146,11.414 69.307,7.84 
			66.293,5.6 70.053,5.6 71.253,2.027 72.413,5.613 76.187,5.654 73.133,7.854 		"/>
		<polygon fill-rule="evenodd" clip-rule="evenodd" fill="#FFFFFF" points="90.533,11.453 87.479,9.24 84.413,11.414 85.587,7.84 
			82.56,5.6 86.333,5.6 87.533,2.027 88.693,5.613 92.453,5.654 89.399,7.854 		"/>
		<path fill-rule="evenodd" clip-rule="evenodd" fill="#FFFFFF" d="M25.427,27.867l-3.04-2.213L19.32,27.84l1.159-3.586
			l-0.413-0.307c1.014-1.08,2.054-2.133,3.12-3.16l0.4,1.24l3.772,0.04l-3.053,2.213L25.427,27.867z"/>
		<polygon fill-rule="evenodd" clip-rule="evenodd" fill="#FFFFFF" points="41.693,27.867 38.653,25.654 35.587,27.84 36.76,24.254 
			33.733,22.014 37.493,22.014 38.706,18.44 39.866,22.027 43.627,22.067 40.573,24.28 		"/>
		<polygon fill-rule="evenodd" clip-rule="evenodd" fill="#FFFFFF" points="57.974,27.867 54.934,25.654 51.866,27.84 
			53.026,24.254 50.013,22.014 53.773,22.014 54.974,18.44 56.133,22.027 59.906,22.067 56.854,24.28 		"/>
		<polygon fill-rule="evenodd" clip-rule="evenodd" fill="#FFFFFF" points="74.253,27.867 71.213,25.654 68.146,27.84 
			69.307,24.254 66.293,22.014 70.053,22.014 71.253,18.44 72.413,22.027 76.187,22.067 73.133,24.28 		"/>
		<polygon fill-rule="evenodd" clip-rule="evenodd" fill="#FFFFFF" points="90.533,27.867 87.479,25.654 84.413,27.84 
			85.587,24.254 82.56,22.014 86.333,22.014 87.533,18.44 88.693,22.027 92.453,22.067 89.399,24.28 		"/>
		<path fill-rule="evenodd" clip-rule="evenodd" fill="#FFFFFF" d="M9.146,44.293L7.213,42.88c0.294-0.626,0.601-1.24,0.907-1.854
			L9.146,44.293z M9.493,38.467l1.587,0.014l-2.627,1.906C8.8,39.734,9.133,39.107,9.493,38.467z"/>
		<polygon fill-rule="evenodd" clip-rule="evenodd" fill="#FFFFFF" points="25.427,44.293 22.387,42.08 19.32,44.254 20.479,40.68 
			17.467,38.427 21.227,38.44 22.427,34.867 23.587,38.453 27.359,38.48 24.307,40.693 		"/>
		<polygon fill-rule="evenodd" clip-rule="evenodd" fill="#FFFFFF" points="41.693,44.293 38.653,42.08 35.587,44.254 36.76,40.68 
			33.733,38.427 37.493,38.44 38.706,34.867 39.866,38.453 43.627,38.48 40.573,40.693 		"/>
		<polygon fill-rule="evenodd" clip-rule="evenodd" fill="#FFFFFF" points="57.974,44.293 54.934,42.08 51.866,44.254 53.026,40.68 
			50.013,38.427 53.773,38.44 54.974,34.867 56.133,38.453 59.906,38.48 56.854,40.693 		"/>
		<polygon fill-rule="evenodd" clip-rule="evenodd" fill="#FFFFFF" points="74.253,44.293 71.213,42.08 68.146,44.254 69.307,40.68 
			66.293,38.427 70.053,38.44 71.253,34.867 72.413,38.453 76.187,38.48 73.133,40.693 		"/>
		<polygon fill-rule="evenodd" clip-rule="evenodd" fill="#FFFFFF" points="90.533,44.293 87.479,42.08 84.413,44.254 85.587,40.68 
			82.56,38.427 86.333,38.44 87.533,34.867 88.693,38.453 92.453,38.48 89.399,40.693 		"/>
		<path fill-rule="evenodd" clip-rule="evenodd" fill="#FFFFFF" d="M9.146,60.72l-3.04-2.227L3.04,60.68l1.16-3.573l-1.721-1.28
			c0.08-0.333,0.174-0.653,0.254-0.973l2.213,0.014l1.2-3.574l1.16,3.587l3.773,0.026L8.026,57.12L9.146,60.72z"/>
		<polygon fill-rule="evenodd" clip-rule="evenodd" fill="#FFFFFF" points="25.427,60.72 22.387,58.494 19.32,60.68 20.479,57.107 
			17.467,54.854 21.227,54.867 22.427,51.293 23.587,54.88 27.359,54.907 24.307,57.12 		"/>
		<polygon fill-rule="evenodd" clip-rule="evenodd" fill="#FFFFFF" points="41.693,60.72 38.653,58.494 35.587,60.68 36.76,57.107 
			33.733,54.854 37.493,54.867 38.706,51.293 39.866,54.88 43.627,54.907 40.573,57.12 		"/>
		<polygon fill-rule="evenodd" clip-rule="evenodd" fill="#FFFFFF" points="57.974,60.72 54.934,58.494 51.866,60.68 53.026,57.107 
			50.013,54.854 53.773,54.867 54.974,51.293 56.133,54.88 59.906,54.907 56.854,57.12 		"/>
		<polygon fill-rule="evenodd" clip-rule="evenodd" fill="#FFFFFF" points="74.253,60.72 71.213,58.494 68.146,60.68 69.307,57.107 
			66.293,54.854 70.053,54.867 71.253,51.293 72.413,54.88 76.187,54.907 73.133,57.12 		"/>
		<polygon fill-rule="evenodd" clip-rule="evenodd" fill="#FFFFFF" points="90.533,60.72 87.479,58.494 84.413,60.68 85.587,57.107 
			82.56,54.854 86.333,54.867 87.533,51.293 88.693,54.88 92.453,54.907 89.399,57.12 		"/>
		<polygon fill-rule="evenodd" clip-rule="evenodd" fill="#FFFFFF" points="9.146,77.134 6.106,74.92 3.04,77.094 4.2,73.52 
			1.187,71.28 4.946,71.28 6.146,67.707 7.307,71.293 11.08,71.333 8.026,73.534 		"/>
		<polygon fill-rule="evenodd" clip-rule="evenodd" fill="#FFFFFF" points="25.427,77.134 22.387,74.92 19.32,77.094 20.479,73.52 
			17.467,71.28 21.227,71.28 22.427,67.707 23.587,71.293 27.359,71.333 24.307,73.534 		"/>
		<polygon fill-rule="evenodd" clip-rule="evenodd" fill="#FFFFFF" points="41.693,77.134 38.653,74.92 35.587,77.094 36.76,73.52 
			33.733,71.28 37.493,71.28 38.706,67.707 39.866,71.293 43.627,71.333 40.573,73.534 		"/>
		<polygon fill-rule="evenodd" clip-rule="evenodd" fill="#FFFFFF" points="57.974,77.134 54.934,74.92 51.866,77.094 53.026,73.52 
			50.013,71.28 53.773,71.28 54.974,67.707 56.133,71.293 59.906,71.333 56.854,73.534 		"/>
		<polygon fill-rule="evenodd" clip-rule="evenodd" fill="#FFFFFF" points="74.253,77.134 71.213,74.92 68.146,77.094 69.307,73.52 
			66.293,71.28 70.053,71.28 71.253,67.707 72.413,71.293 76.187,71.333 73.133,73.534 		"/>
		<polygon fill-rule="evenodd" clip-rule="evenodd" fill="#FFFFFF" points="90.533,77.134 87.479,74.92 84.413,77.094 85.587,73.52 
			82.56,71.28 86.333,71.28 87.533,67.707 88.693,71.293 92.453,71.333 89.399,73.534 		"/>
		<path fill-rule="evenodd" clip-rule="evenodd" fill="#FFFFFF" d="M33.16,19.173l-3.04-2.213l-3.08,2.187l0.8-2.454
			c1.453-1.173,2.934-2.293,4.467-3.346l2.773,0.026l-3.04,2.214L33.16,19.173z"/>
		<polygon fill-rule="evenodd" clip-rule="evenodd" fill="#FFFFFF" points="49.427,19.173 46.387,16.96 43.32,19.147 44.479,15.56 
			41.467,13.32 45.227,13.32 46.427,9.747 47.587,13.333 51.359,13.374 48.307,15.587 		"/>
		<polygon fill-rule="evenodd" clip-rule="evenodd" fill="#FFFFFF" points="65.706,19.173 62.667,16.96 59.6,19.147 60.76,15.56 
			57.746,13.32 61.507,13.32 62.706,9.747 63.866,13.333 67.627,13.374 64.587,15.587 		"/>
		<polygon fill-rule="evenodd" clip-rule="evenodd" fill="#FFFFFF" points="81.974,19.173 78.934,16.96 75.866,19.147 77.04,15.56 
			74.013,13.32 77.773,13.32 78.986,9.747 80.133,13.333 83.906,13.374 80.854,15.587 		"/>
		<path fill-rule="evenodd" clip-rule="evenodd" fill="#FFFFFF" d="M16.88,35.6l-3.04-2.213l-2.293,1.627
			c1.146-1.8,2.359-3.561,3.64-5.253l3.627,0.04L15.76,32L16.88,35.6z"/>
		<polygon fill-rule="evenodd" clip-rule="evenodd" fill="#FFFFFF" points="33.16,35.6 30.12,33.387 27.04,35.56 28.213,31.987 
			25.187,29.747 28.96,29.747 30.16,26.173 31.32,29.76 35.08,29.8 32.04,32 		"/>
		<polygon fill-rule="evenodd" clip-rule="evenodd" fill="#FFFFFF" points="49.427,35.6 46.387,33.387 43.32,35.56 44.479,31.987 
			41.467,29.747 45.227,29.747 46.427,26.173 47.587,29.76 51.359,29.8 48.307,32 		"/>
		<polygon fill-rule="evenodd" clip-rule="evenodd" fill="#FFFFFF" points="65.706,35.6 62.667,33.387 59.6,35.56 60.76,31.987 
			57.746,29.747 61.507,29.747 62.706,26.173 63.866,29.76 67.627,29.8 64.587,32 		"/>
		<polygon fill-rule="evenodd" clip-rule="evenodd" fill="#FFFFFF" points="81.974,35.6 78.934,33.387 75.866,35.56 77.04,31.987 
			74.013,29.747 77.773,29.747 78.986,26.173 80.133,29.76 83.906,29.8 80.854,32 		"/>
		<polygon fill-rule="evenodd" clip-rule="evenodd" fill="#FFFFFF" points="16.88,52.014 13.84,49.8 10.773,51.987 11.934,48.4 
			8.92,46.16 12.68,46.16 13.88,42.6 15.04,46.173 18.813,46.213 15.76,48.427 		"/>
		<polygon fill-rule="evenodd" clip-rule="evenodd" fill="#FFFFFF" points="33.16,52.014 30.12,49.8 27.04,51.987 28.213,48.4 
			25.187,46.16 28.96,46.16 30.16,42.6 31.32,46.173 35.08,46.213 32.04,48.427 		"/>
		<polygon fill-rule="evenodd" clip-rule="evenodd" fill="#FFFFFF" points="49.427,52.014 46.387,49.8 43.32,51.987 44.479,48.4 
			41.467,46.16 45.227,46.16 46.427,42.6 47.587,46.173 51.359,46.213 48.307,48.427 		"/>
		<polygon fill-rule="evenodd" clip-rule="evenodd" fill="#FFFFFF" points="65.706,52.014 62.667,49.8 59.6,51.987 60.76,48.4 
			57.746,46.16 61.507,46.16 62.706,42.6 63.866,46.173 67.627,46.213 64.587,48.427 		"/>
		<polygon fill-rule="evenodd" clip-rule="evenodd" fill="#FFFFFF" points="81.974,52.014 78.934,49.8 75.866,51.987 77.04,48.4 
			74.013,46.16 77.773,46.16 78.986,42.6 80.133,46.173 83.906,46.213 80.854,48.427 		"/>
		<polygon fill-rule="evenodd" clip-rule="evenodd" fill="#FFFFFF" points="16.88,68.44 13.84,66.227 10.773,68.414 11.934,64.827 
			8.92,62.587 12.68,62.587 13.88,59.014 15.04,62.6 18.813,62.64 15.76,64.84 		"/>
		<polygon fill-rule="evenodd" clip-rule="evenodd" fill="#FFFFFF" points="33.16,68.44 30.12,66.227 27.04,68.414 28.213,64.827 
			25.187,62.587 28.96,62.587 30.16,59.014 31.32,62.6 35.08,62.64 32.04,64.84 		"/>
		<polygon fill-rule="evenodd" clip-rule="evenodd" fill="#FFFFFF" points="49.427,68.44 46.387,66.227 43.32,68.414 44.479,64.827 
			41.467,62.587 45.227,62.587 46.427,59.014 47.587,62.6 51.359,62.64 48.307,64.84 		"/>
		<polygon fill-rule="evenodd" clip-rule="evenodd" fill="#FFFFFF" points="65.706,68.44 62.667,66.227 59.6,68.414 60.76,64.827 
			57.746,62.587 61.507,62.587 62.706,59.014 63.866,62.6 67.627,62.64 64.587,64.84 		"/>
		<polygon fill-rule="evenodd" clip-rule="evenodd" fill="#FFFFFF" points="81.974,68.44 78.934,66.227 75.866,68.414 77.04,64.827 
			74.013,62.587 77.773,62.587 78.986,59.014 80.133,62.6 83.906,62.64 80.854,64.84 		"/>
	</g>
</g>
</svg>
