<?xml version="1.0" encoding="utf-8"?>
<!-- Generator: Adobe Illustrator 16.2.0, SVG Export Plug-In . SVG Version: 6.00 Build 0)  -->
<!DOCTYPE svg PUBLIC "-//W3C//DTD SVG 1.1//EN" "http://www.w3.org/Graphics/SVG/1.1/DTD/svg11.dtd">
<svg version="1.1" id="Layer_1" xmlns="http://www.w3.org/2000/svg" xmlns:xlink="http://www.w3.org/1999/xlink" x="0px" y="0px"
	 width="28px" height="28px" viewBox="0 0 28 28" enable-background="new 0 0 28 28" xml:space="preserve">
<path d="M24.313,13.266c0,5.201-3.84,9.48-8.84,10.214V28h-2.947v-4.52c-4.987-0.733-8.84-5.013-8.84-10.214h2.947
	c0,4.067,3.307,7.361,7.374,7.361s7.36-3.293,7.36-7.361H24.313z M14.007,0c2.44,0,4.414,1.973,4.414,4.426v8.84
	c0,2.44-1.974,4.414-4.414,4.414s-4.426-1.974-4.426-4.414v-8.84C9.581,1.973,11.567,0,14.007,0L14.007,0z"/>
</svg>
