<?xml version="1.0" encoding="utf-8"?>
<!-- Generator: Adobe Illustrator 16.2.0, SVG Export Plug-In . SVG Version: 6.00 Build 0)  -->
<!DOCTYPE svg PUBLIC "-//W3C//DTD SVG 1.1//EN" "http://www.w3.org/Graphics/SVG/1.1/DTD/svg11.dtd">
<svg version="1.1" id="Layer_1" xmlns="http://www.w3.org/2000/svg" xmlns:xlink="http://www.w3.org/1999/xlink" x="0px" y="0px"
	 width="28px" height="28px" viewBox="0 0 28 28" enable-background="new 0 0 28 28" xml:space="preserve">
<path d="M5.8,17.307L4.76,18.334l4.16,4.172l1.053-1.053L5.8,17.307z M13.253,11.787c-1.214,0-2.2,0.986-2.2,2.213
	s0.986,2.213,2.2,2.213c1.227,0,2.213-0.986,2.213-2.213S14.48,11.787,13.253,11.787 M13.253,8.107c3.253,0,5.893,2.639,5.893,5.893
	c0,2.68-1.813,5.039-4.414,5.707v0.186c0,4.068-3.307,7.373-7.373,7.373c-4.067,0-7.36-3.305-7.36-7.373
	c0-4.066,3.293-7.373,7.36-7.373h0.2C8.213,9.934,10.56,8.107,13.253,8.107 M24.44,0.734H28V3.68h-2.346L19.4,9.934
	c-0.546-0.826-1.253-1.533-2.08-2.08L24.44,0.734L24.44,0.734z"/>
</svg>
