<?xml version="1.0" encoding="utf-8"?>
<!-- Generator: Adobe Illustrator 16.2.0, SVG Export Plug-In . SVG Version: 6.00 Build 0)  -->
<!DOCTYPE svg PUBLIC "-//W3C//DTD SVG 1.1//EN" "http://www.w3.org/Graphics/SVG/1.1/DTD/svg11.dtd">
<svg version="1.1" id="Layer_1" xmlns="http://www.w3.org/2000/svg" xmlns:xlink="http://www.w3.org/1999/xlink" x="0px" y="0px"
	 width="20px" height="20px" viewBox="0 0 20 20" enable-background="new 0 0 20 20" xml:space="preserve">
<path d="M7.426,2.293c-2.852,0-5.146,2.281-5.146,5.147c0,2.853,2.295,5.134,5.146,5.134c2.854,0,5.148-2.281,5.148-5.134
	C12.574,4.574,10.279,2.293,7.426,2.293 M7.426,0c4.107,0,7.428,3.333,7.428,7.44c0,1.84-0.68,3.52-1.787,4.828l0.307,0.307h0.906
	L20,18.293L18.279,20l-5.705-5.707v-0.906l-0.32-0.307c-1.295,1.107-2.986,1.787-4.828,1.787C3.32,14.867,0,11.533,0,7.44
	C0,3.333,3.32,0,7.426,0L7.426,0z"/>
</svg>
