<?xml version="1.0" encoding="utf-8"?>
<!-- Generator: Adobe Illustrator 16.2.0, SVG Export Plug-In . SVG Version: 6.00 Build 0)  -->
<!DOCTYPE svg PUBLIC "-//W3C//DTD SVG 1.1//EN" "http://www.w3.org/Graphics/SVG/1.1/DTD/svg11.dtd">
<svg version="1.1" id="Layer_1" xmlns="http://www.w3.org/2000/svg" xmlns:xlink="http://www.w3.org/1999/xlink" x="0px" y="0px"
	 width="28px" height="28px" viewBox="0 0 28 28" enable-background="new 0 0 28 28" xml:space="preserve">
<path d="M22.906,17.818h-5.08v-5.091h5.08V17.818z M2.547,25.454h17.813V28H2.547C1.133,28,0,26.854,0,25.454V10.182h2.547V25.454
	 M25.453,2.545C26.866,2.545,28,3.691,28,5.091v15.273c0,1.399-1.134,2.545-2.547,2.545H7.64c-1.413,0-2.546-1.146-2.546-2.545
	V5.091c0-1.399,1.133-2.545,2.546-2.545h1.267V0h2.547v2.545H21.64V0h2.547v2.545H25.453 M25.453,8.916H7.64v11.448h17.813V8.916z
	 M25.453,20.364"/>
</svg>
