<?xml version="1.0" encoding="utf-8"?>
<!-- Generator: Adobe Illustrator 16.2.0, SVG Export Plug-In . SVG Version: 6.00 Build 0)  -->
<!DOCTYPE svg PUBLIC "-//W3C//DTD SVG 1.1//EN" "http://www.w3.org/Graphics/SVG/1.1/DTD/svg11.dtd">
<svg version="1.1" id="Layer_1" xmlns="http://www.w3.org/2000/svg" xmlns:xlink="http://www.w3.org/1999/xlink" x="0px" y="0px"
	 width="20px" height="20px" viewBox="0 0 20 20" enable-background="new 0 0 20 20" xml:space="preserve">
<path d="M11.146,18.747l-1.066-1.054l0.533-0.533l-0.533-0.533l3.894-4.801c0.014-0.52,0.146-1.053,0.427-1.52l4.12,4.121
	c-0.467,0.279-1,0.412-1.521,0.426l-4.8,3.894l-0.533-0.521L11.146,18.747z M0,18.28v-2.134c0-2.346,3.801-4.254,8.507-4.254
	c1.253,0,2.44,0.135,3.521,0.387L7.146,18.28H0z M14.867,15.027c0.293-0.295,0.293-0.773,0-1.068c-0.293-0.293-0.773-0.293-1.066,0
	c-0.294,0.295-0.294,0.773,0,1.068C14.094,15.32,14.574,15.32,14.867,15.027z M19.12,13.959l-4.253-4.252
	c1.173-1.174,3.08-1.174,4.253,0C20.293,10.88,20.293,12.787,19.12,13.959z M4.254,5.506c0-2.346,1.906-4.253,4.253-4.253
	S12.76,3.16,12.76,5.506c0,2.36-1.906,4.267-4.253,4.267S4.254,7.867,4.254,5.506z"/>
</svg>
