<?xml version="1.0" encoding="utf-8"?>
<!-- Generator: Adobe Illustrator 16.2.0, SVG Export Plug-In . SVG Version: 6.00 Build 0)  -->
<!DOCTYPE svg PUBLIC "-//W3C//DTD SVG 1.1//EN" "http://www.w3.org/Graphics/SVG/1.1/DTD/svg11.dtd">
<svg version="1.1" id="Layer_1" xmlns="http://www.w3.org/2000/svg" xmlns:xlink="http://www.w3.org/1999/xlink" x="0px" y="0px"
	 width="28px" height="28px" viewBox="0 0 28 28" enable-background="new 0 0 28 28" xml:space="preserve">
<path d="M8.979,16.471l2.546,2.559l-4.079,3.053l-1.533-1.533L8.979,16.471z M24.03,1.926c-0.56-0.561-1.479-0.561-2.039,0
	L19.95,3.965l-4.079,4.094c-0.28,0.279-0.28,0.732,0,1.012l1.533,1.533c0.28,0.281,0.28,0.734-0.013,1.027
	c-0.28,0.279-0.733,0.266-1.014,0l-1.533-1.533c-0.787-0.787-0.787-2.279,0-3.066l3.92-3.92c-2.213-1.32-5.066-1.053-6.973,0.854
	l-1.533,1.533c1.4,1.414,1.4,3.693,0,5.105c-1.413,1.414-3.693,1.414-5.105,0L3.62,12.137c-2.827,2.826-2.827,7.373,0,10.199
	l2.039,2.039c2.826,2.826,7.386,2.826,10.212,0l1.533-1.52c-1.413-1.412-1.413-3.707-0.013-5.105c1.413-1.414,3.705-1.414,5.105,0
	l1.533-1.533c2.266-2.268,2.266-5.893,0-8.158l2.039-2.041c0.574-0.572,0.574-1.48,0-2.053L24.03,1.926L24.03,1.926z"/>
</svg>
