<?xml version="1.0" encoding="utf-8"?>
<!-- Generator: Adobe Illustrator 16.2.0, SVG Export Plug-In . SVG Version: 6.00 Build 0)  -->
<!DOCTYPE svg PUBLIC "-//W3C//DTD SVG 1.1//EN" "http://www.w3.org/Graphics/SVG/1.1/DTD/svg11.dtd">
<svg version="1.1" id="Layer_1" xmlns="http://www.w3.org/2000/svg" xmlns:xlink="http://www.w3.org/1999/xlink" x="0px" y="0px"
	 width="20px" height="20px" viewBox="0 0 20 20" enable-background="new 0 0 20 20" xml:space="preserve">
<path d="M6.35,2.193c0,1.066-0.885,1.951-1.951,1.951c-1.08,0-1.952-0.885-1.952-1.951c0-1.081,0.872-1.953,1.952-1.953
	C5.465,0.24,6.35,1.112,6.35,2.193 M13.168,5.121v1.951H7.326V19.76H5.374v-5.855H3.422v5.855H1.471v-7.809H0V7.072
	c0-1.08,0.871-1.951,1.951-1.951H13.168 M18.049,14.879c1.08,0,1.951-0.885,1.951-1.951V2.193c0-1.081-0.871-1.953-1.951-1.953
	H7.769c0.338,0.586,0.533,1.264,0.533,1.953h9.747v10.734H9.277v1.951H18.049z"/>
</svg>
