<?xml version="1.0" encoding="utf-8"?>
<!-- Generator: Adobe Illustrator 16.2.0, SVG Export Plug-In . SVG Version: 6.00 Build 0)  -->
<!DOCTYPE svg PUBLIC "-//W3C//DTD SVG 1.1//EN" "http://www.w3.org/Graphics/SVG/1.1/DTD/svg11.dtd">
<svg version="1.1" id="Layer_1" xmlns="http://www.w3.org/2000/svg" xmlns:xlink="http://www.w3.org/1999/xlink" x="0px" y="0px"
	 width="20px" height="20px" viewBox="0 0 20 20" enable-background="new 0 0 20 20" xml:space="preserve">
<path d="M4.441,13.334h2.227c0,1.199,1.52,2.227,3.332,2.227c1.814,0,3.334-1.027,3.334-2.227c0-1.213-1.16-1.668-3.6-2.254
	c-2.361-0.586-5.293-1.32-5.293-4.414C4.441,4.68,6.08,3,8.334,2.428V0h3.334v2.428C13.92,3,15.561,4.68,15.561,6.666h-2.227
	c0-1.199-1.52-2.213-3.334-2.213c-1.813,0-3.332,1.014-3.332,2.213c0,1.229,1.16,1.668,3.6,2.268c2.359,0.586,5.293,1.32,5.293,4.4
	c0,2-1.641,3.68-3.893,4.254V20H8.334v-2.412C6.08,17.014,4.441,15.334,4.441,13.334L4.441,13.334z"/>
</svg>
