<?xml version="1.0" encoding="utf-8"?>
<!-- Generator: Adobe Illustrator 16.2.0, SVG Export Plug-In . SVG Version: 6.00 Build 0)  -->
<!DOCTYPE svg PUBLIC "-//W3C//DTD SVG 1.1//EN" "http://www.w3.org/Graphics/SVG/1.1/DTD/svg11.dtd">
<svg version="1.1" id="Layer_1" xmlns="http://www.w3.org/2000/svg" xmlns:xlink="http://www.w3.org/1999/xlink" x="0px" y="0px"
	 width="20px" height="20px" viewBox="0 0 20 20" enable-background="new 0 0 20 20" xml:space="preserve">
<path fill-rule="evenodd" clip-rule="evenodd" d="M1.347,17.801V2.213C1.347,1,2.333,0,3.548,0h10.559l4.547,4.547v13.254
	c0,1.213-1,2.199-2.213,2.199H3.548C2.333,20,1.347,19.014,1.347,17.801z M14.733,12.307c0-0.561-0.453-1.027-1.027-1.027H5.214
	c-0.561,0-1.027,0.467-1.027,1.027c0,0.574,0.467,1.027,1.027,1.027h8.492C14.28,13.334,14.733,12.881,14.733,12.307z M14.733,8.721
	c0-0.574-0.467-1.027-1.027-1.027H5.214c-0.574,0-1.027,0.453-1.027,1.027c0,0.559,0.453,1.025,1.027,1.025h8.492
	C14.267,9.746,14.733,9.279,14.733,8.721z M11.626,5.133c0-0.572-0.465-1.025-1.025-1.025H5.093c-0.572,0-1.025,0.453-1.025,1.025
	c0,0.561,0.453,1.027,1.025,1.027h5.508C11.161,6.16,11.626,5.693,11.626,5.133z"/>
</svg>
