<?xml version="1.0" encoding="utf-8"?>
<!-- Generator: Adobe Illustrator 16.2.0, SVG Export Plug-In . SVG Version: 6.00 Build 0)  -->
<!DOCTYPE svg PUBLIC "-//W3C//DTD SVG 1.1//EN" "http://www.w3.org/Graphics/SVG/1.1/DTD/svg11.dtd">
<svg version="1.1" id="Layer_1" xmlns="http://www.w3.org/2000/svg" xmlns:xlink="http://www.w3.org/1999/xlink" x="0px" y="0px"
	 width="28px" height="28px" viewBox="0 0 28 28" enable-background="new 0 0 28 28" xml:space="preserve">
<path fill-rule="evenodd" clip-rule="evenodd" d="M0,25.35V4.977c0-0.373,0.307-0.679,0.68-0.679h9.279
	c1.213-0.174,2.174-0.761,3.04-1.413l0.947-0.773c0.307-0.227,0.733-0.174,0.96,0.119l12.959,15.759
	c0.227,0.294,0.16,0.72-0.134,0.946l-1.373,1.135c-0.307,0.227-0.734,0.159-0.96-0.135L16.705,9.363
	c-0.053,0.054-0.12,0.107-0.173,0.146l7.639,12.347l-1.426,0.88l-7.6-12.293c-0.04,0.027-0.066,0.04-0.107,0.054l5.76,12.985
	l-1.533,0.666l-5.76-12.972c-0.013,0.014-0.04,0.014-0.053,0.026l3.867,13.746l-1.614,0.453l-3.853-13.719c-0.026,0-0.04,0-0.053,0
	l1.986,14.078l-1.667,0.227l-1.96-13.958c-0.04,0-0.067,0.013-0.106,0.013v13.986H0.68C0.307,26.029,0,25.723,0,25.35z M8.346,24.43
	L8.346,24.43h0.014v-1.68H3.346v-1.667h5v-1.667h-5v-1.68h5V16.07h-5v-1.68h5v-1.667h-5v-1.667h5v-1.68h-5V7.71h5l0,0h0.027V6.031
	H1.68V24.43h1.213l0,0H8.346z"/>
</svg>
