<?xml version="1.0" encoding="utf-8"?>
<!-- Generator: Adobe Illustrator 16.2.0, SVG Export Plug-In . SVG Version: 6.00 Build 0)  -->
<!DOCTYPE svg PUBLIC "-//W3C//DTD SVG 1.1//EN" "http://www.w3.org/Graphics/SVG/1.1/DTD/svg11.dtd">
<svg version="1.1" id="Layer_1" xmlns="http://www.w3.org/2000/svg" xmlns:xlink="http://www.w3.org/1999/xlink" x="0px" y="0px"
	 width="28px" height="28px" viewBox="0 0 28 28" enable-background="new 0 0 28 28" xml:space="preserve">
<path d="M19.6,22.8h4.587V5.2h-2.841V16.4H19.6V22.8z M9.8,22.8h8.387v-6.4H16.44V5.2h-4.893V16.4H9.8V22.8 M3.8,5.2V22.8h4.6v-6.4
	H6.64V5.2H3.8 M3.8,2.4h20.387C25.733,2.4,27,3.653,27,5.2V22.8c0,1.547-1.267,2.799-2.813,2.799H3.8C2.253,25.6,1,24.347,1,22.8
	V5.2C1,3.653,2.253,2.4,3.8,2.4L3.8,2.4z"/>
</svg>
