<?xml version="1.0" encoding="utf-8"?>
<!-- Generator: Adobe Illustrator 16.2.0, SVG Export Plug-In . SVG Version: 6.00 Build 0)  -->
<!DOCTYPE svg PUBLIC "-//W3C//DTD SVG 1.1//EN" "http://www.w3.org/Graphics/SVG/1.1/DTD/svg11.dtd">
<svg version="1.1" id="Layer_1" xmlns="http://www.w3.org/2000/svg" xmlns:xlink="http://www.w3.org/1999/xlink" x="0px" y="0px"
	 width="20px" height="20px" viewBox="0 0 20 20" enable-background="new 0 0 20 20" xml:space="preserve">
<path fill-rule="evenodd" clip-rule="evenodd" d="M1,18V4c0-1.107,0.881-2,2-2h1V0h2v2h8V0h2v2h1c1.094,0,2,0.893,2,2v14
	c0,1.107-0.906,2-2,2H3C1.893,20,1,19.107,1,18z M17,18V7H3v11H17z M9.107,16.133l-3.84-3.84L6.84,10.72l2.268,2.266l4.705-4.719
	l1.574,1.573L9.107,16.133z"/>
</svg>
