<?xml version="1.0" encoding="utf-8"?>
<!-- Generator: Adobe Illustrator 16.2.0, SVG Export Plug-In . SVG Version: 6.00 Build 0)  -->
<!DOCTYPE svg PUBLIC "-//W3C//DTD SVG 1.1//EN" "http://www.w3.org/Graphics/SVG/1.1/DTD/svg11.dtd">
<svg version="1.1" id="Layer_1" xmlns="http://www.w3.org/2000/svg" xmlns:xlink="http://www.w3.org/1999/xlink" x="0px" y="0px"
	 width="28px" height="28px" viewBox="0 0 28 28" enable-background="new 0 0 28 28" xml:space="preserve">
<g>
	<path fill-rule="evenodd" clip-rule="evenodd" d="M0.293,10.555c0-3.759,5.401-6.291,11.322-6.357l-1.68,1.839
		C5.254,6.49,2.04,8.556,2.04,10.555c0,2.239,4.081,4.598,9.815,4.598c5.707,0,9.815-2.346,9.815-4.598
		c0-0.493-0.187-0.986-0.548-1.453l1.748-0.533c0.359,0.6,0.547,1.266,0.547,1.986c0,3.799-5.549,6.357-11.563,6.357
		C5.881,16.912,0.293,14.379,0.293,10.555z M13.963,6.049l2.307-1.386c1.494,0.333,2.841,0.827,3.961,1.466L18.403,7.17
		C17.176,6.636,15.683,6.236,13.963,6.049z"/>
	<path fill-rule="evenodd" clip-rule="evenodd" d="M6.215,27.281v-9.636c1.68,0.467,3.6,0.733,5.641,0.733
		c1.854,0,3.614-0.212,5.174-0.613v9.636C15.47,27.787,13.709,28,11.855,28C9.814,28,7.895,27.748,6.215,27.281z M19.35,26.641
		v-9.636c2.535-1.052,4.188-2.638,4.348-4.424v9.063c0.014,0.094,0.014,0.187,0.014,0.28C23.711,23.829,22.018,25.521,19.35,26.641z
		 M0,22.003L0,22.003v-9.609l0,0c0.053,1.746,1.547,3.318,3.895,4.411v9.622C1.533,25.335,0.039,23.762,0,22.003z"/>
	<path fill-rule="evenodd" clip-rule="evenodd" d="M9.375,8.396L22.244,0.12c0.414-0.241,0.96-0.107,1.213,0.306
		c0.24,0.399,0.107,0.946-0.307,1.199L9.628,8.955C9.215,9.128,8.961,8.595,9.375,8.396z"/>
	<path fill-rule="evenodd" clip-rule="evenodd" d="M12.469,11.448l14.376-5.251c0.453-0.16,0.96,0.093,1.106,0.546
		c0.16,0.466-0.092,0.959-0.547,1.106l-14.802,4.211C12.162,12.141,12.029,11.554,12.469,11.448z"/>
</g>
</svg>
