<?xml version="1.0" encoding="utf-8"?>
<!-- Generator: Adobe Illustrator 16.2.0, SVG Export Plug-In . SVG Version: 6.00 Build 0)  -->
<!DOCTYPE svg PUBLIC "-//W3C//DTD SVG 1.1//EN" "http://www.w3.org/Graphics/SVG/1.1/DTD/svg11.dtd">
<svg version="1.1" id="Layer_1" xmlns="http://www.w3.org/2000/svg" xmlns:xlink="http://www.w3.org/1999/xlink" x="0px" y="0px"
	 width="28px" height="28px" viewBox="0 0 28 28" enable-background="new 0 0 28 28" xml:space="preserve">
<path fill-rule="evenodd" clip-rule="evenodd" d="M6.563,26.672l-0.213-0.214c-0.533-0.534-0.906-1.213-1.106-1.933l-1.653,1.653
	c0.134,0.293,0.08,0.64-0.16,0.88l-0.066,0.066c-0.307,0.307-0.813,0.307-1.119,0l-1.692-1.693c-0.307-0.32-0.307-0.813,0-1.133
	l0.054-0.053c0.238-0.24,0.599-0.293,0.893-0.16l5.877-5.892l-0.492-0.493l-0.493,0.507l-0.56-0.56l1.439-1.439l0.546,0.56
	l-0.493,0.493l0.493,0.493l1.319-1.319l-0.492-0.494l-0.494,0.494l-0.56-0.547l1.439-1.439l0.56,0.56l-0.506,0.493l0.493,0.494
	l1.319-1.319l-0.493-0.494l-0.493,0.494l-0.561-0.547l1.439-1.439l0.547,0.56l-0.492,0.493l0.492,0.494l1.32-1.32l-0.493-0.494
	l-0.493,0.506l-0.561-0.56l1.439-1.426l0.547,0.546l-0.492,0.493l0.492,0.494l4.839-4.826c0.532-2.679,1.053-6.024,0.733-6.944
	c0.066-0.4,0.226-0.72,0.705-0.707c1.4,1.04,2.934,2.346,4.439,3.853c1.52,1.506,2.825,3.039,3.865,4.452
	c0,0.479-0.307,0.64-0.707,0.707c-0.933-0.32-4.278,0.186-6.943,0.733l-0.934,0.933c0.72,0.2,1.4,0.56,1.945,1.106l0.214,0.213
	c1.986,2,1.532,5.679-0.08,7.292l-7.317,7.317C12.242,28.218,8.563,28.671,6.563,26.672z M18.772,14.369l-0.105-0.107
	c-0.693-0.68-1.773-0.772-2.64-0.506l-7.704,7.691c-0.267,0.88-0.174,1.959,0.52,2.639l0.094,0.106c1,0.987,2.825,0.773,3.625-0.026
	l6.172-6.171C19.532,17.195,19.759,15.355,18.772,14.369z"/>
</svg>
