<?xml version="1.0" encoding="utf-8"?>
<!-- Generator: Adobe Illustrator 16.2.0, SVG Export Plug-In . SVG Version: 6.00 Build 0)  -->
<!DOCTYPE svg PUBLIC "-//W3C//DTD SVG 1.1//EN" "http://www.w3.org/Graphics/SVG/1.1/DTD/svg11.dtd">
<svg version="1.1" id="Layer_1" xmlns="http://www.w3.org/2000/svg" xmlns:xlink="http://www.w3.org/1999/xlink" x="0px" y="0px"
	 width="28px" height="28px" viewBox="0 0 28 28" enable-background="new 0 0 28 28" xml:space="preserve">
<path fill-rule="evenodd" clip-rule="evenodd" d="M14.306,26.687l-2.239-2.239c-0.4-0.399-0.413-1.065,0-1.479l0.08-0.08
	c0.414-0.399,1.08-0.399,1.479,0l0.293,0.307l2.772-2.771l-2.612-2.612l-5.144,5.157c-2.519,2.505-5.637,1.998-7.436,0.16
	c-1.786-1.826-2.266-4.984,0.173-7.423l7.196-7.182c1.346-1.946,1.479-4.852,0.813-7.037c-0.146-0.253,0.227-0.626,0.427-0.426
	l7.835,7.835c0.2,0.2-0.173,0.573-0.426,0.427C15.398,8.67,12.6,8.79,10.655,10.017l-2.186,2.185l3.971,3.971l8.502-8.501
	c1.812-1.813,4.25-1.279,5.717,0.173c1.452,1.439,2.025,3.878,0.173,5.73l-11.26,11.26l0.293,0.293c0.4,0.414,0.4,1.066,0,1.479
	l-0.08,0.08C15.372,27.1,14.705,27.1,14.306,26.687z M25.02,9.497c-0.653-0.641-1.653-0.961-2.438-0.188l-6.85,6.862l2.599,2.612
	l6.862-6.863C26.005,11.108,25.646,10.109,25.02,9.497z M7.643,20.957l-3.958-3.959l-0.359,0.36c-1.466,1.452-1.16,3.132-0.16,4.144
	c0.959,0.987,2.585,1.348,4.117-0.186L7.643,20.957z M10.788,17.812L6.83,13.854l-1.506,1.506l3.971,3.957L10.788,17.812z"/>
</svg>
