<?xml version="1.0" encoding="utf-8"?>
<!-- Generator: Adobe Illustrator 16.2.0, SVG Export Plug-In . SVG Version: 6.00 Build 0)  -->
<!DOCTYPE svg PUBLIC "-//W3C//DTD SVG 1.1//EN" "http://www.w3.org/Graphics/SVG/1.1/DTD/svg11.dtd">
<svg version="1.1" id="Layer_1" xmlns="http://www.w3.org/2000/svg" xmlns:xlink="http://www.w3.org/1999/xlink" x="0px" y="0px"
	 width="20px" height="20px" viewBox="0 0 20 20" enable-background="new 0 0 20 20" xml:space="preserve">
<path fill-rule="evenodd" clip-rule="evenodd" d="M1,17.033c0-0.547,0.439-0.986,0.986-0.986H2.6V7.446H1.986
	C1.439,7.446,1,7.006,1,6.459c0-0.493,0.373-0.907,0.854-0.973L10,1.98l8.133,3.506C18.627,5.54,19,5.966,19,6.459
	c0,0.546-0.439,0.986-0.986,0.986H17.4v8.601h0.613c0.547,0,0.986,0.439,0.986,0.986s-0.439,0.986-0.986,0.986H1.986
	C1.439,18.02,1,17.58,1,17.033z M6.76,16.047V7.993H4.893v8.054H6.76z M10.934,16.047V7.993H9.053v8.054H10.934z M15.107,16.047
	V7.993h-1.881v8.054H15.107z"/>
</svg>
