<?xml version="1.0" encoding="utf-8"?>
<!-- Generator: Adobe Illustrator 16.2.0, SVG Export Plug-In . SVG Version: 6.00 Build 0)  -->
<!DOCTYPE svg PUBLIC "-//W3C//DTD SVG 1.1//EN" "http://www.w3.org/Graphics/SVG/1.1/DTD/svg11.dtd">
<svg version="1.1" id="Layer_1" xmlns="http://www.w3.org/2000/svg" xmlns:xlink="http://www.w3.org/1999/xlink" x="0px" y="0px"
	 width="20px" height="20px" viewBox="0 0 20 20" enable-background="new 0 0 20 20" xml:space="preserve">
<path fill-rule="evenodd" clip-rule="evenodd" d="M2.93,17.07c-3.906-3.906-3.906-10.236,0-14.142
	c3.905-3.905,10.236-3.905,14.142,0s3.905,10.235,0,14.142S6.835,20.977,2.93,17.07z M5.315,17.977l2.013-3.439
	c-0.373-0.213-0.733-0.492-1.053-0.813c-0.359-0.373-0.666-0.773-0.906-1.213l-3.467,1.959c0.414,0.734,0.934,1.439,1.561,2.066
	C4.035,17.109,4.648,17.59,5.315,17.977z M13.206,13.205c1.759-1.773,1.759-4.638,0-6.411c-1.772-1.759-4.639-1.759-6.411,0
	c-1.76,1.773-1.76,4.638,0,6.411C8.567,14.965,11.434,14.965,13.206,13.205z M9.181,10.819c-0.467-0.453-0.467-1.187,0-1.653
	c0.452-0.453,1.187-0.453,1.653,0c0.453,0.466,0.453,1.2,0,1.653C10.367,11.285,9.633,11.285,9.181,10.819z M14.565,7.354
	l3.466-1.96c-0.387-0.692-0.893-1.346-1.479-1.946c-0.573-0.56-1.187-1.04-1.853-1.426l-2.014,3.425
	c0.374,0.226,0.721,0.493,1.053,0.826C14.059,6.594,14.339,6.967,14.565,7.354z"/>
</svg>
