<?xml version="1.0" encoding="utf-8"?>
<!-- Generator: Adobe Illustrator 16.2.0, SVG Export Plug-In . SVG Version: 6.00 Build 0)  -->
<!DOCTYPE svg PUBLIC "-//W3C//DTD SVG 1.1//EN" "http://www.w3.org/Graphics/SVG/1.1/DTD/svg11.dtd">
<svg version="1.1" id="Layer_1" xmlns="http://www.w3.org/2000/svg" xmlns:xlink="http://www.w3.org/1999/xlink" x="0px" y="0px"
	 width="20px" height="20px" viewBox="0 0 20 20" enable-background="new 0 0 20 20" xml:space="preserve">
<path d="M13.307,11.421c-0.773,0-1.414-0.641-1.414-1.427c0-0.773,0.641-1.414,1.414-1.414c0.787,0,1.426,0.641,1.426,1.414
	C14.732,10.78,14.094,11.421,13.307,11.421 M9.52,13.794H19V6.207H9.52 M18.053,15.687v0.947c0,1.039-0.854,1.893-1.893,1.893H2.893
	C1.84,18.526,1,17.673,1,16.634V3.367c0-1.04,0.84-1.894,1.893-1.894H16.16c1.039,0,1.893,0.854,1.893,1.894v0.947H9.52
	c-1.053,0-1.893,0.853-1.893,1.893v7.587c0,1.039,0.854,1.893,1.893,1.893H18.053z"/>
</svg>
