<?xml version="1.0" encoding="utf-8"?>
<!-- Generator: Adobe Illustrator 16.2.0, SVG Export Plug-In . SVG Version: 6.00 Build 0)  -->
<!DOCTYPE svg PUBLIC "-//W3C//DTD SVG 1.1//EN" "http://www.w3.org/Graphics/SVG/1.1/DTD/svg11.dtd">
<svg version="1.1" id="Layer_1" xmlns="http://www.w3.org/2000/svg" xmlns:xlink="http://www.w3.org/1999/xlink" x="0px" y="0px"
	 width="20px" height="20px" viewBox="0 0 20 20" enable-background="new 0 0 20 20" xml:space="preserve">
<path fill-rule="evenodd" clip-rule="evenodd" d="M0,15.887v-3.693c0.586,0.014,1.174-0.199,1.613-0.641
	c0.854-0.852,0.854-2.238,0-3.092C1.174,8.008,0.586,7.793,0,7.82V4.113c0-1.199,0.973-2.174,2.174-2.174h15.652
	C19.025,1.939,20,2.914,20,4.113V7.82c-0.561,0-1.121,0.213-1.547,0.641c-0.854,0.854-0.854,2.24,0,3.092
	c0.426,0.428,0.986,0.641,1.547,0.641v3.693c0,1.201-0.975,2.174-2.174,2.174H2.174C0.973,18.061,0,17.088,0,15.887z M11,15.154
	c0.506-0.508,0.506-1.32,0-1.828c-0.508-0.506-1.32-0.506-1.826,0c-0.508,0.508-0.508,1.32,0,1.828
	C9.68,15.66,10.492,15.66,11,15.154z M11,10.848c0.506-0.508,0.506-1.32,0-1.828c-0.508-0.506-1.32-0.506-1.826,0
	c-0.508,0.508-0.508,1.32,0,1.828C9.68,11.354,10.492,11.354,11,10.848z M11,6.541c0.506-0.494,0.506-1.32,0-1.828
	c-0.508-0.492-1.32-0.492-1.826,0c-0.508,0.508-0.508,1.334,0,1.828C9.68,7.047,10.492,7.047,11,6.541z"/>
</svg>
