<?xml version="1.0" encoding="utf-8"?>
<!-- Generator: Adobe Illustrator 16.2.0, SVG Export Plug-In . SVG Version: 6.00 Build 0)  -->
<!DOCTYPE svg PUBLIC "-//W3C//DTD SVG 1.1//EN" "http://www.w3.org/Graphics/SVG/1.1/DTD/svg11.dtd">
<svg version="1.1" id="Layer_1" xmlns="http://www.w3.org/2000/svg" xmlns:xlink="http://www.w3.org/1999/xlink" x="0px" y="0px"
	 width="20px" height="20px" viewBox="0 0 20 20" enable-background="new 0 0 20 20" xml:space="preserve">
<path d="M2.926,17.08c-3.906-3.906-3.906-10.24,0-14.146C4.834,1.014,7.34,0.04,9.834,0c0.119,0,0.213,0,0.318,0
	c2.508,0.04,5,1.014,6.92,2.934c3.908,3.906,3.908,10.24,0,14.146c-1.92,1.906-4.412,2.881-6.906,2.92c-0.119,0-0.213,0-0.332,0
	C7.34,19.961,4.846,18.986,2.926,17.08z M13.299,16.267c0.295-0.507,0.547-1.053,0.762-1.64h-3.521v4
	C11.473,18.427,12.459,17.693,13.299,16.267z M9.221,18.561v-3.934H5.939c0.213,0.587,0.467,1.133,0.76,1.64
	C7.459,17.574,8.354,18.294,9.221,18.561z M5.566,16.947c-0.414-0.707-0.76-1.494-1.014-2.32H2.646
	c0.348,0.533,0.746,1.04,1.213,1.507c0.68,0.68,1.439,1.227,2.24,1.626C5.914,17.507,5.74,17.24,5.566,16.947z M16.141,16.134
	c0.467-0.467,0.865-0.974,1.213-1.507h-1.906c-0.254,0.826-0.602,1.613-1.014,2.32c-0.174,0.293-0.348,0.56-0.533,0.813
	C14.699,17.36,15.459,16.813,16.141,16.134z M3.887,10.653H1.354c0.066,0.907,0.266,1.8,0.613,2.653h2.24
	C4.02,12.44,3.914,11.547,3.887,10.653z M9.221,13.307v-2.653H5.207c0.039,0.907,0.16,1.8,0.346,2.653H9.221z M14.793,10.653h-4.254
	v2.653h3.908C14.633,12.453,14.754,11.561,14.793,10.653z M18.646,10.653h-2.533c-0.027,0.894-0.146,1.787-0.32,2.653h2.24
	C18.379,12.453,18.58,11.561,18.646,10.653z M4.221,6.627H2.006C1.633,7.494,1.42,8.414,1.354,9.334h2.533
	C3.926,8.414,4.033,7.507,4.221,6.627z M9.221,9.334V6.627H5.58C5.367,7.494,5.246,8.414,5.207,9.334H9.221z M14.42,6.627h-3.881
	v2.707h4.254C14.754,8.414,14.633,7.494,14.42,6.627z M17.994,6.627h-2.215c0.188,0.88,0.293,1.787,0.334,2.707h2.533
	C18.58,8.414,18.367,7.494,17.994,6.627z M5.566,3.067C5.74,2.773,5.914,2.494,6.1,2.24c-0.801,0.413-1.561,0.947-2.24,1.627
	C3.42,4.32,3.02,4.801,2.699,5.307H4.58C4.834,4.507,5.166,3.747,5.566,3.067z M9.221,5.307V1.44
	C8.367,1.707,7.459,2.427,6.699,3.734C6.42,4.214,6.166,4.747,5.967,5.307H9.221z M13.299,3.734c-0.84-1.428-1.826-2.147-2.76-2.348
	v3.92h3.494C13.82,4.747,13.58,4.214,13.299,3.734z M16.141,3.867c-0.682-0.68-1.441-1.214-2.24-1.627
	c0.186,0.254,0.359,0.533,0.533,0.827c0.4,0.68,0.732,1.439,0.986,2.239h1.879C16.967,4.801,16.58,4.32,16.141,3.867z"/>
</svg>
