<?xml version="1.0" encoding="utf-8"?>
<!-- Generator: Adobe Illustrator 16.2.0, SVG Export Plug-In . SVG Version: 6.00 Build 0)  -->
<!DOCTYPE svg PUBLIC "-//W3C//DTD SVG 1.1//EN" "http://www.w3.org/Graphics/SVG/1.1/DTD/svg11.dtd">
<svg version="1.1" id="Layer_1" xmlns="http://www.w3.org/2000/svg" xmlns:xlink="http://www.w3.org/1999/xlink" x="0px" y="0px"
	 width="28px" height="28px" viewBox="0 0 28 28" enable-background="new 0 0 28 28" xml:space="preserve">
<path fill-rule="evenodd" clip-rule="evenodd" d="M3.073,25.211c-4.48-3.213-3.547-9.332-0.493-10.066
	c4.079-0.986,5.666-1.652,7.185-5c0.907-2.572,2.214-4.238,4.439-3.813L13.778,7.6c-1.4,2.119-1.053,4.932,1.279,3.105l4.146-4.293
	l0.146-2.332l5.973-3.654c2.106-0.84,2.92,0.014,2.613,2.32c-2.08-0.398-3.186,0.867-3.945,2.746l-0.067,0.707l-3.387,1.613
	l-6.333,6.479c-1.332,1.348-0.08,3.453,2.961,1.201c1.773-1.295,1.76,2.613-0.773,3.307c-2.52,0.705-5.094,2.893-5.146,6.051
	C11.179,29.09,7.792,28.596,3.073,25.211z M8.499,22.703c0.307-0.318,0.293-0.826-0.026-1.119L5.659,18.93
	c-0.32-0.305-0.826-0.291-1.119,0.027c-0.307,0.32-0.293,0.826,0.025,1.121l2.813,2.652C7.699,23.037,8.206,23.023,8.499,22.703z"/>
</svg>
