<?xml version="1.0" encoding="utf-8"?>
<!-- Generator: Adobe Illustrator 16.2.0, SVG Export Plug-In . SVG Version: 6.00 Build 0)  -->
<!DOCTYPE svg PUBLIC "-//W3C//DTD SVG 1.1//EN" "http://www.w3.org/Graphics/SVG/1.1/DTD/svg11.dtd">
<svg version="1.1" id="Layer_1" xmlns="http://www.w3.org/2000/svg" xmlns:xlink="http://www.w3.org/1999/xlink" x="0px" y="0px"
	 width="20px" height="20px" viewBox="0 0 20 20" enable-background="new 0 0 20 20" xml:space="preserve">
<path d="M7.268,12.727h7.279v-1.813H7.268V12.727z M7.268,10.913 M7.268,9.088h9.092V7.273H7.268V9.088z M10,19.993
	c-0.506,0-0.92-0.399-0.92-0.906v-2.72H5.453c-1,0-1.826-0.813-1.826-1.827V5.461c0-1.014,0.826-1.827,1.826-1.827h12.721
	C19.188,3.634,20,4.447,20,5.461v9.079c0,1.014-0.813,1.827-1.826,1.827h-3.721L11.08,19.74c-0.174,0.16-0.4,0.253-0.627,0.253H10
	 M1.813,12.727H0V1.82c0-1,0.813-1.813,1.813-1.813h14.547V1.82H1.813V12.727L1.813,12.727z"/>
</svg>
