<?xml version="1.0" encoding="utf-8"?>
<!-- Generator: Adobe Illustrator 16.2.0, SVG Export Plug-In . SVG Version: 6.00 Build 0)  -->
<!DOCTYPE svg PUBLIC "-//W3C//DTD SVG 1.1//EN" "http://www.w3.org/Graphics/SVG/1.1/DTD/svg11.dtd">
<svg version="1.1" id="Layer_1" xmlns="http://www.w3.org/2000/svg" xmlns:xlink="http://www.w3.org/1999/xlink" x="0px" y="0px"
	 width="28px" height="28px" viewBox="0 0 28 28" enable-background="new 0 0 28 28" xml:space="preserve">
<g>
	<path fill-rule="evenodd" clip-rule="evenodd" d="M20.295,10.574c0.641-0.267,0.934-1.013,0.654-1.64
		c-0.268-0.64-1-0.933-1.64-0.653c-0.64,0.268-0.934,1.014-0.653,1.64C18.923,10.561,19.67,10.854,20.295,10.574z"/>
	<path fill-rule="evenodd" clip-rule="evenodd" d="M17.696,13.574c0.64-0.268,0.933-1,0.653-1.641
		c-0.267-0.626-1.014-0.933-1.64-0.652c-0.641,0.279-0.934,1.013-0.653,1.64C16.323,13.561,17.057,13.854,17.696,13.574z"/>
	<path fill-rule="evenodd" clip-rule="evenodd" d="M15.017,16.547c0.641-0.281,0.934-1.014,0.653-1.653
		c-0.267-0.627-1-0.92-1.64-0.653c-0.64,0.28-0.934,1.013-0.653,1.64C13.644,16.52,14.391,16.813,15.017,16.547z"/>
	<path fill-rule="evenodd" clip-rule="evenodd" d="M4.006,24.251c-1.133-2.546,0.333-5.625,2.373-8.024L20.563,2.35
		c0.267-0.72-0.547-0.507-0.854-0.453c-1.399,0.653-2.293,0.986-3.333,1.227v-1.8c0.72-0.106,1.787-0.52,2.813-0.88
		c0.84-0.347,3.545-1.039,4.732,0.613c0.68,0.92,0.627,2.08-0.227,3.347L8.925,21.198c-1.293,1.227,0.56,2.854,1.493,1.48
		l2.039-2.466c1.227-1.533,2.506-2.986,4.306-3.427c1.267-0.373,2.228-1.08,2.427-2.586c0.04-0.601,1.014-0.84,1.08,0.253
		l0.893,8.492c0.014,0.893-0.746,1.133-1.199,0.399c-0.68-1.066-2.334-0.906-3.8,0.106l-2.933,3.319
		C11.165,28.997,5.792,28.224,4.006,24.251z"/>
</g>
</svg>
