<?xml version="1.0" encoding="utf-8"?>
<!-- Generator: Adobe Illustrator 16.2.0, SVG Export Plug-In . SVG Version: 6.00 Build 0)  -->
<!DOCTYPE svg PUBLIC "-//W3C//DTD SVG 1.1//EN" "http://www.w3.org/Graphics/SVG/1.1/DTD/svg11.dtd">
<svg version="1.1" id="Layer_1" xmlns="http://www.w3.org/2000/svg" xmlns:xlink="http://www.w3.org/1999/xlink" x="0px" y="0px"
	 width="20px" height="20px" viewBox="0 0 20 20" enable-background="new 0 0 20 20" xml:space="preserve">
<path d="M2.22,20V2.227C2.22,1,3.22,0,4.446,0h11.107c1.227,0,2.227,1,2.227,2.227V20l-7.773-3.334L2.22,20z M8.792,13.561
	c1.348-0.215,2.455-1.281,2.455-2.361c0-0.039,0-0.066,0-0.092l0,0L11.206,4.08c0.174,0.893,0.947,0.907,1.721,1.347
	c0.572,0.333,0.879,0.799,1.014,1.346c-0.135-0.547,0.092-1.934-1.014-2.52c-0.986-0.521-1.588-1.107-1.721-1.96v-1
	c-0.467,0.146-0.84,0.653-0.84,1.12v1.64c0,0.027,0,0.054,0,0.08V9.84C9.94,9.613,9.38,9.533,8.792,9.64
	C7.433,9.854,6.327,10.92,6.327,12S7.433,13.787,8.792,13.561z"/>
</svg>
