<?xml version="1.0" encoding="utf-8"?>
<!-- Generator: Adobe Illustrator 16.2.0, SVG Export Plug-In . SVG Version: 6.00 Build 0)  -->
<!DOCTYPE svg PUBLIC "-//W3C//DTD SVG 1.1//EN" "http://www.w3.org/Graphics/SVG/1.1/DTD/svg11.dtd">
<svg version="1.1" id="Layer_1" xmlns="http://www.w3.org/2000/svg" xmlns:xlink="http://www.w3.org/1999/xlink" x="0px" y="0px"
	 width="28px" height="28px" viewBox="0 0 28 28" enable-background="new 0 0 28 28" xml:space="preserve">
<path fill-rule="evenodd" clip-rule="evenodd" d="M3.066,25.76V10.119H1.854C1.387,10.119,1,9.734,1,9.254V6.227
	C1,5.76,1.387,5.373,1.854,5.373h1.213V2.227c0-0.467,0.387-0.854,0.867-0.854h3.014c0.479,0,0.865,0.387,0.865,0.854v3.146h0.908
	V2.227c0-0.467,0.387-0.854,0.865-0.854H12.6c0.48,0,0.867,0.387,0.867,0.854v3.146h0.959V2.227c0-0.467,0.387-0.854,0.867-0.854
	h3.027c0.48,0,0.867,0.387,0.867,0.854v3.146h0.945V2.227c0-0.467,0.387-0.854,0.854-0.854h3.027c0.48,0,0.867,0.387,0.867,0.854
	v3.146h1.252C26.6,5.373,27,5.76,27,6.227v3.027c0,0.48-0.4,0.865-0.867,0.865h-1.252v6.24c0,0.48-0.387,0.867-0.867,0.867h-3.027
	c-0.467,0-0.854-0.387-0.854-0.867v-6.24h-0.945v8.602c0,0.479-0.387,0.865-0.867,0.865h-3.027c-0.48,0-0.867-0.387-0.867-0.865
	v-8.602h-0.959v12.174c0,0.48-0.387,0.867-0.867,0.867H9.586c-0.479,0-0.865-0.387-0.865-0.867V10.119H7.813V25.76
	c0,0.48-0.387,0.867-0.865,0.867H3.934C3.453,26.627,3.066,26.24,3.066,25.76z M6.494,8.801c0.572-0.588,0.572-1.535,0-2.107
	c-0.588-0.586-1.521-0.586-2.107,0c-0.586,0.572-0.586,1.52,0,2.107C4.973,9.373,5.906,9.373,6.494,8.801z M12.146,8.801
	c0.586-0.588,0.586-1.535,0-2.107c-0.586-0.586-1.52-0.586-2.107,0c-0.586,0.572-0.586,1.52,0,2.107
	C10.627,9.373,11.561,9.373,12.146,8.801z M17.854,8.801c0.586-0.588,0.586-1.535,0-2.107c-0.574-0.586-1.52-0.586-2.107,0
	c-0.572,0.572-0.572,1.52,0,2.107C16.334,9.373,17.279,9.373,17.854,8.801z M23.561,8.801c0.572-0.588,0.572-1.535,0-2.107
	c-0.588-0.586-1.533-0.586-2.107,0c-0.586,0.572-0.586,1.52,0,2.107C22.027,9.373,22.973,9.373,23.561,8.801z"/>
</svg>
