<?xml version="1.0" encoding="utf-8"?>
<!-- Generator: Adobe Illustrator 16.2.0, SVG Export Plug-In . SVG Version: 6.00 Build 0)  -->
<!DOCTYPE svg PUBLIC "-//W3C//DTD SVG 1.1//EN" "http://www.w3.org/Graphics/SVG/1.1/DTD/svg11.dtd">
<svg version="1.1" id="Layer_1" xmlns="http://www.w3.org/2000/svg" xmlns:xlink="http://www.w3.org/1999/xlink" x="0px" y="0px"
	 width="28px" height="28px" viewBox="0 0 28 28" enable-background="new 0 0 28 28" xml:space="preserve">
<g>
	<path d="M14,11.327c1.84,0,3.333,1.493,3.333,3.333c0,1.854-1.493,3.347-3.333,3.347c-1.84,0-3.333-1.493-3.333-3.347
		C10.667,12.82,12.16,11.327,14,11.327 M14,0.673c7.734,0,14,6.267,14,13.986c0,3.04-0.973,5.867-2.613,8.147l-2-1.8
		c1.227-1.813,1.947-4,1.947-6.347c0-6.253-5.066-11.32-11.333-11.32c-6.253,0-11.333,5.067-11.333,11.32
		c0,2.347,0.72,4.534,1.947,6.347l-2,1.8C0.973,20.527,0,17.7,0,14.66C0,6.94,6.267,0.673,14,0.673 M14,6.006
		c4.787,0,8.667,3.867,8.667,8.653c0,1.667-0.467,3.227-1.28,4.547l-2.053-1.813C19.76,16.566,20,15.646,20,14.66
		c0-3.333-2.667-6-6-6s-6,2.667-6,6c0,0.987,0.24,1.907,0.667,2.733l-2.053,1.813c-0.813-1.32-1.28-2.88-1.28-4.547
		C5.333,9.873,9.213,6.006,14,6.006 M20.667,22.993v4.333H7.333v-4.333c0-1.84,2.987-3.333,6.667-3.333
		C17.68,19.66,20.667,21.153,20.667,22.993L20.667,22.993z"/>
</g>
</svg>
