<?xml version="1.0" encoding="utf-8"?>
<!-- Generator: Adobe Illustrator 16.2.0, SVG Export Plug-In . SVG Version: 6.00 Build 0)  -->
<!DOCTYPE svg PUBLIC "-//W3C//DTD SVG 1.1//EN" "http://www.w3.org/Graphics/SVG/1.1/DTD/svg11.dtd">
<svg version="1.1" id="Layer_1" xmlns="http://www.w3.org/2000/svg" xmlns:xlink="http://www.w3.org/1999/xlink" x="0px" y="0px"
	 width="20px" height="20px" viewBox="0 0 20 20" enable-background="new 0 0 20 20" xml:space="preserve">
<path d="M17.986,13.506c-1.24,0-2.439-0.199-3.561-0.572c-0.346-0.107-0.746-0.027-1.025,0.254l-2.201,2.199
	c-2.826-1.439-5.146-3.76-6.586-6.586l2.199-2.2c0.281-0.28,0.361-0.68,0.254-1.026C6.693,4.453,6.494,3.253,6.494,2
	c0-0.547-0.441-1-1-1H2C1.439,1,1,1.453,1,2c0,9.4,7.6,17,16.986,17C18.547,19,19,18.561,19,18v-3.494
	C19,13.959,18.547,13.506,17.986,13.506 M17,10h2c0-5-4.041-9-9-9v2C13.854,3,17,6.133,17,10 M13,10h1.986c0-2.76-2.227-5-4.986-5v2
	C11.654,7,13,8.346,13,10L13,10z"/>
</svg>
