<?xml version="1.0" encoding="utf-8"?>
<!-- Generator: Adobe Illustrator 16.2.0, SVG Export Plug-In . SVG Version: 6.00 Build 0)  -->
<!DOCTYPE svg PUBLIC "-//W3C//DTD SVG 1.1//EN" "http://www.w3.org/Graphics/SVG/1.1/DTD/svg11.dtd">
<svg version="1.1" id="Layer_1" xmlns="http://www.w3.org/2000/svg" xmlns:xlink="http://www.w3.org/1999/xlink" x="0px" y="0px"
	 width="20px" height="20px" viewBox="0 0 20 20" enable-background="new 0 0 20 20" xml:space="preserve">
<path d="M2,4H0v14c0,1.107,0.893,2,2,2h14v-2H2V4z M18,0H6C4.893,0,4,0.906,4,2v12c0,1.107,0.893,2,2,2h12c1.094,0,2-0.893,2-2V2
	C20,0.906,19.094,0,18,0 M17,9H7V7h10 M13,13H7v-2h6 M17,5H7V3h10V5z"/>
</svg>
