<?xml version="1.0" encoding="utf-8"?>
<!-- Generator: Adobe Illustrator 16.2.0, SVG Export Plug-In . SVG Version: 6.00 Build 0)  -->
<!DOCTYPE svg PUBLIC "-//W3C//DTD SVG 1.1//EN" "http://www.w3.org/Graphics/SVG/1.1/DTD/svg11.dtd">
<svg version="1.1" id="Layer_1" xmlns="http://www.w3.org/2000/svg" xmlns:xlink="http://www.w3.org/1999/xlink" x="0px" y="0px"
	 width="20px" height="20px" viewBox="0 0 20 20" enable-background="new 0 0 20 20" xml:space="preserve">
<path d="M3,7c0,4.493,5.08,10.653,6,11.8L8,20c0,0-7-7.761-7-13c0-3.173,2.107-5.853,5-6.719C4.16,1.934,3,4.32,3,7 M12,0
	c3.854,0,7,3.121,7,7c0,5.239-7,13-7,13S5,12.239,5,7C5,3.133,8.133,0,12,0 M12,9.494c1.372,0,2.493-1.12,2.493-2.494
	c0-1.386-1.121-2.506-2.493-2.506c-1.387,0-2.507,1.12-2.507,2.506C9.493,8.374,10.613,9.494,12,9.494L12,9.494z"/>
</svg>
