<?xml version="1.0" encoding="utf-8"?>
<!-- Generator: Adobe Illustrator 16.2.0, SVG Export Plug-In . SVG Version: 6.00 Build 0)  -->
<!DOCTYPE svg PUBLIC "-//W3C//DTD SVG 1.1//EN" "http://www.w3.org/Graphics/SVG/1.1/DTD/svg11.dtd">
<svg version="1.1" id="Layer_1" xmlns="http://www.w3.org/2000/svg" xmlns:xlink="http://www.w3.org/1999/xlink" x="0px" y="0px"
	 width="28px" height="28px" viewBox="0 0 28 28" enable-background="new 0 0 28 28" xml:space="preserve">
<path fill-rule="evenodd" clip-rule="evenodd" d="M2.124,27.334v-2.48h5.52c7.626-3.6,17.72-11.84,16.093-14.893
	c-0.44-0.827-1.293-1.387-2.041-1.44v5.054c-0.36,0.412-0.772,0.826-1.2,1.253V8.854c-0.8,0.36-1.453,0.573-2,0.653v7.134
	c-0.387,0.333-0.787,0.653-1.2,0.986v-8.16C16.63,9.28,16.03,8.84,15.271,8.16v11c-0.4,0.28-0.8,0.561-1.2,0.826V7.054
	c-0.574-0.521-1.294-1.04-2.093-1.373v15.667c-0.4,0.253-0.8,0.479-1.201,0.719V5.373C10.057,5.294,9.311,5.44,8.591,5.92v17.334
	c-0.307,0.16-0.627,0.32-0.947,0.467H4.417V3.188H3.991c-0.374,0-0.693-0.32-0.693-0.693V0.693C3.297,0.307,3.617,0,3.991,0h5.12
	c0.374,0,0.693,0.307,0.693,0.693v1.094c2.813-0.227,4.24,0.813,6.227,3.453c1.561,2.094,3.067,1.8,4.654,1.413
	c2.146-0.52,4,0.627,4.706,2.147C28.737,16.04,13.817,26.92,10.057,28H2.791C2.404,28,2.124,27.787,2.124,27.334z"/>
</svg>
