<?xml version="1.0" encoding="utf-8"?>
<!-- Generator: Adobe Illustrator 16.2.0, SVG Export Plug-In . SVG Version: 6.00 Build 0)  -->
<!DOCTYPE svg PUBLIC "-//W3C//DTD SVG 1.1//EN" "http://www.w3.org/Graphics/SVG/1.1/DTD/svg11.dtd">
<svg version="1.1" id="Layer_1" xmlns="http://www.w3.org/2000/svg" xmlns:xlink="http://www.w3.org/1999/xlink" x="0px" y="0px"
	 width="173.253px" height="210px" viewBox="0 0 173.253 210" enable-background="new 0 0 173.253 210" xml:space="preserve">
<g>
	<path fill-rule="evenodd" clip-rule="evenodd" fill="#4A965C" d="M0,192.682v-86.634c0-6.316,3.378-11.777,8.399-14.808
		l6.823-4.259V18.24C15.222,8.172,23.394,0,33.449,0h87.395l37.615,37.602v49.659l6.383,3.979c5.021,3.031,8.412,8.492,8.412,14.808
		v86.634c0,9.574-7.758,17.318-17.332,17.318H17.318C7.758,210,0,202.255,0,192.682z"/>
	<path fill="#FFFFFF" d="M17.318,192.682v-66.19l69.302,43.316l69.301-43.316v66.19H17.318z M38.777,91.827
		c0-4.687,3.818-8.506,8.492-8.506h70.302c4.688,0,8.506,3.819,8.506,8.506s-3.818,8.492-8.506,8.492H47.269
		C42.595,100.319,38.777,96.514,38.777,91.827z M38.723,62.104c0-4.701,3.806-8.506,8.492-8.506h70.316
		c4.673,0,8.479,3.805,8.479,8.506c0,4.674-3.806,8.479-8.479,8.479H47.215C42.529,70.583,38.723,66.778,38.723,62.104z
		 M37.749,32.367c0-4.687,3.806-8.492,8.492-8.492h45.573c4.687,0,8.506,3.806,8.506,8.492c0,4.701-3.819,8.506-8.506,8.506H46.241
		C41.554,40.873,37.749,37.067,37.749,32.367z"/>
</g>
</svg>
