<?xml version="1.0" encoding="utf-8"?>
<!-- Generator: Adobe Illustrator 16.2.0, SVG Export Plug-In . SVG Version: 6.00 Build 0)  -->
<!DOCTYPE svg PUBLIC "-//W3C//DTD SVG 1.1//EN" "http://www.w3.org/Graphics/SVG/1.1/DTD/svg11.dtd">
<svg version="1.1" id="Layer_1" xmlns="http://www.w3.org/2000/svg" xmlns:xlink="http://www.w3.org/1999/xlink" x="0px" y="0px"
	 width="150.414px" height="190px" viewBox="0 0 150.414 190" enable-background="new 0 0 150.414 190" xml:space="preserve">
<g>
	<path fill-rule="evenodd" clip-rule="evenodd" fill="#FFFFFF" d="M0,190V0h138.818l-0.013,0.013
		c0.693,0.306,1.519,1.959,1.879,3.452c0.213,0.694,0.026,1.2-0.44,1.733c-0.413,1.186-0.92,2.199-1.692,2.679
		c-0.853,1.4-1.813,2.759-3.025,4.025l0.133,1.427l1.12,0.479l-0.08,3.252c0.253,0.747,0.333,1.546,0.133,2.413
		c0.626,0.986,1.199,2.053,1.465,3.639c0.041,0.707,0.094,1.413,0.654,2.252c0.373,1.347,0.666,2.679,0.693,4.025
		c1.506,4.092,2.866,8.343,0.866,16.314c-1.679,7.811-2.639,15.794-8.837,22.472c-1.053,1.106-1.639,2.398-1.426,4.198
		l20.167,26.484c-0.72,1.519-1.68,2.798-3.465,3.238l-1.253-0.692c-8.917,6.051-16.688,10.436-25.791,13.354
		c-3.746,1.2-9.037,3.106-10.45,5.599c-2.599,4.678-5.385,9.237-9.543,12.795c-0.133,1.533-1.053,2.599-2.493,3.345
		c-0.493,1.213-1.119,2.159-1.999,2.706c-0.333,0.973-1.026,1.599-2.16,1.799c0.653,1.399,0.707,2.799-0.946,4.199
		c0.946,0.426,1.92,0.667,2.706,2.092l6.198,7.704c2.439,1.866,5.145,3.505,6.398,6.397c1.745,1,4.011,1.853,3.798,3.399l0.84-0.054
		l0.653,0.8l1.146-1.653c0.96,0.146,1.56-0.187,2.106-0.6c3.092,0.76,5.318,2.693,5.745,7.051l-0.399,0.493l2.905,4.505
		c2.2,2.732,3.439,8.197,1.04,11.996c-1.12,1.786-2.612,2.652-3.892,2.652V190H0z"/>
	<path fill-rule="evenodd" clip-rule="evenodd" d="M88.356,41.292c-0.333-1.972,0.479-3.559,3.238-4.505
		c-0.253,0.28-0.386,0.627-0.293,1.133c2.359-1.066,4.639-2.693,7.304-1.599c2.08-1.094,12.343,0,11.209,8.783
		c0.227,1.6,0.414,3.172-0.253,4.025c-0.68,2.959-1.293,6.104-2.906,6.531l-0.08,1.773c0.493,0.213,0.759,0.72,0.906,1.386
		l0.213,0.959c0.467-0.146,0.973,0.133,1.427,0.347l1.346-0.44c0.613-0.879,1.28-1.759,2.119-2.639l0.653-2.333
		c-0.133-3.186,0.52-5.944,2.333-8.104c0.107-1.652,0.2-3.318,1.213-4.585c0.64-0.426,1.013-1.173,1.08-2.292
		c-0.014-0.439,0.093-0.773,0.307-1c0.386-0.346,0.346-0.839,0.04-1.426c-0.16-0.706,0.067-1.253,0.479-1.732
		c0.4-0.6,0.347-1.267-0.173-1.986c-0.453-1.212,0.6-7.704,1.213-12.675c0.253-1.479,0.4-3.025,0.307-4.718
		c-0.027-0.547,0.16-0.946,0.479-1.253c0.427-0.813,0.173-1.719-0.093-2.253c-0.653-2.585,0.04-4.745,0.946-6.838
		c-0.693-0.652-1.04-1.172-0.813-1.479c0.213-0.8,0.546-1.546,1.12-2.119c0.292-0.413,0.8-0.493,1.426-0.347
		c0.36-0.333,1.013-0.32,1.826-0.08c0.933-0.587,1.866-0.987,2.812-0.747c0.08-0.573,0.387-0.959,1.04-1.079
		c0.693,0.266,1.533,1.946,1.906,3.465c0.213,0.694,0.026,1.2-0.44,1.733c-0.413,1.186-0.92,2.199-1.692,2.679
		c-0.853,1.4-1.813,2.759-3.025,4.025l0.133,1.427l1.12,0.479l-0.08,3.252c0.253,0.747,0.333,1.546,0.133,2.413
		c0.626,0.986,1.199,2.053,1.466,3.639c0.04,0.707,0.093,1.413,0.653,2.252c0.373,1.347,0.667,2.679,0.693,4.025
		c1.506,4.092,2.866,8.343,0.866,16.314c-1.679,7.811-2.639,15.794-8.836,22.472c-1.053,1.106-1.64,2.398-1.427,4.198l20.167,26.484
		c-0.72,1.519-1.68,2.798-3.466,3.238l-1.253-0.692c-8.917,6.051-16.688,10.436-25.791,13.354c-3.746,1.2-9.037,3.106-10.45,5.599
		c-2.599,4.678-5.385,9.237-9.543,12.795c-0.133,1.533-1.053,2.599-2.493,3.345c-0.493,1.213-1.119,2.159-1.999,2.706
		c-0.333,0.973-1.026,1.599-2.16,1.799c0.654,1.399,0.707,2.799-0.946,4.199c0.946,0.426,1.92,0.667,2.706,2.092l6.198,7.704
		c2.439,1.866,5.145,3.505,6.398,6.397c1.746,1,4.012,1.853,3.798,3.399l0.84-0.054l0.653,0.8l1.146-1.653
		c0.96,0.146,1.56-0.187,2.106-0.6c3.092,0.76,5.319,2.693,5.745,7.051l-0.4,0.493l2.905,4.505c2.2,2.732,3.439,8.197,1.04,11.996
		c-2.079,3.292-5.385,3.452-6.345,0.853c-0.08-0.96-0.373-1.693-0.853-2.252c-0.533-0.493-0.533-0.853-0.493-1.2
		c-0.28-0.866-0.574-0.826-0.854-0.906c-0.346-0.56-0.493-1.133-0.453-1.693c-2.226-2.026-4.265-4.092-5.238-6.398l-1.506-2
		c-3.532,2.706-6.771,4.732-8.943,4.452c-9.144-9.157-16.648-19.233-23.845-29.497c-0.547-4.999,2.479-11.969,7.25-19.887
		l-7.45,1.693l-3.399,1.253c-3.892,2.573-7.65,4.186-11.143,3.693c-0.827,0.106-1.506,0.306-1.652,0.959
		c-0.187,0.707-0.68,0.854-1.4,0.64c0.493,0.946,0.586,1.853-0.546,2.652c-0.267,0.813-0.267,1.853,0.546,3.599
		c0.52,2.573,0.573,5.918-0.253,10.743l-0.239,4.852l0.946,0.906l2.892,0.293c1.386-0.386,2.519-0.293,2.798,1.506
		c0.214,2.759-0.026,5.358-1.146,7.598c-1.146-0.467-1.959-0.307-2.053,1.092l0.96,4.345c0.146,5.651-2.706,10.744-6.998,10.103
		c-0.626-0.986-0.56-2.199-0.36-3.452c0.227-1.573-0.026-3.053-0.6-4.492l-0.239-0.759c-1.093-2.026-2.04-4.066-2.6-6.091v-4.345
		c-2.559,0-5.158,0.106-6.65-2c-0.107-2.799-0.201-5.598-0.454-8.396c-0.653-8.997-0.747-15.155,0.707-22.192
		c0.52-2.546,2.386-4.052,5.145-5.905c3.465-2.266,6.784-4.745,9.997-7.398c4.145-2.972,8.69-5.784,14.741-7.944
		c4.052-1.666,7.411-4.225,10.143-7.597l1.707-3.453l1.093-10.249l-7.638,2.052c-2.879,1.267-6.117,1.6-9.65,1.146
		c-4.185,0.733-8.25,0.534-12.302,0.253c-1.959-0.24-3.932-0.133-5.892,0.146c-1.786,0.054-1.679-1.973-1.652-3.892
		c-1,0.413-2.066,0.56-3.199,0.453c-0.533,0.174-1.212,0.214-1.893,0.24c-0.613,0.24-1.346,0.36-2.106,0.453
		c-1.692-0.36-2.119-1.346-1.453-2.892c-0.213-0.707-0.013-1.2,0.56-1.506c-1.119-0.92-0.733-1.959,1.439-3.146
		c0.64-0.346,1.28-0.679,2.199,0.147l3.959,1.199c0.866-0.347,2-0.547,4.092-0.2c4.385-0.76,11.396-0.653,13.595,0.146
		c0.733-1.24,3.186-1.88,7.197-1.946c1.333-0.986,2.666-1.827,3.999-1.253c0.72,0.2,1.359,0.16,1.946-0.041
		c1.187-1.266,1.919-2.812,4.706-2.999l6.051-7.051c0.906-1.799,2.398-2.958,4.491-3.452c1.4-1.146,3.105-1.999,5.305-2.345
		c0.106-1.014,0.173-2.04,1.347-3.052c0.759-1.133,0.013-2.666-1.253-4.346c-0.813-1.173-1.24-2.878-1-5.504
		c0.227-0.88,0.187-1.826-0.4-2.839c-0.333-0.494-0.253-0.973-0.054-1.454c-0.413-0.946-0.599-1.839-0.492-2.652
		c-0.214-1.386-0.96-2.013-1.853-2.453c-0.92-0.853-1.173-1.985-1.053-3.238L88.356,41.292z"/>
</g>
</svg>
