<?xml version="1.0" encoding="utf-8"?>
<!-- Generator: Adobe Illustrator 16.2.0, SVG Export Plug-In . SVG Version: 6.00 Build 0)  -->
<!DOCTYPE svg PUBLIC "-//W3C//DTD SVG 1.1//EN" "http://www.w3.org/Graphics/SVG/1.1/DTD/svg11.dtd">
<svg version="1.1" id="Layer_1" xmlns="http://www.w3.org/2000/svg" xmlns:xlink="http://www.w3.org/1999/xlink" x="0px" y="0px"
	 width="63.749px" height="49.33px" viewBox="153.495 159.67 63.749 49.33" enable-background="new 153.495 159.67 63.749 49.33"
	 xml:space="preserve">
<g>
	<path fill="#C73329" d="M170.55,169.49c8.18-8.19,21.47-8.19,29.66,0c8.18,8.18,8.18,21.47,0,29.661
		c-8.19,8.189-21.48,8.189-29.66,0C162.36,190.96,162.36,177.67,170.55,169.49z"/>
	<path fill="#FFFFFF" d="M185.1,180.27c2.05,0,3.71,1.66,3.71,3.71c0,2.049-1.66,3.709-3.71,3.709s-3.71-1.66-3.71-3.709
		C181.39,181.93,183.05,180.27,185.1,180.27 M185.1,168.39c8.601,0,15.58,6.98,15.58,15.59c0,3.379-1.08,6.51-2.91,9.06l-2.22-2
		c1.36-2.021,2.16-4.45,2.16-7.06c0-6.97-5.65-12.62-12.61-12.62c-6.97,0-12.62,5.65-12.62,12.62c0,2.61,0.8,5.04,2.17,7.06
		l-2.229,2c-1.82-2.55-2.91-5.681-2.91-9.06C169.51,175.37,176.49,168.39,185.1,168.39 M185.1,174.33c5.32,0,9.641,4.32,9.641,9.65
		c0,1.85-0.511,3.59-1.421,5.06l-2.29-2.04c0.48-0.9,0.75-1.94,0.75-3.02c0-3.71-2.97-6.68-6.68-6.68s-6.68,2.97-6.68,6.68
		c0,1.08,0.26,2.12,0.74,3.02l-2.29,2.04c-0.9-1.47-1.42-3.21-1.42-5.06C175.45,178.65,179.77,174.33,185.1,174.33 M192.52,193.25
		v4.83h-14.84v-4.83c0-2.05,3.32-3.71,7.42-3.71C189.19,189.54,192.52,191.2,192.52,193.25L192.52,193.25z"/>
	<path opacity="0.7" fill="#C73329" enable-background="new    " d="M202.25,202.721l-1.601-1.601c9.271-9.261,9.271-24.3,0-33.57
		l1.601-1.59C212.39,176.1,212.39,192.57,202.25,202.721z"/>
	<path opacity="0.7" fill="#C73329" enable-background="new    " d="M168.49,165.96l1.6,1.59c-9.271,9.271-9.271,24.31,0,33.57
		l-1.6,1.601C158.35,192.57,158.35,176.1,168.49,165.96z"/>
	<path opacity="0.5" fill="#C73329" enable-background="new    " d="M204.54,205.76l-1.59-1.59c10.949-10.949,10.949-28.72,0-39.67
		l1.59-1.59C216.37,174.74,216.37,193.939,204.54,205.76z"/>
	<path opacity="0.5" fill="#C73329" enable-background="new    " d="M166.2,162.91l1.59,1.6c-10.95,10.94-10.95,28.71,0,39.66
		l-1.59,1.59C154.37,193.939,154.37,174.74,166.2,162.91z"/>
	<path opacity="0.25" fill="#C73329" enable-background="new    " d="M207.03,209l-1.59-1.59c12.74-12.73,12.74-33.41,0-46.15
		l1.59-1.59C220.65,173.28,220.65,195.391,207.03,209z"/>
	<path opacity="0.25" fill="#C73329" enable-background="new    " d="M163.71,159.67l1.59,1.59c-12.74,12.74-12.74,33.419,0,46.15
		l-1.59,1.59C150.09,195.391,150.09,173.28,163.71,159.67z"/>
</g>
</svg>
