<?xml version="1.0" encoding="utf-8"?>
<!-- Generator: Adobe Illustrator 16.2.0, SVG Export Plug-In . SVG Version: 6.00 Build 0)  -->
<!DOCTYPE svg PUBLIC "-//W3C//DTD SVG 1.1//EN" "http://www.w3.org/Graphics/SVG/1.1/DTD/svg11.dtd">
<svg version="1.1" id="Layer_1" xmlns="http://www.w3.org/2000/svg" xmlns:xlink="http://www.w3.org/1999/xlink" x="0px" y="0px"
	 width="290px" height="86.027px" viewBox="0 0 290 86.027" enable-background="new 0 0 290 86.027" xml:space="preserve">
<g>
	<path fill="#FFFFFF" d="M6.36,0h22c0.867,0,1.427,0.121,1.68,0.373c0.267,0.254,0.4,0.934,0.4,2.081
		c0,1.466-0.12,2.399-0.347,2.786c-0.227,0.387-0.747,0.693-1.546,0.947c-0.92,0.28-1.48,0.6-1.68,0.973
		c-0.2,0.36-0.307,1.16-0.307,2.387v50.787c0,7.08-1.906,13.133-5.72,18.16c-3.813,5.027-9.707,7.533-17.667,7.533
		c-1.507,0-2.414-0.107-2.72-0.346C0.146,85.454,0,84.96,0,84.187V82.44c0-0.72,0.066-1.173,0.2-1.387
		c0.134-0.227,0.574-0.36,1.32-0.414c5.227-0.467,7.84-4.654,7.84-12.547V11.681C9.36,9.427,9.146,8,8.733,7.36
		C8.32,6.734,7.56,6.253,6.453,5.907c-1.107-0.333-1.667-1.08-1.667-2.214c0-1.906,0.067-3,0.213-3.28C5.133,0.146,5.586,0,6.36,0
		L6.36,0z"/>
	<path fill="#FFFFFF" d="M57.467,35.76c-3.48,1.534-5.547,3.254-6.227,5.174c-0.68,1.92-1.014,6.24-1.014,12.96
		c0,4.946,0.28,8.08,0.827,9.374c0.56,1.307,1.507,1.959,2.867,1.959c2.36,0,3.547-1.959,3.547-5.893V35.76z M57.467,29.76v-8.906
		c0-2.453-1-3.693-3-3.693c-2.734,0-4.107,1.867-4.107,5.587c0,2.093-0.227,3.586-0.706,4.479c-0.48,0.88-1.561,1.64-3.228,2.28
		c-1.68,0.627-3.479,0.947-5.373,0.947c-3.907,0-5.866-2.094-5.866-6.281c0-3.933,1.693-7.146,5.093-9.64
		c3.4-2.493,7.84-3.733,13.32-3.733c3.587,0,6.826,0.494,9.707,1.467c2.867,0.986,5.173,2.653,6.893,4.986
		c1.707,2.333,2.574,4.893,2.587,7.693v42.08c0.053,0.213,0.52,0.68,1.374,1.387c0.613,0.467,0.933,1.133,0.933,2.027
		c0,1.227-0.173,2.093-0.507,2.613c-0.346,0.506-1.173,0.973-2.467,1.4c-1.319,0.426-2.946,0.653-4.92,0.653
		c-2.399,0-4.399-0.44-6-1.32c-1.6-0.88-2.84-2.587-3.733-5.147c-2.68,2.773-4.84,4.533-6.507,5.307
		c-1.653,0.773-3.359,1.16-5.12,1.16c-3.893,0-6.92-1.533-9.053-4.586c-2.146-3.066-3.213-8.066-3.213-15c0-6.947,1-11.761,3-14.453
		c2-2.681,5.906-5.16,11.719-7.44C51.973,32.214,55.04,30.92,57.467,29.76L57.467,29.76z"/>
	<path fill="#FFFFFF" d="M95.48,68.454h1.76c1.56,0,2.64-0.333,3.213-1.014c0.586-0.667,1.253-2.32,1.987-4.934
		c0.52-1.933,1.013-3.253,1.48-3.947s1.787-1.04,3.96-1.04c0.959,0,1.44,0.346,1.44,1.026c0,0.173-0.133,1.093-0.374,2.76
		l-1.521,9.96c-0.28,1.854-0.467,2.84-0.586,2.986c-0.107,0.133-0.68,0.201-1.72,0.201H80.854l-1.333,0.053
		c-0.4,0-0.6-0.146-0.6-0.427c0-0.12,0.014-0.253,0.04-0.413l0.333-1.2l13.374-54.893h-2.24c-0.92,0-1.626,0.293-2.133,0.853
		c-0.506,0.573-1.186,2.133-2.04,4.694c-0.827,2.52-1.521,4.04-2.08,4.56c-0.547,0.52-1.613,0.786-3.187,0.786
		c-1.227,0-1.84-0.333-1.84-1.013c0-0.214,0.027-0.534,0.094-0.974l2.027-12.959c0.159-1.014,0.359-1.613,0.626-1.8
		c0.267-0.187,0.867-0.28,1.827-0.28h25.04c0.427,0.04,0.64,0.227,0.64,0.56c0,0.146-0.107,0.627-0.32,1.427l-0.133,0.694
		L95.48,68.454z"/>
	<path fill="#FFFFFF" d="M129.947,68.454h1.747c1.56,0,2.64-0.333,3.227-1.014c0.586-0.667,1.24-2.32,1.973-4.934
		c0.533-1.933,1.027-3.253,1.48-3.947c0.467-0.693,1.787-1.04,3.973-1.04c0.947,0,1.427,0.346,1.427,1.026
		c0,0.173-0.12,1.093-0.374,2.76l-1.52,9.96c-0.28,1.854-0.467,2.84-0.574,2.986c-0.107,0.133-0.68,0.201-1.733,0.201h-24.267
		l-1.333,0.053c-0.399,0-0.6-0.146-0.6-0.427c0-0.12,0.014-0.253,0.053-0.413l0.32-1.2l13.373-54.893h-2.239
		c-0.921,0-1.627,0.293-2.134,0.853c-0.506,0.573-1.187,2.133-2.04,4.694c-0.826,2.52-1.52,4.04-2.08,4.56
		c-0.546,0.52-1.613,0.786-3.173,0.786c-1.24,0-1.853-0.333-1.853-1.013c0-0.214,0.04-0.534,0.093-0.974l2.027-12.959
		c0.16-1.014,0.373-1.613,0.626-1.8c0.267-0.187,0.867-0.28,1.827-0.28h25.04c0.44,0.04,0.653,0.227,0.653,0.56
		c0,0.146-0.107,0.627-0.32,1.427l-0.147,0.694L129.947,68.454z"/>
	<path fill="#C73329" d="M181,0h16.32c1.106,0,1.84,0.16,2.173,0.494C199.827,0.813,200,1.64,200,2.96c0,1.2-0.12,2.04-0.346,2.506
		c-0.228,0.48-0.787,0.934-1.681,1.36c-0.8,0.373-1.307,0.773-1.52,1.2c-0.227,0.44-0.32,1.146-0.32,2.12v54.761
		c0,0.799,0.08,1.387,0.267,1.746c0.187,0.374,0.693,0.76,1.52,1.16c1.146,0.547,1.707,1.307,1.707,2.254
		c0,2.399-0.066,3.733-0.227,4c-0.146,0.252-0.693,0.387-1.613,0.387h-20.573c-0.893,0-1.333-0.748-1.333-2.254
		c0-1.293,0.04-2.253,0.133-2.894c0.094-0.626,0.667-1.146,1.707-1.547c1.173-0.453,1.76-1.266,1.76-2.44V26.48l-8.307,31.374h-5.08
		l-8.16-30.399v37.733c0,1.227,0.546,2.133,1.667,2.72c1.347,0.667,2.026,1.88,2.026,3.6c0,1.96-0.68,2.947-2.026,2.947h-10.014
		c-1.146,0-1.706-0.934-1.706-2.814c0-1.32,0.479-2.333,1.426-3.04c0.707-0.587,1.16-1.054,1.347-1.414
		c0.173-0.347,0.266-0.973,0.266-1.867V12.04c0-1.466-0.133-2.6-0.387-3.387c-0.266-0.787-0.827-1.427-1.68-1.906
		c-0.934-0.494-1.387-1.013-1.387-1.533l0.04-1.974c0.027-1.453,0.134-2.347,0.307-2.707C147.973,0.187,148.387,0,149.027,0h17.066
		l7.387,28.507L181,0z"/>
	<path fill="#C73329" d="M226.76,35.76c-3.48,1.534-5.56,3.254-6.24,5.174c-0.667,1.92-1.014,6.24-1.014,12.96
		c0,4.946,0.28,8.08,0.84,9.374c0.547,1.307,1.507,1.959,2.854,1.959c2.374,0,3.56-1.959,3.56-5.893V35.76z M226.76,29.76v-8.906
		c0-2.453-1-3.693-3-3.693c-2.747,0-4.106,1.867-4.106,5.587c0,2.093-0.24,3.586-0.72,4.479c-0.48,0.88-1.547,1.64-3.227,2.28
		c-1.68,0.627-3.466,0.947-5.373,0.947c-3.907,0-5.854-2.094-5.854-6.281c0-3.933,1.693-7.146,5.094-9.64
		c3.399-2.493,7.826-3.733,13.307-3.733c3.6,0,6.826,0.494,9.706,1.467c2.88,0.986,5.173,2.653,6.894,4.986
		c1.72,2.333,2.586,4.893,2.586,7.693v42.08c0.067,0.213,0.52,0.68,1.387,1.387c0.613,0.467,0.92,1.133,0.92,2.027
		c0,1.227-0.173,2.093-0.506,2.613c-0.333,0.506-1.16,0.973-2.467,1.4c-1.307,0.426-2.947,0.653-4.92,0.653
		c-2.387,0-4.387-0.44-5.986-1.32c-1.601-0.88-2.84-2.587-3.734-5.147c-2.68,2.773-4.853,4.533-6.506,5.307
		c-1.667,0.773-3.373,1.16-5.12,1.16c-3.907,0-6.92-1.533-9.067-4.586c-2.133-3.066-3.213-8.066-3.213-15
		c0.013-6.947,1.013-11.761,3.013-14.453c1.987-2.681,5.893-5.16,11.707-7.44C221.267,32.214,224.32,30.92,226.76,29.76
		L226.76,29.76z"/>
	<path fill="#C73329" d="M273.066,24.681c0-1.907-0.387-3.32-1.16-4.267c-0.76-0.934-1.614-1.4-2.534-1.4
		c-0.68,0-1.414,0.4-2.213,1.2c-0.8,0.8-1.201,1.706-1.201,2.72v38.747c0,0.826,0.44,1.706,1.294,2.626
		c0.866,0.92,1.866,1.387,3,1.387c1.88,0,2.813-1.467,2.813-4.387V24.681z M265.959,15.96c1.814-1.72,3.48-3.014,4.987-3.867
		c1.506-0.867,3.293-1.293,5.346-1.293c4.734,0,8.201,2.453,10.4,7.36c2.2,4.907,3.307,12.747,3.307,23.546
		c0,7.014-0.36,12.773-1.066,17.293c-0.72,4.521-2.293,8.227-4.76,11.121c-2.453,2.893-5.28,4.333-8.48,4.333
		c-3.84,0-7.08-2.121-9.734-6.361v10.28c0,1.054,0.587,1.773,1.761,2.174c1.133,0.4,1.706,1.146,1.706,2.253v1.667
		c0,0.64-0.08,1.04-0.239,1.173c-0.147,0.133-0.561,0.213-1.24,0.213h-17.76c-1.228,0-1.841-0.307-1.841-0.934v-1.706
		c0-1.134,0.521-2.014,1.561-2.627c0.533-0.307,0.787-0.8,0.787-1.466V19.427c0-1.133-0.4-2-1.2-2.587
		c-0.547-0.399-0.88-0.706-0.987-0.92c-0.106-0.213-0.16-0.667-0.16-1.333v-1.44c0-0.827,0.08-1.319,0.254-1.466
		c0.16-0.16,0.613-0.24,1.359-0.24h14.067c0.893,0,1.44,0.106,1.64,0.333c0.2,0.213,0.293,0.76,0.293,1.653V15.96z"/>
</g>
</svg>
