<?xml version="1.0" encoding="utf-8"?>
<!-- Generator: Adobe Illustrator 16.2.0, SVG Export Plug-In . SVG Version: 6.00 Build 0)  -->
<!DOCTYPE svg PUBLIC "-//W3C//DTD SVG 1.1//EN" "http://www.w3.org/Graphics/SVG/1.1/DTD/svg11.dtd">
<svg version="1.1" id="Layer_1" xmlns="http://www.w3.org/2000/svg" xmlns:xlink="http://www.w3.org/1999/xlink" x="0px" y="0px"
	 width="20.987px" height="30px" viewBox="0 0 20.987 30" enable-background="new 0 0 20.987 30" xml:space="preserve">
<g>
	
		<path fill-rule="evenodd" clip-rule="evenodd" fill="#FFFFFF" stroke="#000000" stroke-width="0.5" stroke-linejoin="bevel" stroke-miterlimit="10" d="
		M7.267,7.213c1.759-1.76,4.626-1.76,6.386,0c1.761,1.76,1.761,4.626,0,6.387c-1.76,1.773-4.627,1.773-6.386,0
		C5.506,11.84,5.506,8.973,7.267,7.213z"/>
	<path fill="#C73329" d="M10.493,0c5.787,0,10.494,4.707,10.494,10.506C20.987,18.387,10.493,30,10.493,30S0,18.387,0,10.506
		C0,4.707,4.693,0,10.493,0 M10.493,14.253c2.066,0,3.746-1.68,3.746-3.747c0-2.066-1.68-3.746-3.746-3.746
		c-2.067,0-3.747,1.68-3.747,3.746C6.747,12.574,8.426,14.253,10.493,14.253L10.493,14.253z"/>
</g>
</svg>
