<?xml version="1.0" encoding="utf-8"?>
<!-- Generator: Adobe Illustrator 16.2.0, SVG Export Plug-In . SVG Version: 6.00 Build 0)  -->
<!DOCTYPE svg PUBLIC "-//W3C//DTD SVG 1.1//EN" "http://www.w3.org/Graphics/SVG/1.1/DTD/svg11.dtd">
<svg version="1.1" id="Layer_1" xmlns="http://www.w3.org/2000/svg" xmlns:xlink="http://www.w3.org/1999/xlink" x="0px" y="0px"
	 width="30px" height="30px" viewBox="0 0 30 30" enable-background="new 0 0 30 30" xml:space="preserve">
<g>
	<path fill="#666666" d="M18.352,14.585c-0.444-0.224-0.905-0.413-1.385-0.538c-0.887-0.232-1.778-0.442-2.663-0.667
		c-0.378-0.097-0.743-0.234-1.052-0.479c-0.468-0.372-0.484-0.933-0.047-1.341c0.248-0.229,0.543-0.364,0.868-0.443
		c0.362-0.087,0.729-0.076,1.099-0.078c0.811-0.001,1.379,0.376,1.779,1.057c0.124,0.215,0.259,0.425,0.398,0.63
		c0.292,0.431,0.726,0.506,1.189,0.411c0.446-0.089,0.742-0.391,0.861-0.824c0.101-0.355,0.026-0.712-0.128-1.046
		c-0.315-0.682-0.857-1.138-1.509-1.471c-0.854-0.436-1.775-0.56-2.723-0.536c-0.237,0-0.479-0.016-0.716,0.004
		c-1.022,0.088-2.014,0.304-2.836,0.971c-0.931,0.756-1.255,1.739-0.985,2.905c0.232,1.003,0.953,1.579,1.841,1.975
		c0.858,0.381,1.774,0.575,2.689,0.779c0.638,0.143,1.292,0.249,1.84,0.655c0.564,0.418,0.647,1.172,0.188,1.704
		c-0.171,0.199-0.383,0.349-0.621,0.456c-0.615,0.278-1.261,0.325-1.927,0.252c-0.813-0.088-1.386-0.5-1.74-1.228
		c-0.109-0.223-0.21-0.451-0.332-0.667c-0.193-0.345-0.466-0.596-0.879-0.644c-0.958-0.113-1.577,0.605-1.305,1.566
		c0.382,1.354,1.344,2.162,2.649,2.555c1.433,0.433,2.889,0.418,4.327,0.004c0.767-0.221,1.441-0.611,1.979-1.223
		C20.28,18.11,20.427,15.628,18.352,14.585z"/>
	<path fill="#666666" d="M15,0C6.716,0,0,6.716,0,15s6.716,15,15,15c8.285,0,15-6.716,15-15S23.285,0,15,0z M19.686,23.86
		c-0.979,0.155-1.949,0.045-2.852-0.412c-0.131-0.064-0.251-0.089-0.398-0.065c-4.78,0.745-9.169-2.616-9.67-7.408
		c-0.031-0.288-0.035-0.575-0.051-0.844c0.021-0.48,0.03-0.938,0.122-1.388c0.047-0.219,0.015-0.396-0.087-0.593
		c-0.96-1.874-0.582-4.173,0.915-5.644c1.522-1.493,3.81-1.838,5.681-0.838c0.232,0.124,0.447,0.165,0.707,0.13
		c4.428-0.598,8.594,2.502,9.322,6.923c0.164,1.004,0.157,2.001-0.043,2.998c-0.028,0.135-0.005,0.249,0.048,0.37
		C24.66,20.066,22.881,23.351,19.686,23.86z"/>
</g>
</svg>
