<?xml version="1.0" encoding="utf-8"?>
<!-- Generator: Adobe Illustrator 16.2.0, SVG Export Plug-In . SVG Version: 6.00 Build 0)  -->
<!DOCTYPE svg PUBLIC "-//W3C//DTD SVG 1.1//EN" "http://www.w3.org/Graphics/SVG/1.1/DTD/svg11.dtd">
<svg version="1.1" id="Layer_1" xmlns="http://www.w3.org/2000/svg" xmlns:xlink="http://www.w3.org/1999/xlink" x="0px" y="0px"
	 width="30px" height="30px" viewBox="0 0 30 30" enable-background="new 0 0 30 30" xml:space="preserve">
<g>
	<path fill="#666666" d="M18.998,15c0,2.187-1.813,4-3.999,4s-4-1.813-4-4c0-0.5,0.125-1.063,0.313-1.5H9.125v6
		c0,0.749,0.625,1.376,1.375,1.376h9c0.749,0,1.375-0.627,1.375-1.376v-6h-2.188C18.875,13.938,18.998,14.5,18.998,15z"/>
	<polygon fill="#666666" points="20.625,9.688 20.625,9.375 20.313,9.375 18.124,9.375 18.124,11.875 20.625,11.875 	"/>
	<path fill="#666666" d="M15,17.563c1.375,0,2.563-1.125,2.563-2.563c0-0.562-0.188-1.062-0.501-1.5
		c-0.438-0.625-1.249-1.063-2.063-1.063c-0.813,0-1.624,0.438-2.063,1.063c-0.312,0.438-0.499,0.938-0.499,1.5
		C12.438,16.438,13.625,17.563,15,17.563z"/>
	<path fill="#666666" d="M15,0C6.716,0,0,6.717,0,15c0,8.285,6.716,15,15,15s15-6.716,15-15.001C30,6.715,23.284,0,15,0z
		 M22.313,13.5v6c0,1.563-1.25,2.813-2.813,2.813h-9c-1.563,0-2.813-1.249-2.813-2.813v-6v-3c0-1.563,1.249-2.813,2.813-2.813h9
		c1.563,0,2.813,1.25,2.813,2.813V13.5z"/>
</g>
</svg>
