<?xml version="1.0" encoding="utf-8"?>
<!-- Generator: Adobe Illustrator 16.2.0, SVG Export Plug-In . SVG Version: 6.00 Build 0)  -->
<!DOCTYPE svg PUBLIC "-//W3C//DTD SVG 1.1//EN" "http://www.w3.org/Graphics/SVG/1.1/DTD/svg11.dtd">
<svg version="1.1" id="Layer_1" xmlns="http://www.w3.org/2000/svg" xmlns:xlink="http://www.w3.org/1999/xlink" x="0px" y="0px"
	 width="30px" height="30px" viewBox="0 0 30 30" enable-background="new 0 0 30 30" xml:space="preserve">
<g>
	<ellipse fill="#5B7AA8" cx="15" cy="15" rx="15" ry="15"/>
	<path marker-end="none" marker-start="none" fill="#FFFFFF" d="M7.285,9.373h-3.29C3.224,9.322,3.191,9.64,3.289,10.025
		c2.602,5.001,4.846,10.575,10.214,11.468h1.933c0.585,0,0.98-0.342,0.863-0.94c0-0.761,0.208-1.201,0.549-1.725
		c0.245-0.412,0.592-0.412,1.045,0c1.145,1.102,2.242,2.681,3.5,2.665h3.447c0.759,0,1.001-0.693,0.496-1.515
		c-0.868-1.218-1.94-2.302-3.03-3.371c-0.51-0.452-0.345-0.962,0-1.488c1.276-1.658,2.613-3.339,3.237-4.754
		c0.33-0.639-0.025-1.045-0.625-1.045l-3.737,0.078c-0.354,0-0.653,0.078-0.809,0.418c-0.669,1.762-1.688,3.407-2.978,4.963
		c-0.424,0.311-1.045,0.079-1.045-0.522v-4.128c0-0.861-0.25-1.092-0.653-1.175c-1.384-0.104-4.505-0.452-4.963,0.68
		c1.452,0.036,1.646,2.09,1.098,4.99c-0.204,0.678-0.703,0.54-1.202-0.079C9.61,13.238,8.778,11.489,8.017,9.92
		C7.809,9.633,7.601,9.373,7.285,9.373z"/>
</g>
</svg>
