<?xml version="1.0" encoding="utf-8"?>
<!-- Generator: Adobe Illustrator 16.2.0, SVG Export Plug-In . SVG Version: 6.00 Build 0)  -->
<!DOCTYPE svg PUBLIC "-//W3C//DTD SVG 1.1//EN" "http://www.w3.org/Graphics/SVG/1.1/DTD/svg11.dtd">
<svg version="1.1" id="Layer_1" xmlns="http://www.w3.org/2000/svg" xmlns:xlink="http://www.w3.org/1999/xlink" x="0px" y="0px"
	 width="30px" height="30px" viewBox="0 0 30 30" enable-background="new 0 0 30 30" xml:space="preserve">
<g>
	<ellipse fill="#29B200" cx="15" cy="15" rx="15" ry="15"/>
	<path marker-end="none" marker-start="none" fill="#FFFFFF" d="M5.744,24.258l1.634-4.847c-2.059-3.449-1.603-7.985,1.367-10.956
		c3.508-3.507,9.2-3.507,12.707,0c3.509,3.509,3.509,9.2,0,12.708c-2.899,2.9-7.294,3.403-10.712,1.508L5.744,24.258z
		 M20.489,20.199c2.976-2.975,2.976-7.805,0-10.779c-2.976-2.976-7.805-2.976-10.78,0c-2.667,2.666-2.945,6.821-0.832,9.798
		l-0.511,1.544c-0.001-0.001-0.004-0.004-0.005-0.004l-0.468,1.386l0.017-0.005l0,0l3.016-0.947
		C13.883,23.128,17.893,22.797,20.489,20.199z M16.858,18.936c-3.09-0.789-5.363-2.974-6.113-5.621
		c-0.219-0.771-0.063-1.715,0.75-2.295c0.189-0.162,0.445-0.258,0.82-0.234c0.195-0.007,0.356,0.016,0.562,0.211l0.75,1.709
		c0.079,0.219,0.083,0.438-0.023,0.656l-0.468,0.586c-0.126,0.127-0.111,0.301-0.047,0.491c0.698,1.167,1.66,2.042,2.974,2.529
		c0.173,0.038,0.344,0.08,0.516-0.094l0.703-0.82c0.126-0.118,0.279-0.158,0.468-0.093l1.805,0.866
		c0.086,0.085,0.167,0.177,0.187,0.328c-0.078,1.269-0.889,1.71-1.92,1.897C17.467,19.076,17.148,19.035,16.858,18.936z"/>
</g>
</svg>
