<?xml version="1.0" encoding="utf-8"?>
<!-- Generator: Adobe Illustrator 16.2.0, SVG Export Plug-In . SVG Version: 6.00 Build 0)  -->
<!DOCTYPE svg PUBLIC "-//W3C//DTD SVG 1.1//EN" "http://www.w3.org/Graphics/SVG/1.1/DTD/svg11.dtd">
<svg version="1.1" id="Layer_1" xmlns="http://www.w3.org/2000/svg" xmlns:xlink="http://www.w3.org/1999/xlink" x="0px" y="0px"
	 width="30px" height="30px" viewBox="0 0 30 30" enable-background="new 0 0 30 30" xml:space="preserve">
<g>
	<path fill="#666666" d="M15,0C6.716,0,0,6.716,0,15s6.716,15,15,15s15-6.716,15-15S23.284,0,15,0z M23.261,7.94l-3.077,15.947
		c-0.007,0.032-0.017,0.063-0.03,0.093c-0.423,0.911-1.222,0.999-2.027,0.605c-0.023-0.012-0.047-0.024-0.068-0.042l-4.198-3.233
		l-2.361,2.407c-0.059,0.059-0.132,0.097-0.214,0.113c-0.544,0.097-1.062-0.083-1.287-0.734l-1.672-5.323L3.844,16.07
		c-0.049-0.02-0.096-0.049-0.135-0.086C3.004,15.3,3.25,14.66,3.763,14.191c0.036-0.032,0.076-0.058,0.12-0.075l17.713-7.133
		c0.412-0.18,0.885-0.291,1.254-0.051l0.022,0.014l0.038,0.029l0.019,0.016c0.261,0.218,0.335,0.555,0.337,0.869
		C23.268,7.888,23.266,7.914,23.261,7.94z"/>
	<path fill="#666666" d="M22.44,7.647l-0.024-0.045l-0.021-0.007c-0.052-0.008-0.19-0.008-0.491,0.123L4.258,14.824l-0.115,0.118
		c-0.076,0.099-0.092,0.183-0.03,0.29l0.108,0.131l4.568,1.734c0.069,0.026,0.129,0.073,0.174,0.131l10.689-7.171l-8.392,8.811
		l-0.531,3.912l0.022,0.069c0.051,0.146,0.11,0.211,0.238,0.213l0.039-0.005l2.511-2.557c0.141-0.144,0.366-0.158,0.526-0.035
		l4.435,3.415l-0.025-0.009c0.394,0.19,0.628,0.194,0.8,0.013l0.138-0.213l3.056-15.835L22.46,7.729
		C22.454,7.693,22.447,7.667,22.44,7.647z"/>
</g>
</svg>
