<?xml version="1.0" encoding="utf-8"?>
<!-- Generator: Adobe Illustrator 16.2.0, SVG Export Plug-In . SVG Version: 6.00 Build 0)  -->
<!DOCTYPE svg PUBLIC "-//W3C//DTD SVG 1.1//EN" "http://www.w3.org/Graphics/SVG/1.1/DTD/svg11.dtd">
<svg version="1.1" id="Layer_1" xmlns="http://www.w3.org/2000/svg" xmlns:xlink="http://www.w3.org/1999/xlink" x="0px" y="0px"
	 width="30px" height="30px" viewBox="0 0 30 30" enable-background="new 0 0 30 30" xml:space="preserve">
<g>
	<ellipse fill="#49C9F6" cx="15" cy="15" rx="15" ry="15"/>
	<path marker-end="none" marker-start="none" fill="#FFFFFF" d="M5.185,7.271c2.803,3.208,6.251,4.896,10.303,5.151
		c-0.675-2.202,0.751-6.102,4.826-6.102c1.701,0,2.492,0.662,3.551,1.525c1.11-0.24,2.171-0.604,3.149-1.176
		c-0.348,0.992-0.951,1.943-2.1,2.8c1.013-0.143,1.968-0.417,2.85-0.823c-0.74,0.984-1.537,1.916-2.55,2.625
		c0,8.802-6.327,14.728-13.854,14.728c-3.175,0-5.533-0.998-7.827-2.149c2.649,0.187,5.076-0.419,7.202-2.076
		c-2.452-0.349-3.834-1.609-4.502-3.476c0.778,0.164,1.508,0.177,2.151-0.126c-1.977-0.699-3.973-1.973-3.826-4.927
		c0.678,0.361,1.381,0.599,2.127,0.627C4.938,12.238,3.761,10.348,5.185,7.271z"/>
</g>
</svg>
