<?xml version="1.0" encoding="utf-8"?>
<!-- Generator: Adobe Illustrator 16.2.0, SVG Export Plug-In . SVG Version: 6.00 Build 0)  -->
<!DOCTYPE svg PUBLIC "-//W3C//DTD SVG 1.1//EN" "http://www.w3.org/Graphics/SVG/1.1/DTD/svg11.dtd">
<svg version="1.1" id="Layer_1" xmlns="http://www.w3.org/2000/svg" xmlns:xlink="http://www.w3.org/1999/xlink" x="0px" y="0px"
	 width="30px" height="30px" viewBox="0 0 30 30" enable-background="new 0 0 30 30" xml:space="preserve">
<g>
	<ellipse fill="#F46600" cx="15" cy="15" rx="15" ry="15"/>
	<path marker-end="none" marker-start="none" fill="#FFFFFF" d="M9.51,25.154c-0.65-0.646-0.65-1.7,0-2.351l3.177-3.177
		c-1.128-0.257-2.229-0.711-3.304-1.353c-0.787-0.475-1.041-1.495-0.571-2.282c0.475-0.788,1.495-1.043,2.281-0.569
		c1.311,0.783,2.58,1.132,3.835,1.125c1.263-0.007,2.608-0.373,4.05-1.162c0.806-0.438,1.816-0.142,2.257,0.664
		c0.438,0.806,0.142,1.816-0.663,2.257c-1.076,0.588-2.171,1.022-3.28,1.283l3.211,3.213c0.648,0.65,0.648,1.703,0,2.351
		c-0.646,0.65-1.7,0.65-2.35,0l-3.147-3.146l-3.146,3.146C11.209,25.806,10.158,25.806,9.51,25.154z M9.253,9.35
		c0-3.176,2.578-5.751,5.752-5.751c3.176,0,5.753,2.575,5.753,5.751c0,3.176-2.577,5.753-5.753,5.753
		C11.832,15.102,9.253,12.525,9.253,9.35z M17.343,9.35c0-1.29-1.044-2.337-2.338-2.337c-1.29,0-2.338,1.047-2.338,2.337
		c0,1.291,1.049,2.34,2.338,2.34C16.299,11.689,17.343,10.641,17.343,9.35z"/>
</g>
</svg>
