<?xml version="1.0" encoding="utf-8"?>
<!-- Generator: Adobe Illustrator 16.2.0, SVG Export Plug-In . SVG Version: 6.00 Build 0)  -->
<!DOCTYPE svg PUBLIC "-//W3C//DTD SVG 1.1//EN" "http://www.w3.org/Graphics/SVG/1.1/DTD/svg11.dtd">
<svg version="1.1" id="Layer_1" xmlns="http://www.w3.org/2000/svg" xmlns:xlink="http://www.w3.org/1999/xlink" x="0px" y="0px"
	 width="30px" height="30px" viewBox="0 0 30 30" enable-background="new 0 0 30 30" xml:space="preserve">
<path fill="#666666" d="M15,0C6.716,0,0,6.716,0,15s6.716,15,15,15s15-6.716,15-15S23.284,0,15,0z M25.214,11.271
	c0,8.802-6.327,14.728-13.854,14.728c-3.176,0-5.534-0.998-7.828-2.149c2.65,0.187,5.077-0.419,7.202-2.076
	c-2.453-0.349-3.834-1.609-4.501-3.476c0.776,0.164,1.508,0.177,2.151-0.126c-1.977-0.699-3.973-1.973-3.826-4.927
	c0.676,0.361,1.381,0.599,2.126,0.627c-1.747-1.633-2.924-3.524-1.501-6.602c2.803,3.208,6.25,4.896,10.303,5.151
	c-0.675-2.202,0.752-6.102,4.827-6.102c1.701,0,2.492,0.662,3.551,1.525c1.11-0.24,2.171-0.604,3.148-1.176
	c-0.348,0.992-0.95,1.943-2.1,2.8c1.014-0.143,1.968-0.417,2.851-0.823C27.022,9.63,26.227,10.563,25.214,11.271z"/>
</svg>
