<?xml version="1.0" encoding="utf-8"?>
<!-- Generator: Adobe Illustrator 16.2.0, SVG Export Plug-In . SVG Version: 6.00 Build 0)  -->
<!DOCTYPE svg PUBLIC "-//W3C//DTD SVG 1.1//EN" "http://www.w3.org/Graphics/SVG/1.1/DTD/svg11.dtd">
<svg version="1.1" id="Layer_1" xmlns="http://www.w3.org/2000/svg" xmlns:xlink="http://www.w3.org/1999/xlink" x="0px" y="0px"
	 width="30px" height="30px" viewBox="0 0 30 30" enable-background="new 0 0 30 30" xml:space="preserve">
<g>
	<ellipse fill="#FF0000" cx="15" cy="15" rx="15" ry="15"/>
	<path marker-end="none" marker-start="none" fill="#FFFFFF" d="M14.821,21.646L14.821,21.646c-2.111-0.012-4.613-0.038-6.549-0.278
		c-2.009-0.247-2.522-1.473-2.626-3.491c-0.058-1.1-0.102-1.948-0.098-2.875c-0.004-0.927,0.039-1.775,0.098-2.876
		C5.75,10.107,6.264,8.88,8.272,8.633c1.937-0.237,4.438-0.268,6.55-0.275V8.355c0.06,0.001,0.117,0.001,0.179,0.001
		s0.119,0,0.179-0.001v0.001c2.112,0.009,4.613,0.039,6.55,0.276c2.009,0.248,2.523,1.475,2.626,3.492
		c0.059,1.1,0.102,1.948,0.098,2.875c0.004,0.927-0.039,1.775-0.098,2.875c-0.103,2.019-0.615,3.245-2.626,3.492
		c-1.938,0.238-4.438,0.267-6.55,0.278l0,0c-0.059,0-0.117,0-0.179,0S14.881,21.646,14.821,21.646z M13.103,17.812l4.887-2.827
		l-4.887-2.826V17.812z"/>
</g>
</svg>
