<?xml version="1.0" encoding="utf-8"?>
<!-- Generator: Adobe Illustrator 16.2.0, SVG Export Plug-In . SVG Version: 6.00 Build 0)  -->
<!DOCTYPE svg PUBLIC "-//W3C//DTD SVG 1.1//EN" "http://www.w3.org/Graphics/SVG/1.1/DTD/svg11.dtd">
<svg version="1.1" id="Layer_1" xmlns="http://www.w3.org/2000/svg" xmlns:xlink="http://www.w3.org/1999/xlink" x="0px" y="0px"
	 width="30px" height="30px" viewBox="0 0 30 30" enable-background="new 0 0 30 30" xml:space="preserve">
<g>
	<path marker-end="none" marker-start="none" fill="#E0218B" d="M15,0c8.284,0,15,6.716,15,15c0,8.284-6.716,15-15,15S0,23.285,0,15
		C0,6.717,6.716,0,15,0L15,0z"/>
	<path marker-end="none" marker-start="none" fill="#FFFFFF" d="M20.875,19.5c0,0.749-0.626,1.376-1.375,1.376h-9
		c-0.75,0-1.375-0.627-1.375-1.376v-6h2.188c-0.188,0.437-0.313,1-0.313,1.5c0,2.187,1.813,4,4,4c2.188,0,3.999-1.813,3.999-4
		c0-0.5-0.123-1.063-0.311-1.5h2.188V19.5L20.875,19.5z M12.938,13.5c0.438-0.625,1.249-1.063,2.063-1.063s1.625,0.437,2.063,1.063
		c0.313,0.437,0.5,0.938,0.5,1.5c0,1.438-1.187,2.562-2.562,2.562S12.438,16.438,12.438,15C12.438,14.438,12.625,13.938,12.938,13.5
		 M20.313,9.375h0.313v0.312v2.188h-2.501v-2.5H20.313z M19.5,7.688h-9c-1.563,0-2.813,1.25-2.813,2.813v3v6
		c0,1.563,1.249,2.813,2.813,2.813h9c1.563,0,2.813-1.249,2.813-2.813v-6v-3C22.313,8.938,21.063,7.688,19.5,7.688L19.5,7.688z"/>
</g>
</svg>
