<?xml version="1.0" encoding="utf-8"?>
<!-- Generator: Adobe Illustrator 16.2.0, SVG Export Plug-In . SVG Version: 6.00 Build 0)  -->
<!DOCTYPE svg PUBLIC "-//W3C//DTD SVG 1.1//EN" "http://www.w3.org/Graphics/SVG/1.1/DTD/svg11.dtd">
<svg version="1.1" id="Layer_1" xmlns="http://www.w3.org/2000/svg" xmlns:xlink="http://www.w3.org/1999/xlink" x="0px" y="0px"
	 width="30px" height="30px" viewBox="0 0 30 30" enable-background="new 0 0 30 30" xml:space="preserve">
<path fill="#666666" d="M14.992,0C6.712,0,0,6.72,0,15c0,8.287,6.712,15,14.992,15C23.279,30,30,23.287,30,15
	C30,6.72,23.279,0,14.992,0z M19.984,11.2l-0.352,3.736h-2.816v10.896h-4.744V14.937H9.96V11.2h2.224
	c0-1.072,0.024-1.944,0.024-2.824c0-2.584,1.601-4.2,4.264-4.2c0.968,0,2.145-0.009,3.513-0.009l0.048,3.712h-2.177
	c-0.848,0-1.208,0.4-1.208,1.08v2.24H19.984z"/>
</svg>
