<?xml version="1.0" encoding="utf-8"?>
<!-- Generator: Adobe Illustrator 16.2.0, SVG Export Plug-In . SVG Version: 6.00 Build 0)  -->
<!DOCTYPE svg PUBLIC "-//W3C//DTD SVG 1.1//EN" "http://www.w3.org/Graphics/SVG/1.1/DTD/svg11.dtd">
<svg version="1.1" id="Layer_1" xmlns="http://www.w3.org/2000/svg" xmlns:xlink="http://www.w3.org/1999/xlink" x="0px" y="0px"
	 width="30px" height="30px" viewBox="0 0 30 30" enable-background="new 0 0 30 30" xml:space="preserve">
<g>
	<path fill="#666666" d="M9.709,9.42c-2.667,2.666-2.943,6.821-0.831,9.798l-0.512,1.544c0-0.001-0.003-0.004-0.004-0.004
		l-0.468,1.386l0.017-0.006l3.016-0.946c2.955,1.936,6.964,1.604,9.563-0.992c2.976-2.975,2.976-7.805,0-10.781
		C17.514,6.443,12.685,6.444,9.709,9.42z M17.819,19.053c-0.353,0.024-0.671-0.018-0.961-0.116c-3.09-0.789-5.363-2.975-6.113-5.622
		c-0.219-0.771-0.063-1.715,0.75-2.294c0.189-0.163,0.446-0.258,0.82-0.234c0.195-0.007,0.356,0.015,0.562,0.211l0.75,1.71
		c0.079,0.219,0.083,0.437-0.023,0.654l-0.468,0.586c-0.126,0.127-0.111,0.302-0.047,0.492c0.698,1.166,1.66,2.042,2.976,2.529
		c0.172,0.039,0.343,0.08,0.514-0.093l0.703-0.82c0.126-0.119,0.28-0.159,0.468-0.094l1.805,0.867
		c0.087,0.086,0.168,0.177,0.188,0.328C19.66,18.425,18.851,18.865,17.819,19.053z"/>
	<path fill="#666666" d="M15,0C6.716,0,0,6.716,0,15s6.716,15,15,15s15-6.716,15-15S23.284,0,15,0z M21.452,21.163
		c-2.899,2.9-7.294,3.403-10.712,1.508l-4.996,1.588l1.634-4.848c-2.059-3.449-1.603-7.985,1.367-10.955
		c3.508-3.507,9.2-3.507,12.707,0C24.961,11.964,24.961,17.655,21.452,21.163z"/>
</g>
</svg>
