<?xml version="1.0" encoding="utf-8"?>
<!-- Generator: Adobe Illustrator 16.2.0, SVG Export Plug-In . SVG Version: 6.00 Build 0)  -->
<!DOCTYPE svg PUBLIC "-//W3C//DTD SVG 1.1//EN" "http://www.w3.org/Graphics/SVG/1.1/DTD/svg11.dtd">
<svg version="1.1" id="Layer_1" xmlns="http://www.w3.org/2000/svg" xmlns:xlink="http://www.w3.org/1999/xlink" x="0px" y="0px"
	 width="30px" height="30px" viewBox="0 0 30 30" enable-background="new 0 0 30 30" xml:space="preserve">
<g>
	<path marker-end="none" marker-start="none" fill="#00A9F0" d="M30,15c0,8.284-6.715,15-15,15C6.716,30,0,23.284,0,15S6.716,0,15,0
		C23.285,0,30,6.716,30,15L30,15z"/>
	<path marker-end="none" marker-start="none" fill="#FEFEFE" d="M19.213,19.324c-0.538,0.611-1.213,1.001-1.979,1.223
		c-1.438,0.414-2.895,0.429-4.328-0.004c-1.305-0.393-2.267-1.201-2.649-2.555c-0.271-0.962,0.348-1.681,1.306-1.566
		c0.414,0.048,0.686,0.299,0.879,0.643c0.122,0.217,0.224,0.445,0.332,0.667c0.354,0.729,0.928,1.14,1.74,1.229
		c0.666,0.072,1.312,0.025,1.927-0.252c0.238-0.107,0.448-0.257,0.621-0.456c0.46-0.532,0.377-1.286-0.188-1.704
		c-0.548-0.406-1.203-0.513-1.84-0.656c-0.916-0.203-1.831-0.396-2.689-0.779c-0.888-0.396-1.608-0.971-1.842-1.974
		c-0.27-1.165,0.056-2.149,0.986-2.905c0.822-0.667,1.813-0.882,2.836-0.97c0.238-0.021,0.479-0.005,0.717-0.005
		c0.945-0.024,1.867,0.101,2.721,0.536c0.653,0.333,1.195,0.79,1.511,1.472c0.154,0.334,0.227,0.69,0.128,1.046
		c-0.119,0.432-0.414,0.734-0.861,0.824c-0.464,0.095-0.897,0.021-1.189-0.411c-0.14-0.205-0.274-0.415-0.399-0.63
		c-0.4-0.681-0.97-1.058-1.778-1.057c-0.369,0.001-0.736-0.01-1.1,0.077c-0.324,0.079-0.62,0.213-0.867,0.443
		c-0.438,0.408-0.422,0.968,0.047,1.34c0.309,0.246,0.674,0.383,1.052,0.479c0.885,0.225,1.775,0.435,2.661,0.667
		c0.481,0.125,0.941,0.314,1.387,0.538C20.427,15.628,20.28,18.11,19.213,19.324 M23.38,17.09c-0.053-0.123-0.077-0.236-0.049-0.372
		c0.201-0.996,0.208-1.993,0.043-2.998c-0.729-4.421-4.895-7.521-9.321-6.923c-0.261,0.035-0.476-0.006-0.707-0.129
		c-1.871-1-4.159-0.656-5.682,0.838c-1.498,1.471-1.875,3.771-0.915,5.645c0.102,0.197,0.134,0.374,0.087,0.593
		c-0.092,0.449-0.1,0.908-0.121,1.387c0.016,0.269,0.019,0.557,0.051,0.844c0.5,4.792,4.889,8.154,9.669,7.408
		c0.147-0.023,0.269,0.001,0.399,0.065c0.902,0.457,1.871,0.567,2.852,0.412C22.881,23.351,24.66,20.066,23.38,17.09L23.38,17.09z"
		/>
</g>
</svg>
