<?xml version="1.0" encoding="utf-8"?>
<!-- Generator: Adobe Illustrator 16.2.0, SVG Export Plug-In . SVG Version: 6.00 Build 0)  -->
<!DOCTYPE svg PUBLIC "-//W3C//DTD SVG 1.1//EN" "http://www.w3.org/Graphics/SVG/1.1/DTD/svg11.dtd">
<svg version="1.1" id="Layer_1" xmlns="http://www.w3.org/2000/svg" xmlns:xlink="http://www.w3.org/1999/xlink" x="0px" y="0px"
	 width="30px" height="30px" viewBox="0 0 30 30" enable-background="new 0 0 30 30" xml:space="preserve">
<g>
	<ellipse fill="#239ED9" cx="15" cy="15" rx="15" ry="15"/>
	<path marker-end="none" marker-start="none" fill="#FFFFFF" d="M18.126,24.586c-0.023-0.012-0.047-0.024-0.068-0.042l-4.198-3.233
		l-2.361,2.407c-0.059,0.059-0.132,0.097-0.214,0.113c-0.544,0.097-1.062-0.083-1.287-0.734l-1.672-5.323L3.844,16.07
		c-0.049-0.02-0.096-0.049-0.135-0.087c-0.705-0.685-0.459-1.323,0.054-1.792c0.036-0.033,0.076-0.058,0.12-0.075l17.713-7.134
		c0.412-0.179,0.885-0.291,1.254-0.05l0.021,0.014l0.039,0.029l0.019,0.015c0.261,0.219,0.334,0.555,0.337,0.87
		c0.002,0.026,0,0.053-0.006,0.08l-3.078,15.947c-0.006,0.031-0.016,0.063-0.029,0.092C19.73,24.891,18.932,24.979,18.126,24.586z
		 M19.275,23.887l0.138-0.214l3.056-15.835L22.46,7.731c-0.007-0.037-0.013-0.063-0.02-0.083l-0.024-0.045l-0.021-0.006
		c-0.052-0.008-0.19-0.009-0.491,0.122L4.258,14.824l-0.115,0.118c-0.076,0.099-0.092,0.183-0.03,0.29l0.108,0.131l4.568,1.734
		c0.069,0.026,0.129,0.073,0.174,0.131l10.689-7.171l-8.392,8.811l-0.531,3.911l0.022,0.069c0.051,0.146,0.11,0.21,0.238,0.213
		l0.039-0.004L13.54,20.5c0.141-0.144,0.366-0.158,0.526-0.035l4.435,3.416l-0.025-0.01C18.869,24.063,19.104,24.068,19.275,23.887z
		"/>
</g>
</svg>
