<?xml version="1.0" encoding="utf-8"?>
<!-- Generator: Adobe Illustrator 16.2.0, SVG Export Plug-In . SVG Version: 6.00 Build 0)  -->
<!DOCTYPE svg PUBLIC "-//W3C//DTD SVG 1.1//EN" "http://www.w3.org/Graphics/SVG/1.1/DTD/svg11.dtd">
<svg version="1.1" id="Layer_1" xmlns="http://www.w3.org/2000/svg" xmlns:xlink="http://www.w3.org/1999/xlink" x="0px" y="0px"
	 width="30px" height="30px" viewBox="0 0 30 30" enable-background="new 0 0 30 30" xml:space="preserve">
<path fill="#666666" d="M15,0C6.716,0,0,6.716,0,15c0,8.285,6.716,15,15,15c8.285,0,15-6.715,15-15C30,6.716,23.285,0,15,0z
	 M22.307,16.607c1.089,1.069,2.162,2.153,3.03,3.371c0.504,0.82,0.262,1.515-0.497,1.515h-3.447c-1.258,0.016-2.355-1.563-3.5-2.665
	c-0.453-0.412-0.8-0.412-1.045,0c-0.341,0.523-0.549,0.964-0.549,1.725c0.117,0.599-0.278,0.94-0.863,0.94h-1.933
	c-5.368-0.893-7.612-6.466-10.214-11.468C3.191,9.64,3.224,9.322,3.995,9.373h3.29c0.315,0,0.523,0.26,0.732,0.547
	c0.762,1.569,1.594,3.318,2.612,4.625c0.499,0.619,0.999,0.757,1.202,0.079c0.548-2.9,0.354-4.954-1.098-4.99
	c0.458-1.132,3.579-0.783,4.964-0.68c0.402,0.083,0.653,0.313,0.653,1.175v4.128c0,0.602,0.62,0.833,1.044,0.522
	c1.288-1.555,2.308-3.201,2.977-4.963c0.156-0.34,0.456-0.418,0.809-0.418l3.735-0.078c0.603,0,0.958,0.406,0.627,1.045
	c-0.624,1.414-1.961,3.096-3.238,4.754C21.961,15.646,21.796,16.155,22.307,16.607z"/>
</svg>
