<?xml version="1.0" encoding="utf-8"?>
<!-- Generator: Adobe Illustrator 16.2.0, SVG Export Plug-In . SVG Version: 6.00 Build 0)  -->
<!DOCTYPE svg PUBLIC "-//W3C//DTD SVG 1.1//EN" "http://www.w3.org/Graphics/SVG/1.1/DTD/svg11.dtd">
<svg version="1.1" id="Layer_1" xmlns="http://www.w3.org/2000/svg" xmlns:xlink="http://www.w3.org/1999/xlink" x="0px" y="0px"
	 width="30px" height="30px" viewBox="0 0 30 30" enable-background="new 0 0 30 30" xml:space="preserve">
<g>
	<path fill="#3B5796" d="M14.992,0C23.28,0,30,6.72,30,15c0,8.287-6.72,15-15.008,15C6.713,30,0,23.287,0,15
		C0,6.72,6.713,0,14.992,0L14.992,0z"/>
	<path fill="#FFFFFF" d="M19.984,4.168c-1.368,0-2.545,0.009-3.513,0.009c-2.663,0-4.265,1.616-4.265,4.2
		c0,0.88-0.023,1.752-0.023,2.824H9.96v3.736h2.112v10.896h4.744V14.937h2.816l0.352-3.736h-3.337V8.96c0-0.68,0.36-1.08,1.208-1.08
		h2.177L19.984,4.168z"/>
</g>
</svg>
