<svg stroke-width=".501" stroke-linejoin="bevel" fill-rule="evenodd" xmlns="http://www.w3.org/2000/svg" overflow="visible" width="144" height="50" viewBox="0 0 108 37.5"><defs><radialGradient id="a" gradientUnits="userSpaceOnUse" cx="0" cy="0" r="64.48" gradientTransform="matrix(0 -1 .60997 0 52.911 18.082)"><stop offset="0" stop-color="#b2b2b2"/><stop offset=".1" stop-color="#8d8d8d"/><stop offset=".2" stop-color="#707070"/><stop offset=".3" stop-color="#595959"/><stop offset=".4" stop-color="#464646"/><stop offset=".5" stop-color="#353535"/><stop offset=".6" stop-color="#282828"/><stop offset=".7" stop-color="#1c1c1c"/><stop offset=".8" stop-color="#111"/><stop offset=".9" stop-color="#080808"/><stop offset="1"/></radialGradient></defs><g transform="matrix(1 0 0 -1 0 37.5)" fill="none" font-family="Times New Roman" font-size="16"><path d="M.204 0C30.06 29.266 77.94 29.266 107.796 0H.204z" fill="#000"/><mask id="b"><rect x="-10%" y="-10%" width="120%" height="120%" fill="url(#a)"/></mask><path d="M4.388 0c28.111 25.441 71.113 25.441 99.224 0H4.388z" fill="#fff" mask="url(#b)"/><path d="M11.943 0c24.729 18.982 59.384 18.982 84.113 0h-1.245c-24.14 17.982-57.483 17.982-81.623 0h-1.245zm8.846 0c20.343 12.318 46.077 12.318 66.42 0h-1.473C66.169 11.318 41.829 11.318 22.262 0h-1.473zm11.165 0a59.423 59.423 0 0 0 44.09 0h-2.106A58.695 58.695 0 0 1 34.06 0h-2.106z" fill="#000" fill-opacity=".251"/></g></svg>