<svg xmlns="http://www.w3.org/2000/svg" width="150" height="150" viewBox="0 0 150 150"><g fill-rule="evenodd" clip-rule="evenodd"><path fill="#FFF" d="M0 75c0-20.026 7.854-38.213 20.654-51.68h108.68C142.133 36.787 150 54.974 150 75c0 20.134-7.959 38.44-20.893 51.907H20.881C7.947 113.44 0 95.134 0 75z"/><path fill="#191980" d="M75 0c21.734 0 41.334 9.268 55.027 24.067H19.961C33.654 9.268 53.254 0 75 0z"/><path fill="#191980" d="M19.961 125.947h110.066C116.32 140.734 96.734 150 75 150c-21.746 0-41.334-9.266-55.039-24.053z"/><path fill="#191980" d="M74.947 122.587L61.16 98.907H33.348L47.254 75 33.348 51.094h27.826l13.773-23.667L88.72 51.094h27.813L102.627 75l13.906 23.907H88.721l-13.774 23.68zm0-15.373l4.826-8.307h-9.666l4.84 8.307zm-18.281-16.04l-4.932-8.48-4.947 8.48h9.879zm27.613 0L93.68 75l-9.412-16.173H65.613L56.201 75l9.412 16.174h18.666zm18.815 0l-4.934-8.493-4.947 8.493h9.881zM98.16 67.32l4.947-8.493h-9.895l4.948 8.493zm-46.426 0l4.932-8.493h-9.879l4.947 8.493zm28.039-16.226l-4.826-8.307-4.826 8.307h9.652z"/></g></svg>