<svg xmlns="http://www.w3.org/2000/svg" width="150" height="150" viewBox="0 0 150 150"><g fill-rule="evenodd" clip-rule="evenodd"><path fill="#BA0000" d="M0 75a74.76 74.76 0 0 1 5.573-28.387H144.44C148.027 55.374 150 64.96 150 75c0 9.453-1.747 18.507-4.947 26.84H4.959A74.757 74.757 0 0 1 0 75z"/><path d="M75 0c31.733 0 58.879 19.734 69.826 47.587H5.173C16.133 19.734 43.28 0 75 0z"/><path fill="#FFBD00" d="M4.613 100.921H145.4C134.84 129.56 107.293 150 75 150c-32.28 0-59.827-20.44-70.387-49.079z"/></g></svg>