<svg xmlns="http://www.w3.org/2000/svg" width="150" height="150" viewBox="0 0 150 150"><path fill="#191980" d="M0 75C0 33.6 33.6 0 75 0s75 33.6 75 75-33.6 75-75 75S0 116.4 0 75z"/><path fill="#FFF" d="M130.854 125.04L6.906 43.533a74.775 74.775 0 0 1 13.133-19.547l123.588 81.28a74.714 74.714 0 0 1-12.773 19.774z"/><path fill="#BA0000" d="M134.52 120.613l-125-82.2a75.702 75.702 0 0 1 6.773-10.08l124.813 82.095a74.361 74.361 0 0 1-6.586 10.185z"/><path fill="#FFF" d="M6.707 106.025L130.52 24.6a75.292 75.292 0 0 1 12.922 19.693L19.694 125.652a75.343 75.343 0 0 1-12.987-19.627z"/><path fill="#BA0000" d="M9.279 111.16l124.934-82.174a75.725 75.725 0 0 1 6.667 10.16l-124.907 82.12a75.406 75.406 0 0 1-6.694-10.106z"/><path fill="#FFF" d="M63.721 149.16v-61.6H1.039a76.403 76.403 0 0 1-.025-24.96h62.707V.84A76.592 76.592 0 0 1 75 0c4.439 0 8.787.387 13.014 1.133V62.6h60.961A75.986 75.986 0 0 1 150 75c0 4.279-.359 8.48-1.055 12.561H88.014v61.319A76.12 76.12 0 0 1 75 150c-3.84 0-7.6-.279-11.279-.84z"/><path fill="#BA0000" d="M67.533 149.641V83.652H.494A74.11 74.11 0 0 1 0 75c0-2.867.16-5.707.467-8.494h67.066V.373A72.536 72.536 0 0 1 75 0c3.119 0 6.188.187 9.213.56v65.946h65.309c.318 2.787.478 5.627.478 8.494a77.3 77.3 0 0 1-.493 8.652H84.213v65.787A74.993 74.993 0 0 1 75 150c-2.52 0-5.014-.12-7.467-.359z"/></svg>