<svg xmlns="http://www.w3.org/2000/svg" width="150" height="150" viewBox="0 0 150 150"><g fill-rule="evenodd" clip-rule="evenodd"><path fill="#FFF" d="M32.6 136.891V13.109c25.467-17.479 59.347-17.479 84.8 0V136.89c-25.454 17.48-59.334 17.48-84.8.001z"/><path fill="#307330" d="M21.96 128.038c-29.28-29.278-29.28-76.796 0-106.075 9.4-9.4 20.667-15.773 32.613-19.146v144.367c-11.947-3.373-23.213-9.746-32.613-19.146z"/><path fill="#BA0000" d="M95.44 147.184V2.817a74.649 74.649 0 0 1 32.6 19.146c29.28 29.278 29.28 76.796 0 106.075a74.649 74.649 0 0 1-32.6 19.146z"/></g></svg>