<svg xmlns="http://www.w3.org/2000/svg" width="150" height="150" viewBox="0 0 150 150"><g fill-rule="evenodd" clip-rule="evenodd"><path fill="#FFF" d="M0 75C0 33.973 33 .6 73.894.014h2.213C117 .6 150 33.973 150 75c0 41.4-33.601 75-75 75-41.4 0-75-33.6-75-75z"/><path fill="#BA0000" d="M75 0c14.479 0 28 4.107 39.467 11.213H35.533C47 4.107 60.52 0 75 0z"/><path fill="#BA0000" d="M21.333 22.613h107.334A76.077 76.077 0 0 1 138 34.306H12a76.077 76.077 0 0 1 9.333-11.693z"/><path fill="#BA0000" d="M5.946 45.707h138.106a73.557 73.557 0 0 1 3.867 11.693H2.08a73.756 73.756 0 0 1 3.866-11.693z"/><path fill="#BA0000" d="M0 75c0-2.093.08-4.16.253-6.2h149.493c.174 2.04.254 4.107.254 6.2 0 1.84-.066 3.681-.2 5.493H.2A74.663 74.663 0 0 1 0 75z"/><path fill="#BA0000" d="M1.906 91.88h146.187a74.67 74.67 0 0 1-3.733 11.693H5.64A74.673 74.673 0 0 1 1.906 91.88z"/><path fill="#BA0000" d="M11.934 115.587h126.133a74.977 74.977 0 0 1-9.307 11.693H21.24a74.97 74.97 0 0 1-9.306-11.693z"/><path fill="#BA0000" d="M36.359 139.28h77.28C102.359 146.08 89.133 150 75 150c-14.134 0-27.36-3.92-38.641-10.72z"/><path fill="#191980" d="M0 75C0 33.6 33.6 0 75 0c6.706 0 13.213.88 19.399 2.534V80.36H.187A78.699 78.699 0 0 1 0 75z"/><g fill="#FFF"><path d="M41.693 11.453l-2.92-2.133c.64-.347 1.293-.693 1.933-1.027l.987 3.16zm-6.106-.039l.093-.28c.641-.387 1.267-.773 1.92-1.146l-2.013 1.426z"/><path d="M57.974 11.453l-3.04-2.213-3.067 2.173 1.16-3.574L50.013 5.6h3.761l.946-2.827c.16-.04.307-.08.453-.12l.96 2.959 3.773.041-3.053 2.2 1.121 3.6z"/><path d="M74.253 11.453l-3.04-2.213-3.067 2.174 1.161-3.574-3.014-2.24h3.76l1.2-3.573 1.16 3.586 3.774.041-3.054 2.2z"/><path d="M90.533 11.453L87.479 9.24l-3.066 2.174 1.174-3.574L82.56 5.6h3.773l1.2-3.573 1.16 3.586 3.76.041-3.054 2.2z"/><path d="M25.427 27.867l-3.04-2.213-3.067 2.186 1.159-3.586-.413-.307a88.555 88.555 0 0 1 3.12-3.16l.4 1.24 3.772.04-3.053 2.213 1.122 3.587z"/><path d="M41.693 27.867l-3.04-2.213-3.066 2.186 1.173-3.586-3.027-2.24h3.76l1.213-3.574 1.16 3.587 3.761.04-3.054 2.213z"/><path d="M57.974 27.867l-3.04-2.213-3.068 2.186 1.16-3.586-3.013-2.24h3.76l1.201-3.574 1.159 3.587 3.773.04-3.052 2.213z"/><path d="M74.253 27.867l-3.04-2.213-3.067 2.186 1.161-3.586-3.014-2.24h3.76l1.2-3.574 1.16 3.587 3.774.04-3.054 2.213z"/><path d="M90.533 27.867l-3.054-2.213-3.066 2.186 1.174-3.586-3.027-2.24h3.773l1.2-3.574 1.16 3.587 3.76.04-3.054 2.213z"/><path d="M9.146 44.293L7.213 42.88c.294-.626.601-1.24.907-1.854l1.026 3.267zm.347-5.826l1.587.014-2.627 1.906c.347-.653.68-1.28 1.04-1.92z"/><path d="M25.427 44.293l-3.04-2.213-3.067 2.174 1.159-3.574-3.012-2.253 3.76.013 1.2-3.573 1.16 3.586 3.772.027-3.052 2.213z"/><path d="M41.693 44.293l-3.04-2.213-3.066 2.174 1.173-3.574-3.027-2.253 3.76.013 1.213-3.573 1.16 3.586 3.761.027-3.054 2.213z"/><path d="M57.974 44.293l-3.04-2.213-3.068 2.174 1.16-3.574-3.013-2.253 3.76.013 1.201-3.573 1.159 3.586 3.773.027-3.052 2.213z"/><path d="M74.253 44.293l-3.04-2.213-3.067 2.174 1.161-3.574-3.014-2.253 3.76.013 1.2-3.573 1.16 3.586 3.774.027-3.054 2.213z"/><path d="M90.533 44.293l-3.054-2.213-3.066 2.174 1.174-3.574-3.027-2.253 3.773.013 1.2-3.573 1.16 3.586 3.76.027-3.054 2.213z"/><path d="M9.146 60.72l-3.04-2.227L3.04 60.68l1.16-3.573-1.721-1.28c.08-.333.174-.653.254-.973l2.213.014 1.2-3.574 1.16 3.587 3.773.026-3.053 2.213 1.12 3.6z"/><path d="M25.427 60.72l-3.04-2.226-3.067 2.186 1.159-3.573-3.012-2.253 3.76.013 1.2-3.574 1.16 3.587 3.772.027-3.052 2.213z"/><path d="M41.693 60.72l-3.04-2.226-3.066 2.186 1.173-3.573-3.027-2.253 3.76.013 1.213-3.574 1.16 3.587 3.761.027-3.054 2.213z"/><path d="M57.974 60.72l-3.04-2.226-3.068 2.186 1.16-3.573-3.013-2.253 3.76.013 1.201-3.574 1.159 3.587 3.773.027-3.052 2.213z"/><path d="M74.253 60.72l-3.04-2.226-3.067 2.186 1.161-3.573-3.014-2.253 3.76.013 1.2-3.574 1.16 3.587 3.774.027-3.054 2.213z"/><path d="M90.533 60.72l-3.054-2.226-3.066 2.186 1.174-3.573-3.027-2.253 3.773.013 1.2-3.574 1.16 3.587 3.76.027-3.054 2.213z"/><path d="M9.146 77.134l-3.04-2.214-3.066 2.174L4.2 73.52l-3.013-2.24h3.759l1.2-3.573 1.161 3.586 3.773.04-3.054 2.201z"/><path d="M25.427 77.134l-3.04-2.214-3.067 2.174 1.159-3.574-3.012-2.24h3.76l1.2-3.573 1.16 3.586 3.772.04-3.052 2.201z"/><path d="M41.693 77.134l-3.04-2.214-3.066 2.174 1.173-3.574-3.027-2.24h3.76l1.213-3.573 1.16 3.586 3.761.04-3.054 2.201z"/><path d="M57.974 77.134l-3.04-2.214-3.068 2.174 1.16-3.574-3.013-2.24h3.76l1.201-3.573 1.159 3.586 3.773.04-3.052 2.201z"/><path d="M74.253 77.134l-3.04-2.214-3.067 2.174 1.161-3.574-3.014-2.24h3.76l1.2-3.573 1.16 3.586 3.774.04-3.054 2.201z"/><path d="M90.533 77.134l-3.054-2.214-3.066 2.174 1.174-3.574-3.027-2.24h3.773l1.2-3.573 1.16 3.586 3.76.04-3.054 2.201z"/><path d="M33.16 19.173l-3.04-2.213-3.08 2.187.8-2.454a72.13 72.13 0 0 1 4.467-3.346l2.773.026-3.04 2.214 1.12 3.586z"/><path d="M49.427 19.173l-3.04-2.213-3.067 2.187 1.159-3.587-3.012-2.24h3.76l1.2-3.573 1.16 3.586 3.772.041-3.052 2.213z"/><path d="M65.706 19.173l-3.039-2.213-3.067 2.187 1.16-3.587-3.014-2.24h3.761l1.199-3.573 1.16 3.586 3.761.041-3.04 2.213z"/><path d="M81.974 19.173l-3.04-2.213-3.068 2.187 1.174-3.587-3.027-2.24h3.76l1.213-3.573 1.147 3.586 3.773.041-3.052 2.213z"/><path d="M16.88 35.6l-3.04-2.213-2.293 1.627a78.968 78.968 0 0 1 3.64-5.253l3.627.04L15.76 32l1.12 3.6z"/><path d="M33.16 35.6l-3.04-2.213-3.08 2.173 1.173-3.573-3.026-2.24h3.773l1.2-3.574 1.16 3.587 3.76.04-3.04 2.2z"/><path d="M49.427 35.6l-3.04-2.213-3.067 2.173 1.159-3.573-3.012-2.24h3.76l1.2-3.574 1.16 3.587 3.772.04-3.052 2.2z"/><path d="M65.706 35.6l-3.039-2.213L59.6 35.56l1.16-3.573-3.014-2.24h3.761l1.199-3.574 1.16 3.587 3.761.04-3.04 2.2z"/><path d="M81.974 35.6l-3.04-2.213-3.068 2.173 1.174-3.573-3.027-2.24h3.76l1.213-3.574 1.147 3.587 3.773.04-3.052 2.2z"/><path d="M16.88 52.014L13.84 49.8l-3.067 2.187 1.161-3.587-3.014-2.24h3.76l1.2-3.56 1.16 3.573 3.773.04-3.053 2.214z"/><path d="M33.16 52.014L30.12 49.8l-3.08 2.187 1.173-3.587-3.026-2.24h3.773l1.2-3.56 1.16 3.573 3.76.04-3.04 2.214z"/><path d="M49.427 52.014l-3.04-2.214-3.067 2.187 1.159-3.587-3.012-2.24h3.76l1.2-3.56 1.16 3.573 3.772.04-3.052 2.214z"/><path d="M65.706 52.014L62.667 49.8 59.6 51.987l1.16-3.587-3.014-2.24h3.761l1.199-3.56 1.16 3.573 3.761.04-3.04 2.214z"/><path d="M81.974 52.014l-3.04-2.214-3.068 2.187L77.04 48.4l-3.027-2.24h3.76l1.213-3.56 1.147 3.573 3.773.04-3.052 2.214z"/><path d="M16.88 68.44l-3.04-2.213-3.067 2.187 1.161-3.587-3.014-2.24h3.76l1.2-3.573 1.16 3.586 3.773.04-3.053 2.2z"/><path d="M33.16 68.44l-3.04-2.213-3.08 2.187 1.173-3.587-3.026-2.24h3.773l1.2-3.573 1.16 3.586 3.76.04-3.04 2.2z"/><path d="M49.427 68.44l-3.04-2.213-3.067 2.187 1.159-3.587-3.012-2.24h3.76l1.2-3.573 1.16 3.586 3.772.04-3.052 2.2z"/><path d="M65.706 68.44l-3.039-2.213-3.067 2.187 1.16-3.587-3.014-2.24h3.761l1.199-3.573 1.16 3.586 3.761.04-3.04 2.2z"/><path d="M81.974 68.44l-3.04-2.213-3.068 2.187 1.174-3.587-3.027-2.24h3.76l1.213-3.573 1.147 3.586 3.773.04-3.052 2.2z"/></g></g></svg>