<svg xmlns="http://www.w3.org/2000/svg" width="150" height="150" viewBox="0 0 150 150"><g fill-rule="evenodd" clip-rule="evenodd"><path fill="#FFF" d="M34.493 138.12V11.881A74.637 74.637 0 0 1 73.893 0h2.213c14.494.213 28 4.547 39.4 11.881V138.12A74.721 74.721 0 0 1 75 150a74.692 74.692 0 0 1-40.507-11.88z"/><path fill="#191980" d="M0 75C0 40.387 23.48 11.227 55.359 2.6v144.8C23.48 138.761 0 109.601 0 75z"/><path fill="#BA0000" d="M94.639 147.4V2.6C126.52 11.24 150 40.387 150 75c0 34.601-23.48 63.761-55.361 72.4z"/></g></svg>