<svg xmlns="http://www.w3.org/2000/svg" width="28" height="28" viewBox="0 0 28 28"><path d="M5.8 17.307l-1.04 1.027 4.16 4.172 1.053-1.053L5.8 17.307zm7.453-5.52c-1.214 0-2.2.986-2.2 2.213s.986 2.213 2.2 2.213c1.227 0 2.213-.986 2.213-2.213s-.986-2.213-2.213-2.213m0-3.68a5.894 5.894 0 0 1 1.479 11.6v.186a7.38 7.38 0 0 1-7.373 7.373c-4.067 0-7.36-3.305-7.36-7.373 0-4.066 3.293-7.373 7.36-7.373h.2c.654-2.586 3.001-4.413 5.694-4.413M24.44.734H28V3.68h-2.346L19.4 9.934a7.358 7.358 0 0 0-2.08-2.08l7.12-7.12z"/></svg>