<svg xmlns="http://www.w3.org/2000/svg" width="28" height="28" viewBox="0 0 28 28"><path d="M8.979 16.471l2.546 2.559-4.079 3.053-1.533-1.533 3.066-4.079zM24.03 1.926a1.446 1.446 0 0 0-2.039 0L19.95 3.965l-4.079 4.094a.715.715 0 0 0 0 1.012l1.533 1.533c.28.281.28.734-.013 1.027a.731.731 0 0 1-1.014 0l-1.533-1.533c-.787-.787-.787-2.279 0-3.066l3.92-3.92c-2.213-1.32-5.066-1.053-6.973.854l-1.533 1.533a3.628 3.628 0 0 1 0 5.105 3.602 3.602 0 0 1-5.105 0L3.62 12.137a7.193 7.193 0 0 0 0 10.199l2.039 2.039a7.21 7.21 0 0 0 10.212 0l1.533-1.52c-1.413-1.412-1.413-3.707-.013-5.105a3.602 3.602 0 0 1 5.105 0l1.533-1.533a5.745 5.745 0 0 0 0-8.158l2.039-2.041a1.44 1.44 0 0 0 0-2.053L24.03 1.926z"/></svg>