<svg xmlns="http://www.w3.org/2000/svg" width="20" height="20" viewBox="0 0 20 20"><path d="M17.613 16.199c0 2.107-3.4 3.801-7.613 3.801s-7.613-1.693-7.613-3.801c0-1.227 1.16-2.318 2.959-3.025l.602.867c-1.027.426-1.668 1.025-1.668 1.68 0 1.32 2.574 2.387 5.721 2.387s5.721-1.066 5.721-2.387c0-.654-.641-1.254-1.668-1.68l.602-.867c1.797.707 2.957 1.799 2.957 3.025M10 3.813a1.907 1.907 0 1 0 .001 3.813A1.907 1.907 0 0 0 10 3.813M10 0c3.146 0 5.721 2.533 5.721 5.666C15.721 9.92 10 16.199 10 16.199S4.279 9.92 4.279 5.666C4.279 2.533 6.854 0 10 0z"/></svg>