<svg xmlns="http://www.w3.org/2000/svg" width="20" height="20" viewBox="0 0 20 20"><path d="M2.926 17.08C-.98 13.174-.98 6.84 2.926 2.934A9.946 9.946 0 0 1 9.834 0h.318a9.97 9.97 0 0 1 6.92 2.934c3.908 3.906 3.908 10.24 0 14.146A10.005 10.005 0 0 1 10.166 20h-.332a10.01 10.01 0 0 1-6.908-2.92zm10.373-.813c.295-.507.547-1.053.762-1.64H10.54v4c.933-.2 1.919-.934 2.759-2.36zm-4.078 2.294v-3.934H5.939c.213.587.467 1.133.76 1.64.76 1.307 1.655 2.027 2.522 2.294zm-3.655-1.614a11.034 11.034 0 0 1-1.014-2.32H2.646c.348.533.746 1.04 1.213 1.507a8.61 8.61 0 0 0 2.24 1.626 10.12 10.12 0 0 1-.533-.813zm10.575-.813a9.328 9.328 0 0 0 1.213-1.507h-1.906a11.138 11.138 0 0 1-1.014 2.32c-.174.293-.348.56-.533.813a8.74 8.74 0 0 0 2.24-1.626zM3.887 10.653H1.354c.066.907.266 1.8.613 2.653h2.24a14.705 14.705 0 0 1-.32-2.653zm5.334 2.654v-2.653H5.207c.039.907.16 1.8.346 2.653h3.668zm5.572-2.654h-4.254v2.653h3.908c.186-.853.307-1.745.346-2.653zm3.853 0h-2.533a15.971 15.971 0 0 1-.32 2.653h2.24a8.72 8.72 0 0 0 .613-2.653zM4.221 6.627H2.006a8.371 8.371 0 0 0-.652 2.707h2.533c.039-.92.146-1.827.334-2.707zm5 2.707V6.627H5.58a13.89 13.89 0 0 0-.373 2.707h4.014zm5.199-2.707h-3.881v2.707h4.254a13.89 13.89 0 0 0-.373-2.707zm3.574 0h-2.215c.188.88.293 1.787.334 2.707h2.533a8.371 8.371 0 0 0-.652-2.707zM5.566 3.067c.174-.294.348-.573.534-.827a8.931 8.931 0 0 0-2.24 1.627 9.08 9.08 0 0 0-1.161 1.44H4.58c.254-.8.586-1.56.986-2.24zm3.655 2.24V1.44c-.854.267-1.762.987-2.522 2.294a9.458 9.458 0 0 0-.732 1.573h3.254zm4.078-1.573c-.84-1.428-1.826-2.147-2.76-2.348v3.92h3.494a10.571 10.571 0 0 0-.734-1.572zm2.842.133a9.022 9.022 0 0 0-2.24-1.627 10.995 10.995 0 0 1 1.519 3.066h1.879a9.828 9.828 0 0 0-1.158-1.439z"/></svg>