<svg xmlns="http://www.w3.org/2000/svg" width="28" height="28" viewBox="0 0 28 28"><path fill-rule="evenodd" clip-rule="evenodd" d="M3.066 25.76V10.119H1.854A.861.861 0 0 1 1 9.254V6.227a.86.86 0 0 1 .854-.854h1.213V2.227c0-.467.387-.854.867-.854h3.014c.479 0 .865.387.865.854v3.146h.908V2.227c0-.467.387-.854.865-.854H12.6c.48 0 .867.387.867.854v3.146h.959V2.227c0-.467.387-.854.867-.854h3.027c.48 0 .867.387.867.854v3.146h.945V2.227a.86.86 0 0 1 .854-.854h3.027c.48 0 .867.387.867.854v3.146h1.252c.468 0 .868.387.868.854v3.027c0 .48-.4.865-.867.865h-1.252v6.24c0 .48-.387.867-.867.867h-3.027a.863.863 0 0 1-.854-.867v-6.24h-.945v8.602a.864.864 0 0 1-.867.865h-3.027a.865.865 0 0 1-.867-.865v-8.602h-.959v12.174c0 .48-.387.867-.867.867H9.586a.864.864 0 0 1-.865-.867V10.119h-.908V25.76c0 .48-.387.867-.865.867H3.934a.866.866 0 0 1-.868-.867zM6.494 8.801c.572-.588.572-1.535 0-2.107a1.482 1.482 0 0 0-2.107 0 1.482 1.482 0 0 0 0 2.107 1.508 1.508 0 0 0 2.107 0zm5.652 0a1.482 1.482 0 0 0 0-2.107 1.482 1.482 0 0 0-2.107 0 1.482 1.482 0 0 0 0 2.107 1.508 1.508 0 0 0 2.107 0zm5.708 0a1.482 1.482 0 0 0 0-2.107 1.482 1.482 0 0 0-2.107 0c-.572.572-.572 1.52 0 2.107a1.508 1.508 0 0 0 2.107 0zm5.707 0c.572-.588.572-1.535 0-2.107a1.482 1.482 0 0 0-2.107 0 1.482 1.482 0 0 0 0 2.107 1.508 1.508 0 0 0 2.107 0z"/></svg>