<svg xmlns="http://www.w3.org/2000/svg" width="28" height="28" viewBox="0 0 28 28"><g fill-rule="evenodd" clip-rule="evenodd"><path d="M20.295 10.574a1.236 1.236 0 0 0 .654-1.64c-.268-.64-1-.933-1.64-.653a1.236 1.236 0 0 0-.653 1.64c.267.64 1.014.933 1.639.653z"/><path d="M17.696 13.574c.64-.268.933-1 .653-1.641-.267-.626-1.014-.933-1.64-.652a1.239 1.239 0 0 0-.653 1.64c.267.64 1.001.933 1.64.653z"/><path d="M15.017 16.547a1.254 1.254 0 0 0-.987-2.306 1.24 1.24 0 0 0-.653 1.64 1.255 1.255 0 0 0 1.64.666z"/><path d="M4.006 24.251c-1.133-2.546.333-5.625 2.373-8.024L20.563 2.35c.267-.72-.547-.507-.854-.453-1.399.653-2.293.986-3.333 1.227v-1.8c.72-.106 1.787-.52 2.813-.88.84-.347 3.545-1.039 4.732.613.68.92.627 2.08-.227 3.347L8.925 21.198c-1.293 1.227.56 2.854 1.493 1.48l2.039-2.466c1.227-1.533 2.506-2.986 4.306-3.427 1.267-.373 2.228-1.08 2.427-2.586.04-.601 1.014-.84 1.08.253l.893 8.492c.014.893-.746 1.133-1.199.399-.68-1.066-2.334-.906-3.8.106l-2.933 3.319c-2.066 2.229-7.439 1.456-9.225-2.517z"/></g></svg>