<svg xmlns="http://www.w3.org/2000/svg" width="20" height="20" viewBox="0 0 20 20"><path d="M11.146 18.747l-1.066-1.054.533-.533-.533-.533 3.894-4.801c.014-.52.146-1.053.427-1.52l4.12 4.121c-.467.279-1 .412-1.521.426l-4.8 3.894-.533-.521-.521.521zM0 18.28v-2.134c0-2.346 3.801-4.254 8.507-4.254 1.253 0 2.44.135 3.521.387L7.146 18.28H0zm14.867-3.253a.759.759 0 0 0 0-1.068.756.756 0 0 0-1.066 0 .757.757 0 0 0 0 1.068.756.756 0 0 0 1.066 0zm4.253-1.068l-4.253-4.252a3.008 3.008 0 0 1 4.253 4.252zM4.254 5.506c0-2.346 1.906-4.253 4.253-4.253S12.76 3.16 12.76 5.506c0 2.36-1.906 4.267-4.253 4.267S4.254 7.867 4.254 5.506z"/></svg>