<svg xmlns="http://www.w3.org/2000/svg" width="28" height="28" viewBox="0 0 28 28"><path fill-rule="evenodd" clip-rule="evenodd" d="M14.306 26.687l-2.239-2.239a1.05 1.05 0 0 1 0-1.479l.08-.08a1.063 1.063 0 0 1 1.479 0l.293.307 2.772-2.771-2.612-2.612-5.144 5.157c-2.519 2.505-5.637 1.998-7.436.16-1.786-1.826-2.266-4.984.173-7.423l7.196-7.182c1.346-1.946 1.479-4.852.813-7.037-.146-.253.227-.626.427-.426l7.835 7.835c.2.2-.173.573-.426.427-2.119-.654-4.917-.534-6.862.693l-2.186 2.185 3.971 3.971 8.502-8.501c1.812-1.813 4.25-1.279 5.717.173 1.452 1.439 2.025 3.878.173 5.73l-11.26 11.26.293.293c.4.414.4 1.066 0 1.479l-.08.08a1.038 1.038 0 0 1-1.479 0zM25.02 9.497c-.653-.641-1.653-.961-2.438-.188l-6.85 6.862 2.599 2.612 6.862-6.863c.812-.812.453-1.811-.173-2.423zM7.643 20.957l-3.958-3.959-.359.36c-1.466 1.452-1.16 3.132-.16 4.144.959.987 2.585 1.348 4.117-.186l.36-.359zm3.145-3.145L6.83 13.854 5.324 15.36l3.971 3.957 1.493-1.505z"/></svg>