<svg xmlns="http://www.w3.org/2000/svg" width="28" height="28" viewBox="0 0 28 28"><path fill-rule="evenodd" clip-rule="evenodd" d="M2.124 27.334v-2.48h5.52c7.626-3.6 17.72-11.84 16.093-14.893-.44-.827-1.293-1.387-2.041-1.44v5.054c-.36.412-.772.826-1.2 1.253V8.854c-.8.36-1.453.573-2 .653v7.134c-.387.333-.787.653-1.2.986v-8.16c-.666-.187-1.266-.627-2.025-1.307v11c-.4.28-.8.561-1.2.826V7.054c-.574-.521-1.294-1.04-2.093-1.373v15.667c-.4.253-.8.479-1.201.719V5.373a3.217 3.217 0 0 0-2.186.547v17.334c-.307.16-.627.32-.947.467H4.417V3.188h-.426a.705.705 0 0 1-.693-.693V.693A.696.696 0 0 1 3.991 0h5.12c.374 0 .693.307.693.693v1.094c2.813-.227 4.24.813 6.227 3.453 1.561 2.094 3.067 1.8 4.654 1.413 2.146-.52 4 .627 4.706 2.147 3.346 7.24-11.574 18.12-15.334 19.2H2.791c-.387 0-.667-.213-.667-.666z"/></svg>