<svg xmlns="http://www.w3.org/2000/svg" width="20" height="20" viewBox="0 0 20 20"><path fill-rule="evenodd" clip-rule="evenodd" d="M0 15.887v-3.693a2.186 2.186 0 0 0 1.613-3.733A2.1 2.1 0 0 0 0 7.82V4.113c0-1.199.973-2.174 2.174-2.174h15.652c1.199 0 2.174.975 2.174 2.174V7.82a2.186 2.186 0 1 0 0 4.374v3.693a2.175 2.175 0 0 1-2.174 2.174H2.174A2.174 2.174 0 0 1 0 15.887zm11-.733a1.29 1.29 0 0 0 0-1.828 1.288 1.288 0 0 0-1.826 0 1.287 1.287 0 0 0 0 1.828 1.288 1.288 0 0 0 1.826 0zm0-4.306a1.29 1.29 0 0 0 0-1.828 1.288 1.288 0 0 0-1.826 0 1.287 1.287 0 0 0 0 1.828 1.288 1.288 0 0 0 1.826 0zm0-4.307a1.29 1.29 0 0 0 0-1.828 1.314 1.314 0 0 0-1.826 0 1.287 1.287 0 0 0 0 1.828 1.288 1.288 0 0 0 1.826 0z"/></svg>