<svg xmlns="http://www.w3.org/2000/svg" width="28" height="28" viewBox="0 0 28 28"><path d="M14 11.327a3.334 3.334 0 0 1 3.333 3.333A3.337 3.337 0 0 1 14 18.007a3.337 3.337 0 0 1-3.333-3.347A3.334 3.334 0 0 1 14 11.327M14 .673c7.734 0 14 6.267 14 13.986 0 3.04-.973 5.867-2.613 8.147l-2-1.8c1.227-1.813 1.947-4 1.947-6.347 0-6.253-5.066-11.32-11.333-11.32-6.253 0-11.333 5.067-11.333 11.32 0 2.347.72 4.534 1.947 6.347l-2 1.8A13.917 13.917 0 0 1 0 14.66C0 6.94 6.267.673 14 .673m0 5.333c4.787 0 8.667 3.867 8.667 8.653a8.647 8.647 0 0 1-1.28 4.547l-2.053-1.813A5.925 5.925 0 0 0 20 14.66c0-3.333-2.667-6-6-6s-6 2.667-6 6c0 .987.24 1.907.667 2.733l-2.053 1.813a8.647 8.647 0 0 1-1.28-4.547C5.333 9.873 9.213 6.006 14 6.006m6.667 16.987v4.333H7.333v-4.333c0-1.84 2.987-3.333 6.667-3.333 3.68 0 6.667 1.493 6.667 3.333z"/></svg>