<svg xmlns="http://www.w3.org/2000/svg" width="20" height="20" viewBox="0 0 20 20"><path fill-rule="evenodd" clip-rule="evenodd" d="M2.93 17.07a9.998 9.998 0 0 1 0-14.142c3.905-3.905 10.236-3.905 14.142 0s3.905 10.235 0 14.142-10.237 3.907-14.142 0zm2.385.907l2.013-3.439a5.026 5.026 0 0 1-1.053-.813 5.667 5.667 0 0 1-.906-1.213l-3.467 1.959a9.576 9.576 0 0 0 1.561 2.066 9.014 9.014 0 0 0 1.852 1.44zm7.891-4.772a4.554 4.554 0 0 0 0-6.411 4.554 4.554 0 0 0-6.411 0 4.552 4.552 0 0 0 0 6.411 4.552 4.552 0 0 0 6.411 0zm-4.025-2.386a1.15 1.15 0 0 1 0-1.653 1.175 1.175 0 0 1 1.653 0c.453.466.453 1.2 0 1.653a1.152 1.152 0 0 1-1.653 0zm5.384-3.465l3.466-1.96a9.34 9.34 0 0 0-1.479-1.946 9.4 9.4 0 0 0-1.853-1.426l-2.014 3.425a5.365 5.365 0 0 1 1.88 1.907z"/></svg>