<svg xmlns="http://www.w3.org/2000/svg" width="28" height="28" viewBox="0 0 28 28"><path fill-rule="evenodd" clip-rule="evenodd" d="M0 25.35V4.977c0-.373.307-.679.68-.679h9.279c1.213-.174 2.174-.761 3.04-1.413l.947-.773a.692.692 0 0 1 .96.119L27.865 17.99c.227.294.16.72-.134.946l-1.373 1.135a.693.693 0 0 1-.96-.135L16.705 9.363a1.49 1.49 0 0 1-.173.146l7.639 12.347-1.426.88-7.6-12.293a.399.399 0 0 1-.107.054l5.76 12.985-1.533.666-5.76-12.972c-.013.014-.04.014-.053.026l3.867 13.746-1.614.453-3.853-13.719h-.053l1.986 14.078-1.667.227-1.96-13.958c-.04 0-.067.013-.106.013v13.986H.68A.68.68 0 0 1 0 25.35zm8.346-.92h.014v-1.68H3.346v-1.667h5v-1.667h-5v-1.68h5V16.07h-5v-1.68h5v-1.667h-5v-1.667h5v-1.68h-5V7.71h5.027V6.031H1.68V24.43h6.666z"/></svg>