<svg xmlns="http://www.w3.org/2000/svg" width="20" height="20" viewBox="0 0 20 20"><path d="M4.441 13.334h2.227c0 1.199 1.52 2.227 3.332 2.227 1.814 0 3.334-1.027 3.334-2.227 0-1.213-1.16-1.668-3.6-2.254-2.361-.586-5.293-1.32-5.293-4.414C4.441 4.68 6.08 3 8.334 2.428V0h3.334v2.428C13.92 3 15.561 4.68 15.561 6.666h-2.227c0-1.199-1.52-2.213-3.334-2.213-1.813 0-3.332 1.014-3.332 2.213 0 1.229 1.16 1.668 3.6 2.268 2.359.586 5.293 1.32 5.293 4.4 0 2-1.641 3.68-3.893 4.254V20H8.334v-2.412c-2.254-.574-3.893-2.254-3.893-4.254z"/></svg>