<svg xmlns="http://www.w3.org/2000/svg" width="20" height="20" viewBox="0 0 20 20"><path fill-rule="evenodd" clip-rule="evenodd" d="M1.347 17.801V2.213C1.347 1 2.333 0 3.548 0h10.559l4.547 4.547v13.254c0 1.213-1 2.199-2.213 2.199H3.548a2.201 2.201 0 0 1-2.201-2.199zm13.386-5.494c0-.561-.453-1.027-1.027-1.027H5.214c-.561 0-1.027.467-1.027 1.027 0 .574.467 1.027 1.027 1.027h8.492c.574 0 1.027-.453 1.027-1.027zm0-3.586c0-.574-.467-1.027-1.027-1.027H5.214c-.574 0-1.027.453-1.027 1.027 0 .559.453 1.025 1.027 1.025h8.492c.561 0 1.027-.467 1.027-1.025zm-3.107-3.588c0-.572-.465-1.025-1.025-1.025H5.093c-.572 0-1.025.453-1.025 1.025 0 .561.453 1.027 1.025 1.027h5.508c.56 0 1.025-.467 1.025-1.027z"/></svg>