<svg xmlns="http://www.w3.org/2000/svg" width="28" height="28" viewBox="0 0 28 28"><path fill-rule="evenodd" clip-rule="evenodd" d="M6.563 26.672l-.213-.214a4.406 4.406 0 0 1-1.106-1.933l-1.653 1.653c.134.293.08.64-.16.88l-.066.066a.795.795 0 0 1-1.119 0L.554 25.431a.812.812 0 0 1 0-1.133l.054-.053a.798.798 0 0 1 .893-.16l5.877-5.892-.492-.493-.493.507-.56-.56 1.439-1.439.546.56-.493.493.493.493 1.319-1.319-.492-.494-.494.494-.56-.547 1.439-1.439.56.56-.506.493.493.494 1.319-1.319-.493-.494-.493.494-.561-.547 1.439-1.439.547.56-.492.493.492.494 1.32-1.32-.493-.494-.493.506-.561-.56 1.439-1.426.547.546-.492.493.492.494 4.839-4.826c.532-2.679 1.053-6.024.733-6.944.066-.4.226-.72.705-.707a40.529 40.529 0 0 1 4.439 3.853 38.394 38.394 0 0 1 3.865 4.452c0 .479-.307.64-.707.707-.933-.32-4.278.186-6.943.733l-.934.933c.72.2 1.4.56 1.945 1.106l.214.213c1.986 2 1.532 5.679-.08 7.292l-7.317 7.317c-1.611 1.612-5.29 2.065-7.29.066zm12.209-12.303l-.105-.107c-.693-.68-1.773-.772-2.64-.506l-7.704 7.691c-.267.88-.174 1.959.52 2.639l.094.106c1 .987 2.825.773 3.625-.026l6.172-6.171c.798-.8 1.025-2.64.038-3.626z"/></svg>