<svg xmlns="http://www.w3.org/2000/svg" width="28" height="28" viewBox="0 0 28 28"><g fill-rule="evenodd" clip-rule="evenodd"><path d="M.293 10.555c0-3.759 5.401-6.291 11.322-6.357l-1.68 1.839C5.254 6.49 2.04 8.556 2.04 10.555c0 2.239 4.081 4.598 9.815 4.598 5.707 0 9.815-2.346 9.815-4.598 0-.493-.187-.986-.548-1.453l1.748-.533c.359.6.547 1.266.547 1.986 0 3.799-5.549 6.357-11.563 6.357-5.973 0-11.561-2.533-11.561-6.357zm13.67-4.506l2.307-1.386c1.494.333 2.841.827 3.961 1.466L18.403 7.17c-1.227-.534-2.72-.934-4.44-1.121z"/><path d="M6.215 27.281v-9.636c1.68.467 3.6.733 5.641.733 1.854 0 3.614-.212 5.174-.613v9.636c-1.56.386-3.321.599-5.175.599-2.041 0-3.96-.252-5.64-.719zm13.135-.64v-9.636c2.535-1.052 4.188-2.638 4.348-4.424v9.063c.014.094.014.187.014.28-.001 1.905-1.694 3.597-4.362 4.717zM0 22.003v-9.609c.053 1.746 1.547 3.318 3.895 4.411v9.622C1.533 25.335.039 23.762 0 22.003z"/><path d="M9.375 8.396L22.244.12a.9.9 0 0 1 1.213.306.888.888 0 0 1-.307 1.199L9.628 8.955c-.413.173-.667-.36-.253-.559z"/><path d="M12.469 11.448l14.376-5.251a.868.868 0 0 1 1.106.546.862.862 0 0 1-.547 1.106L12.602 12.06c-.44.081-.573-.506-.133-.612z"/></g></svg>