<svg xmlns="http://www.w3.org/2000/svg" width="28" height="28" viewBox="0 0 28 28"><path fill-rule="evenodd" clip-rule="evenodd" d="M3.073 25.211c-4.48-3.213-3.547-9.332-.493-10.066 4.079-.986 5.666-1.652 7.185-5 .907-2.572 2.214-4.238 4.439-3.813L13.778 7.6c-1.4 2.119-1.053 4.932 1.279 3.105l4.146-4.293.146-2.332L25.322.426c2.106-.84 2.92.014 2.613 2.32-2.08-.398-3.186.867-3.945 2.746l-.067.707-3.387 1.613-6.333 6.479c-1.332 1.348-.08 3.453 2.961 1.201 1.773-1.295 1.76 2.613-.773 3.307-2.52.705-5.094 2.893-5.146 6.051-.066 4.24-3.453 3.746-8.172.361zm5.426-2.508a.784.784 0 0 0-.026-1.119L5.659 18.93a.787.787 0 0 0-1.119.027.787.787 0 0 0 .025 1.121l2.813 2.652a.786.786 0 0 0 1.121-.027z"/></svg>