<svg xmlns="http://www.w3.org/2000/svg" width="20" height="20" viewBox="0 0 20 20"><path d="M2.22 20V2.227C2.22 1 3.22 0 4.446 0h11.107c1.227 0 2.227 1 2.227 2.227V20l-7.773-3.334L2.22 20zm6.572-6.439c1.348-.215 2.455-1.281 2.455-2.361v-.092l-.041-7.028c.174.893.947.907 1.721 1.347.572.333.879.799 1.014 1.346-.135-.547.092-1.934-1.014-2.52-.986-.521-1.588-1.107-1.721-1.96v-1c-.467.146-.84.653-.84 1.12V9.84c-.426-.227-.986-.307-1.574-.2-1.359.214-2.465 1.28-2.465 2.36s1.106 1.787 2.465 1.561z"/></svg>