<svg xmlns="http://www.w3.org/2000/svg" width="150.414" height="190" viewBox="0 0 150.414 190"><g fill-rule="evenodd" clip-rule="evenodd"><path fill="#FFF" d="M0 190V0h138.818l-.013.013c.693.306 1.519 1.959 1.879 3.452.213.694.026 1.2-.44 1.733-.413 1.186-.92 2.199-1.692 2.679-.853 1.4-1.813 2.759-3.025 4.025l.133 1.427 1.12.479-.08 3.252c.253.747.333 1.546.133 2.413.626.986 1.199 2.053 1.465 3.639.041.707.094 1.413.654 2.252.373 1.347.666 2.679.693 4.025 1.506 4.092 2.866 8.343.866 16.314-1.679 7.811-2.639 15.794-8.837 22.472-1.053 1.106-1.639 2.398-1.426 4.198l20.167 26.484c-.72 1.519-1.68 2.798-3.465 3.238l-1.253-.692c-8.917 6.051-16.688 10.436-25.791 13.354-3.746 1.2-9.037 3.106-10.45 5.599-2.599 4.678-5.385 9.237-9.543 12.795-.133 1.533-1.053 2.599-2.493 3.345-.493 1.213-1.119 2.159-1.999 2.706-.333.973-1.026 1.599-2.16 1.799.653 1.399.707 2.799-.946 4.199.946.426 1.92.667 2.706 2.092l6.198 7.704c2.439 1.866 5.145 3.505 6.398 6.397 1.745 1 4.011 1.853 3.798 3.399l.84-.054.653.8 1.146-1.653c.96.146 1.56-.187 2.106-.6 3.092.76 5.318 2.693 5.745 7.051l-.399.493 2.905 4.505c2.2 2.732 3.439 8.197 1.04 11.996-1.12 1.786-2.612 2.652-3.892 2.652V190H0z"/><path d="M88.356 41.292c-.333-1.972.479-3.559 3.238-4.505-.253.28-.386.627-.293 1.133 2.359-1.066 4.639-2.693 7.304-1.599 2.08-1.094 12.343 0 11.209 8.783.227 1.6.414 3.172-.253 4.025-.68 2.959-1.293 6.104-2.906 6.531l-.08 1.773c.493.213.759.72.906 1.386l.213.959c.467-.146.973.133 1.427.347l1.346-.44c.613-.879 1.28-1.759 2.119-2.639l.653-2.333c-.133-3.186.52-5.944 2.333-8.104.107-1.652.2-3.318 1.213-4.585.64-.426 1.013-1.173 1.08-2.292-.014-.439.093-.773.307-1 .386-.346.346-.839.04-1.426-.16-.706.067-1.253.479-1.732.4-.6.347-1.267-.173-1.986-.453-1.212.6-7.704 1.213-12.675.253-1.479.4-3.025.307-4.718-.027-.547.16-.946.479-1.253.427-.813.173-1.719-.093-2.253-.653-2.585.04-4.745.946-6.838-.693-.652-1.04-1.172-.813-1.479.213-.8.546-1.546 1.12-2.119.292-.413.8-.493 1.426-.347.36-.333 1.013-.32 1.826-.08.933-.587 1.866-.987 2.812-.747.08-.573.387-.959 1.04-1.079.693.266 1.533 1.946 1.906 3.465.213.694.026 1.2-.44 1.733-.413 1.186-.92 2.199-1.692 2.679-.853 1.4-1.813 2.759-3.025 4.025l.133 1.427 1.12.479-.08 3.252c.253.747.333 1.546.133 2.413.626.986 1.199 2.053 1.466 3.639.04.707.093 1.413.653 2.252.373 1.347.667 2.679.693 4.025 1.506 4.092 2.866 8.343.866 16.314-1.679 7.811-2.639 15.794-8.836 22.472-1.053 1.106-1.64 2.398-1.427 4.198l20.167 26.484c-.72 1.519-1.68 2.798-3.466 3.238l-1.253-.692c-8.917 6.051-16.688 10.436-25.791 13.354-3.746 1.2-9.037 3.106-10.45 5.599-2.599 4.678-5.385 9.237-9.543 12.795-.133 1.533-1.053 2.599-2.493 3.345-.493 1.213-1.119 2.159-1.999 2.706-.333.973-1.026 1.599-2.16 1.799.654 1.399.707 2.799-.946 4.199.946.426 1.92.667 2.706 2.092l6.198 7.704c2.439 1.866 5.145 3.505 6.398 6.397 1.746 1 4.012 1.853 3.798 3.399l.84-.054.653.8 1.146-1.653c.96.146 1.56-.187 2.106-.6 3.092.76 5.319 2.693 5.745 7.051l-.4.493 2.905 4.505c2.2 2.732 3.439 8.197 1.04 11.996-2.079 3.292-5.385 3.452-6.345.853-.08-.96-.373-1.693-.853-2.252-.533-.493-.533-.853-.493-1.2-.28-.866-.574-.826-.854-.906-.346-.56-.493-1.133-.453-1.693-2.226-2.026-4.265-4.092-5.238-6.398l-1.506-2c-3.532 2.706-6.771 4.732-8.943 4.452-9.144-9.157-16.648-19.233-23.845-29.497-.547-4.999 2.479-11.969 7.25-19.887l-7.45 1.693-3.399 1.253c-3.892 2.573-7.65 4.186-11.143 3.693-.827.106-1.506.306-1.652.959-.187.707-.68.854-1.4.64.493.946.586 1.853-.546 2.652-.267.813-.267 1.853.546 3.599.52 2.573.573 5.918-.253 10.743l-.239 4.852.946.906 2.892.293c1.386-.386 2.519-.293 2.798 1.506.214 2.759-.026 5.358-1.146 7.598-1.146-.467-1.959-.307-2.053 1.092l.96 4.345c.146 5.651-2.706 10.744-6.998 10.103-.626-.986-.56-2.199-.36-3.452.227-1.573-.026-3.053-.6-4.492l-.239-.759c-1.093-2.026-2.04-4.066-2.6-6.091v-4.345c-2.559 0-5.158.106-6.65-2-.107-2.799-.201-5.598-.454-8.396-.653-8.997-.747-15.155.707-22.192.52-2.546 2.386-4.052 5.145-5.905 3.465-2.266 6.784-4.745 9.997-7.398 4.145-2.972 8.69-5.784 14.741-7.944 4.052-1.666 7.411-4.225 10.143-7.597l1.707-3.453 1.093-10.249-7.638 2.052c-2.879 1.267-6.117 1.6-9.65 1.146-4.185.733-8.25.534-12.302.253-1.959-.24-3.932-.133-5.892.146-1.786.054-1.679-1.973-1.652-3.892-1 .413-2.066.56-3.199.453-.533.174-1.212.214-1.893.24-.613.24-1.346.36-2.106.453-1.692-.36-2.119-1.346-1.453-2.892-.213-.707-.013-1.2.56-1.506-1.119-.92-.733-1.959 1.439-3.146.64-.346 1.28-.679 2.199.147l3.959 1.199c.866-.347 2-.547 4.092-.2 4.385-.76 11.396-.653 13.595.146.733-1.24 3.186-1.88 7.197-1.946 1.333-.986 2.666-1.827 3.999-1.253.72.2 1.359.16 1.946-.041 1.187-1.266 1.919-2.812 4.706-2.999l6.051-7.051c.906-1.799 2.398-2.958 4.491-3.452 1.4-1.146 3.105-1.999 5.305-2.345.106-1.014.173-2.04 1.347-3.052.759-1.133.013-2.666-1.253-4.346-.813-1.173-1.24-2.878-1-5.504.227-.88.187-1.826-.4-2.839-.333-.494-.253-.973-.054-1.454-.413-.946-.599-1.839-.492-2.652-.214-1.386-.96-2.013-1.853-2.453-.92-.853-1.173-1.985-1.053-3.238l.695.862z"/></g></svg>