<svg xmlns="http://www.w3.org/2000/svg" width="63.749" height="49.33" viewBox="153.495 159.67 63.749 49.33"><path fill="#C73329" d="M170.55 169.49c8.18-8.19 21.47-8.19 29.66 0 8.18 8.18 8.18 21.47 0 29.661-8.19 8.189-21.48 8.189-29.66 0-8.19-8.191-8.19-21.481 0-29.661z"/><path fill="#FFF" d="M185.1 180.27a3.709 3.709 0 1 1 0 7.419 3.709 3.709 0 1 1 0-7.419m0-11.88c8.601 0 15.58 6.98 15.58 15.59 0 3.379-1.08 6.51-2.91 9.06l-2.22-2a12.61 12.61 0 0 0 2.16-7.06c0-6.97-5.65-12.62-12.61-12.62-6.97 0-12.62 5.65-12.62 12.62 0 2.61.8 5.04 2.17 7.06l-2.229 2a15.563 15.563 0 0 1-2.91-9.06c-.001-8.61 6.979-15.59 15.589-15.59m0 5.94c5.32 0 9.641 4.32 9.641 9.65 0 1.85-.511 3.59-1.421 5.06l-2.29-2.04c.48-.9.75-1.94.75-3.02 0-3.71-2.97-6.68-6.68-6.68s-6.68 2.97-6.68 6.68c0 1.08.26 2.12.74 3.02l-2.29 2.04a9.678 9.678 0 0 1-1.42-5.06 9.65 9.65 0 0 1 9.65-9.65m7.42 18.92v4.83h-14.84v-4.83c0-2.05 3.32-3.71 7.42-3.71 4.09 0 7.42 1.66 7.42 3.71z"/><path opacity=".7" fill="#C73329" d="M202.25 202.721l-1.601-1.601c9.271-9.261 9.271-24.3 0-33.57l1.601-1.59c10.14 10.14 10.14 26.61 0 36.761z"/><path opacity=".7" fill="#C73329" d="M168.49 165.96l1.6 1.59c-9.271 9.271-9.271 24.31 0 33.57l-1.6 1.601c-10.14-10.151-10.14-26.621 0-36.761z"/><path opacity=".5" fill="#C73329" d="M204.54 205.76l-1.59-1.59c10.949-10.949 10.949-28.72 0-39.67l1.59-1.59c11.83 11.83 11.83 31.029 0 42.85z"/><path opacity=".5" fill="#C73329" d="M166.2 162.91l1.59 1.6c-10.95 10.94-10.95 28.71 0 39.66l-1.59 1.59c-11.83-11.821-11.83-31.02 0-42.85z"/><path opacity=".25" fill="#C73329" d="M207.03 209l-1.59-1.59c12.74-12.73 12.74-33.41 0-46.15l1.59-1.59c13.62 13.61 13.62 35.721 0 49.33z"/><path opacity=".25" fill="#C73329" d="M163.71 159.67l1.59 1.59c-12.74 12.74-12.74 33.419 0 46.15l-1.59 1.59c-13.62-13.609-13.62-35.72 0-49.33z"/></svg>