<svg xmlns="http://www.w3.org/2000/svg" width="173.253" height="210" viewBox="0 0 173.253 210"><path fill-rule="evenodd" clip-rule="evenodd" fill="#4A965C" d="M0 192.682v-86.634c0-6.316 3.378-11.777 8.399-14.808l6.823-4.259V18.24C15.222 8.172 23.394 0 33.449 0h87.395l37.615 37.602v49.659l6.383 3.979c5.021 3.031 8.412 8.492 8.412 14.808v86.634c0 9.574-7.758 17.318-17.332 17.318H17.318C7.758 210 0 202.255 0 192.682z"/><path fill="#FFF" d="M17.318 192.682v-66.19l69.302 43.316 69.301-43.316v66.19H17.318zM38.777 91.827c0-4.687 3.818-8.506 8.492-8.506h70.302c4.688 0 8.506 3.819 8.506 8.506s-3.818 8.492-8.506 8.492H47.269c-4.674 0-8.492-3.805-8.492-8.492zm-.054-29.723c0-4.701 3.806-8.506 8.492-8.506h70.316c4.673 0 8.479 3.805 8.479 8.506 0 4.674-3.806 8.479-8.479 8.479H47.215c-4.686 0-8.492-3.805-8.492-8.479zm-.974-29.737c0-4.687 3.806-8.492 8.492-8.492h45.573c4.687 0 8.506 3.806 8.506 8.492 0 4.701-3.819 8.506-8.506 8.506H46.241c-4.687 0-8.492-3.806-8.492-8.506z"/></svg>