<svg xmlns="http://www.w3.org/2000/svg" width="290" height="86.027" viewBox="0 0 290 86.027"><path fill="#FFF" d="M6.36 0h22c.867 0 1.427.121 1.68.373.267.254.4.934.4 2.081 0 1.466-.12 2.399-.347 2.786-.227.387-.747.693-1.546.947-.92.28-1.48.6-1.68.973-.2.36-.307 1.16-.307 2.387v50.787c0 7.08-1.906 13.133-5.72 18.16-3.813 5.027-9.707 7.533-17.667 7.533-1.507 0-2.414-.107-2.72-.346C.146 85.454 0 84.96 0 84.187V82.44c0-.72.066-1.173.2-1.387.134-.227.574-.36 1.32-.414 5.227-.467 7.84-4.654 7.84-12.547V11.681c0-2.254-.214-3.681-.627-4.321-.413-.626-1.173-1.107-2.28-1.453-1.107-.333-1.667-1.08-1.667-2.214 0-1.906.067-3 .213-3.28C5.133.146 5.586 0 6.36 0z"/><path fill="#FFF" d="M57.467 35.76c-3.48 1.534-5.547 3.254-6.227 5.174-.68 1.92-1.014 6.24-1.014 12.96 0 4.946.28 8.08.827 9.374.56 1.307 1.507 1.959 2.867 1.959 2.36 0 3.547-1.959 3.547-5.893V35.76zm0-6v-8.906c0-2.453-1-3.693-3-3.693-2.734 0-4.107 1.867-4.107 5.587 0 2.093-.227 3.586-.706 4.479-.48.88-1.561 1.64-3.228 2.28-1.68.627-3.479.947-5.373.947-3.907 0-5.866-2.094-5.866-6.281 0-3.933 1.693-7.146 5.093-9.64 3.4-2.493 7.84-3.733 13.32-3.733 3.587 0 6.826.494 9.707 1.467 2.867.986 5.173 2.653 6.893 4.986 1.707 2.333 2.574 4.893 2.587 7.693v42.08c.053.213.52.68 1.374 1.387.613.467.933 1.133.933 2.027 0 1.227-.173 2.093-.507 2.613-.346.506-1.173.973-2.467 1.4-1.319.426-2.946.653-4.92.653-2.399 0-4.399-.44-6-1.32-1.6-.88-2.84-2.587-3.733-5.147-2.68 2.773-4.84 4.533-6.507 5.307-1.653.773-3.359 1.16-5.12 1.16-3.893 0-6.92-1.533-9.053-4.586-2.146-3.066-3.213-8.066-3.213-15 0-6.947 1-11.761 3-14.453 2-2.681 5.906-5.16 11.719-7.44 3.68-1.413 6.747-2.707 9.174-3.867z"/><path fill="#FFF" d="M95.48 68.454h1.76c1.56 0 2.64-.333 3.213-1.014.586-.667 1.253-2.32 1.987-4.934.52-1.933 1.013-3.253 1.48-3.947s1.787-1.04 3.96-1.04c.959 0 1.44.346 1.44 1.026 0 .173-.133 1.093-.374 2.76l-1.521 9.96c-.28 1.854-.467 2.84-.586 2.986-.107.133-.68.201-1.72.201H80.854l-1.333.053c-.4 0-.6-.146-.6-.427 0-.12.014-.253.04-.413l.333-1.2 13.374-54.893h-2.24c-.92 0-1.626.293-2.133.853-.506.573-1.186 2.133-2.04 4.694-.827 2.52-1.521 4.04-2.08 4.56-.547.52-1.613.786-3.187.786-1.227 0-1.84-.333-1.84-1.013 0-.214.027-.534.094-.974l2.027-12.959c.159-1.014.359-1.613.626-1.8.267-.187.867-.28 1.827-.28h25.04c.427.04.64.227.64.56 0 .146-.107.627-.32 1.427l-.133.694L95.48 68.454z"/><path fill="#FFF" d="M129.947 68.454h1.747c1.56 0 2.64-.333 3.227-1.014.586-.667 1.24-2.32 1.973-4.934.533-1.933 1.027-3.253 1.48-3.947.467-.693 1.787-1.04 3.973-1.04.947 0 1.427.346 1.427 1.026 0 .173-.12 1.093-.374 2.76l-1.52 9.96c-.28 1.854-.467 2.84-.574 2.986-.107.133-.68.201-1.733.201h-24.267l-1.333.053c-.399 0-.6-.146-.6-.427 0-.12.014-.253.053-.413l.32-1.2 13.373-54.893h-2.239c-.921 0-1.627.293-2.134.853-.506.573-1.187 2.133-2.04 4.694-.826 2.52-1.52 4.04-2.08 4.56-.546.52-1.613.786-3.173.786-1.24 0-1.853-.333-1.853-1.013 0-.214.04-.534.093-.974l2.027-12.959c.16-1.014.373-1.613.626-1.8.267-.187.867-.28 1.827-.28h25.04c.44.04.653.227.653.56 0 .146-.107.627-.32 1.427l-.147.694-13.452 54.334z"/><path fill="#C73329" d="M181 0h16.32c1.106 0 1.84.16 2.173.494.334.319.507 1.146.507 2.466 0 1.2-.12 2.04-.346 2.506-.228.48-.787.934-1.681 1.36-.8.373-1.307.773-1.52 1.2-.227.44-.32 1.146-.32 2.12v54.761c0 .799.08 1.387.267 1.746.187.374.693.76 1.52 1.16 1.146.547 1.707 1.307 1.707 2.254 0 2.399-.066 3.733-.227 4-.146.252-.693.387-1.613.387h-20.573c-.893 0-1.333-.748-1.333-2.254 0-1.293.04-2.253.133-2.894.094-.626.667-1.146 1.707-1.547 1.173-.453 1.76-1.266 1.76-2.44V26.48l-8.307 31.374h-5.08l-8.16-30.399v37.733c0 1.227.546 2.133 1.667 2.72 1.347.667 2.026 1.88 2.026 3.6 0 1.96-.68 2.947-2.026 2.947h-10.014c-1.146 0-1.706-.934-1.706-2.814 0-1.32.479-2.333 1.426-3.04.707-.587 1.16-1.054 1.347-1.414.173-.347.266-.973.266-1.867V12.04c0-1.466-.133-2.6-.387-3.387-.266-.787-.827-1.427-1.68-1.906-.934-.494-1.387-1.013-1.387-1.533l.04-1.974c.027-1.453.134-2.347.307-2.707.16-.346.574-.533 1.214-.533h17.066l7.387 28.507L181 0z"/><path fill="#C73329" d="M226.76 35.76c-3.48 1.534-5.56 3.254-6.24 5.174-.667 1.92-1.014 6.24-1.014 12.96 0 4.946.28 8.08.84 9.374.547 1.307 1.507 1.959 2.854 1.959 2.374 0 3.56-1.959 3.56-5.893V35.76zm0-6v-8.906c0-2.453-1-3.693-3-3.693-2.747 0-4.106 1.867-4.106 5.587 0 2.093-.24 3.586-.72 4.479-.48.88-1.547 1.64-3.227 2.28-1.68.627-3.466.947-5.373.947-3.907 0-5.854-2.094-5.854-6.281 0-3.933 1.693-7.146 5.094-9.64 3.399-2.493 7.826-3.733 13.307-3.733 3.6 0 6.826.494 9.706 1.467 2.88.986 5.173 2.653 6.894 4.986 1.72 2.333 2.586 4.893 2.586 7.693v42.08c.067.213.52.68 1.387 1.387.613.467.92 1.133.92 2.027 0 1.227-.173 2.093-.506 2.613-.333.506-1.16.973-2.467 1.4-1.307.426-2.947.653-4.92.653-2.387 0-4.387-.44-5.986-1.32-1.601-.88-2.84-2.587-3.734-5.147-2.68 2.773-4.853 4.533-6.506 5.307-1.667.773-3.373 1.16-5.12 1.16-3.907 0-6.92-1.533-9.067-4.586-2.133-3.066-3.213-8.066-3.213-15 .013-6.947 1.013-11.761 3.013-14.453 1.987-2.681 5.893-5.16 11.707-7.44 3.692-1.413 6.745-2.707 9.185-3.867z"/><path fill="#C73329" d="M273.066 24.681c0-1.907-.387-3.32-1.16-4.267-.76-.934-1.614-1.4-2.534-1.4-.68 0-1.414.4-2.213 1.2-.8.8-1.201 1.706-1.201 2.72v38.747c0 .826.44 1.706 1.294 2.626.866.92 1.866 1.387 3 1.387 1.88 0 2.813-1.467 2.813-4.387V24.681zm-7.107-8.721c1.814-1.72 3.48-3.014 4.987-3.867 1.506-.867 3.293-1.293 5.346-1.293 4.734 0 8.201 2.453 10.4 7.36 2.2 4.907 3.307 12.747 3.307 23.546 0 7.014-.36 12.773-1.066 17.293-.72 4.521-2.293 8.227-4.76 11.121-2.453 2.893-5.28 4.333-8.48 4.333-3.84 0-7.08-2.121-9.734-6.361v10.28c0 1.054.587 1.773 1.761 2.174 1.133.4 1.706 1.146 1.706 2.253v1.667c0 .64-.08 1.04-.239 1.173-.147.133-.561.213-1.24.213h-17.76c-1.228 0-1.841-.307-1.841-.934v-1.706c0-1.134.521-2.014 1.561-2.627.533-.307.787-.8.787-1.466V19.427c0-1.133-.4-2-1.2-2.587-.547-.399-.88-.706-.987-.92-.106-.213-.16-.667-.16-1.333v-1.44c0-.827.08-1.319.254-1.466.16-.16.613-.24 1.359-.24h14.067c.893 0 1.44.106 1.64.333.2.213.293.76.293 1.653v2.533z"/></svg>