<svg xmlns="http://www.w3.org/2000/svg" width="20.987" height="30" viewBox="0 0 20.987 30"><path fill-rule="evenodd" clip-rule="evenodd" fill="#FFF" stroke="#000" stroke-width=".5" stroke-linejoin="bevel" stroke-miterlimit="10" d="M7.267 7.213a4.522 4.522 0 0 1 6.386 0 4.521 4.521 0 0 1 0 6.387 4.498 4.498 0 0 1-6.386 0 4.521 4.521 0 0 1 0-6.387z"/><path fill="#C73329" d="M10.493 0c5.787 0 10.494 4.707 10.494 10.506C20.987 18.387 10.493 30 10.493 30S0 18.387 0 10.506C0 4.707 4.693 0 10.493 0m0 14.253a3.75 3.75 0 0 0 3.746-3.747 3.75 3.75 0 0 0-3.746-3.746 3.75 3.75 0 0 0-3.747 3.746 3.75 3.75 0 0 0 3.747 3.747z"/></svg>