<svg xmlns="http://www.w3.org/2000/svg" width="30" height="30" viewBox="0 0 30 30"><circle fill="red" cx="15" cy="15" r="15"/><path fill="#FFF" d="M14.821 21.646c-2.111-.012-4.613-.038-6.549-.278-2.009-.247-2.522-1.473-2.626-3.491-.058-1.1-.102-1.948-.098-2.875-.004-.927.039-1.775.098-2.876.104-2.019.618-3.246 2.626-3.493 1.937-.237 4.438-.268 6.55-.275v-.003l.179.001.179-.001v.001c2.112.009 4.613.039 6.55.276 2.009.248 2.523 1.475 2.626 3.492.059 1.1.102 1.948.098 2.875.004.927-.039 1.775-.098 2.875-.103 2.019-.615 3.245-2.626 3.492-1.938.238-4.438.267-6.55.278h-.179l-.18.002zm-1.718-3.834l4.887-2.827-4.887-2.826v5.653z"/></svg>