<svg xmlns="http://www.w3.org/2000/svg" width="30" height="30" viewBox="0 0 30 30"><path fill="#666" d="M15 0C6.716 0 0 6.716 0 15s6.716 15 15 15 15-6.716 15-15S23.284 0 15 0zm10.214 11.271c0 8.802-6.327 14.728-13.854 14.728-3.176 0-5.534-.998-7.828-2.149 2.65.187 5.077-.419 7.202-2.076-2.453-.349-3.834-1.609-4.501-3.476.776.164 1.508.177 2.151-.126-1.977-.699-3.973-1.973-3.826-4.927.676.361 1.381.599 2.126.627-1.747-1.633-2.924-3.524-1.501-6.602 2.803 3.208 6.25 4.896 10.303 5.151-.675-2.202.752-6.102 4.827-6.102 1.701 0 2.492.662 3.551 1.525 1.11-.24 2.171-.604 3.148-1.176-.348.992-.95 1.943-2.1 2.8a10.208 10.208 0 0 0 2.851-.823c-.741.985-1.536 1.918-2.549 2.626z"/></svg>