<svg xmlns="http://www.w3.org/2000/svg" width="30" height="30" viewBox="0 0 30 30"><circle fill="#49C9F6" cx="15" cy="15" r="15"/><path fill="#FFF" d="M5.185 7.271c2.803 3.208 6.251 4.896 10.303 5.151-.675-2.202.751-6.102 4.826-6.102 1.701 0 2.492.662 3.551 1.525 1.11-.24 2.171-.604 3.149-1.176-.348.992-.951 1.943-2.1 2.8a10.201 10.201 0 0 0 2.85-.823c-.74.984-1.537 1.916-2.55 2.625 0 8.802-6.327 14.728-13.854 14.728-3.175 0-5.533-.998-7.827-2.149 2.649.187 5.076-.419 7.202-2.076-2.452-.349-3.834-1.609-4.502-3.476.778.164 1.508.177 2.151-.126-1.977-.699-3.973-1.973-3.826-4.927.678.361 1.381.599 2.127.627-1.747-1.634-2.924-3.524-1.5-6.601z"/></svg>