<svg xmlns="http://www.w3.org/2000/svg" width="30" height="30" viewBox="0 0 30 30"><circle fill="#239ED9" cx="15" cy="15" r="15"/><path fill="#FFF" d="M18.126 24.586c-.023-.012-.047-.024-.068-.042l-4.198-3.233-2.361 2.407a.41.41 0 0 1-.214.113c-.544.097-1.062-.083-1.287-.734l-1.672-5.323-4.482-1.704a.422.422 0 0 1-.135-.087c-.705-.685-.459-1.323.054-1.792a.378.378 0 0 1 .12-.075l17.713-7.134c.412-.179.885-.291 1.254-.05l.021.014.039.029.019.015c.261.219.334.555.337.87a.273.273 0 0 1-.006.08l-3.078 15.947a.428.428 0 0 1-.029.092c-.423.912-1.221 1-2.027.607zm1.149-.699l.138-.214 3.056-15.835-.009-.107a.598.598 0 0 0-.02-.083l-.024-.045-.021-.006c-.052-.008-.19-.009-.491.122L4.258 14.824l-.115.118c-.076.099-.092.183-.03.29l.108.131 4.568 1.734a.403.403 0 0 1 .174.131l10.689-7.171-8.392 8.811-.531 3.911.022.069c.051.146.11.21.238.213l.039-.004L13.54 20.5a.396.396 0 0 1 .526-.035l4.435 3.416-.025-.01c.393.192.628.197.799.016z"/></svg>