<svg xmlns="http://www.w3.org/2000/svg" width="30" height="30" viewBox="0 0 30 30"><g fill="#666"><path d="M18.998 15c0 2.187-1.813 4-3.999 4s-4-1.813-4-4c0-.5.125-1.063.313-1.5H9.125v6c0 .749.625 1.376 1.375 1.376h9a1.39 1.39 0 0 0 1.375-1.376v-6h-2.188c.188.438.311 1 .311 1.5z"/><path d="M20.625 9.688v-.313h-2.501v2.5h2.501z"/><path d="M15 17.563c1.375 0 2.563-1.125 2.563-2.563 0-.562-.188-1.062-.501-1.5-.438-.625-1.249-1.063-2.063-1.063-.813 0-1.624.438-2.063 1.063a2.548 2.548 0 0 0-.499 1.5c.001 1.438 1.188 2.563 2.563 2.563z"/><path d="M15 0C6.716 0 0 6.717 0 15c0 8.285 6.716 15 15 15s15-6.716 15-15.001C30 6.715 23.284 0 15 0zm7.313 13.5v6a2.801 2.801 0 0 1-2.813 2.813h-9A2.8 2.8 0 0 1 7.687 19.5v-9A2.8 2.8 0 0 1 10.5 7.687h9a2.801 2.801 0 0 1 2.813 2.813v3z"/></g></svg>