<svg xmlns="http://www.w3.org/2000/svg" width="30" height="30" viewBox="0 0 30 30"><g fill="#666"><path d="M9.709 9.42c-2.667 2.666-2.943 6.821-.831 9.798l-.512 1.544-.004-.004-.468 1.386.017-.006 3.016-.946a7.632 7.632 0 0 0 9.563-.992 7.625 7.625 0 0 0 0-10.781 7.625 7.625 0 0 0-10.781.001zm8.11 9.633a2.448 2.448 0 0 1-.961-.116c-3.09-.789-5.363-2.975-6.113-5.622-.219-.771-.063-1.715.75-2.294.189-.163.446-.258.82-.234a.674.674 0 0 1 .562.211l.75 1.71a.806.806 0 0 1-.023.654l-.468.586c-.126.127-.111.302-.047.492.698 1.166 1.66 2.042 2.976 2.529.172.039.343.08.514-.093l.703-.82a.43.43 0 0 1 .468-.094l1.805.867c.087.086.168.177.188.328-.083 1.268-.892 1.708-1.924 1.896z"/><path d="M15 0C6.716 0 0 6.716 0 15s6.716 15 15 15 15-6.716 15-15S23.284 0 15 0zm6.452 21.163c-2.899 2.9-7.294 3.403-10.712 1.508l-4.996 1.588 1.634-4.848c-2.059-3.449-1.603-7.985 1.367-10.955a8.985 8.985 0 1 1 12.707 12.707z"/></g></svg>