<svg xmlns="http://www.w3.org/2000/svg" width="30" height="30" viewBox="0 0 30 30"><circle fill="#5B7AA8" cx="15" cy="15" r="15"/><path fill="#FFF" d="M7.285 9.373h-3.29c-.771-.051-.804.267-.706.652C5.891 15.026 8.135 20.6 13.503 21.493h1.933c.585 0 .98-.342.863-.94 0-.761.208-1.201.549-1.725.245-.412.592-.412 1.045 0 1.145 1.102 2.242 2.681 3.5 2.665h3.447c.759 0 1.001-.693.496-1.515-.868-1.218-1.94-2.302-3.03-3.371-.51-.452-.345-.962 0-1.488 1.276-1.658 2.613-3.339 3.237-4.754.33-.639-.025-1.045-.625-1.045l-3.737.078c-.354 0-.653.078-.809.418-.669 1.762-1.688 3.407-2.978 4.963-.424.311-1.045.079-1.045-.522v-4.128c0-.861-.25-1.092-.653-1.175-1.384-.104-4.505-.452-4.963.68 1.452.036 1.646 2.09 1.098 4.99-.204.678-.703.54-1.202-.079-1.019-1.307-1.851-3.056-2.612-4.625-.208-.287-.416-.547-.732-.547z"/></svg>