<svg xmlns="http://www.w3.org/2000/svg" width="30" height="30" viewBox="0 0 30 30"><circle fill="#29B200" cx="15" cy="15" r="15"/><path fill="#FFF" d="M5.744 24.258l1.634-4.847A8.993 8.993 0 0 1 8.745 8.455c3.508-3.507 9.2-3.507 12.707 0 3.509 3.509 3.509 9.2 0 12.708-2.899 2.9-7.294 3.403-10.712 1.508l-4.996 1.587zm14.745-4.059a7.623 7.623 0 1 0-11.612-.981l-.511 1.544-.005-.004-.468 1.386.017-.005 3.016-.947c2.957 1.936 6.967 1.605 9.563-.993zm-3.631-1.263c-3.09-.789-5.363-2.974-6.113-5.621-.219-.771-.063-1.715.75-2.295.189-.162.445-.258.82-.234a.677.677 0 0 1 .562.211l.75 1.709a.811.811 0 0 1-.023.656l-.468.586c-.126.127-.111.301-.047.491.698 1.167 1.66 2.042 2.974 2.529.173.038.344.08.516-.094l.703-.82a.431.431 0 0 1 .468-.093l1.805.866c.086.085.167.177.187.328-.078 1.269-.889 1.71-1.92 1.897a2.44 2.44 0 0 1-.964-.116z"/></svg>