<svg xmlns="http://www.w3.org/2000/svg" width="30" height="30" viewBox="0 0 30 30"><path fill="#E0218B" d="M15 0c8.284 0 15 6.716 15 15 0 8.284-6.716 15-15 15S0 23.285 0 15C0 6.717 6.716 0 15 0z"/><path fill="#FFF" d="M20.875 19.5a1.39 1.39 0 0 1-1.375 1.376h-9c-.75 0-1.375-.627-1.375-1.376v-6h2.188c-.188.437-.313 1-.313 1.5 0 2.187 1.813 4 4 4 2.188 0 3.999-1.813 3.999-4 0-.5-.123-1.063-.311-1.5h2.188v6h-.001zm-7.937-6c.438-.625 1.249-1.063 2.063-1.063s1.625.437 2.063 1.063c.313.437.5.938.5 1.5 0 1.438-1.187 2.562-2.562 2.562S12.438 16.438 12.438 15c0-.562.187-1.062.5-1.5m7.375-4.125h.313v2.5h-2.501v-2.5h2.188zM19.5 7.688h-9a2.801 2.801 0 0 0-2.813 2.813v9a2.8 2.8 0 0 0 2.813 2.813h9a2.8 2.8 0 0 0 2.813-2.813v-9A2.801 2.801 0 0 0 19.5 7.688z"/></svg>