<svg xmlns="http://www.w3.org/2000/svg" width="30" height="30" viewBox="0 0 30 30"><path fill="#666" d="M15 0C6.716 0 0 6.716 0 15c0 8.285 6.716 15 15 15 8.285 0 15-6.715 15-15 0-8.284-6.715-15-15-15zm7.307 16.607c1.089 1.069 2.162 2.153 3.03 3.371.504.82.262 1.515-.497 1.515h-3.447c-1.258.016-2.355-1.563-3.5-2.665-.453-.412-.8-.412-1.045 0-.341.523-.549.964-.549 1.725.117.599-.278.94-.863.94h-1.933C8.135 20.6 5.891 15.027 3.289 10.025c-.098-.385-.065-.703.706-.652h3.29c.315 0 .523.26.732.547.762 1.569 1.594 3.318 2.612 4.625.499.619.999.757 1.202.079.548-2.9.354-4.954-1.098-4.99.458-1.132 3.579-.783 4.964-.68.402.083.653.313.653 1.175v4.128c0 .602.62.833 1.044.522 1.288-1.555 2.308-3.201 2.977-4.963.156-.34.456-.418.809-.418l3.735-.078c.603 0 .958.406.627 1.045-.624 1.414-1.961 3.096-3.238 4.754-.343.527-.508 1.036.003 1.488z"/></svg>