<svg xmlns="http://www.w3.org/2000/svg" width="30" height="30" viewBox="0 0 30 30"><g fill="#666"><path d="M15.005 11.689a2.338 2.338 0 1 0 0-4.676 2.338 2.338 0 0 0 0 4.676z"/><path d="M15 0C6.716 0 0 6.716 0 15s6.716 15 15 15 15-6.716 15-15S23.284 0 15 0zm.005 3.598a5.753 5.753 0 0 1 5.753 5.751 5.754 5.754 0 0 1-5.753 5.752 5.754 5.754 0 0 1-5.752-5.752 5.754 5.754 0 0 1 5.752-5.751zm5.497 19.206a1.662 1.662 0 1 1-2.35 2.352l-3.147-3.148-3.146 3.148c-.649.65-1.7.65-2.35 0a1.664 1.664 0 0 1 0-2.352l3.178-3.177c-1.128-.257-2.231-.711-3.304-1.353a1.666 1.666 0 0 1-.571-2.282 1.66 1.66 0 0 1 2.28-.569c1.311.783 2.58 1.132 3.836 1.125 1.263-.007 2.608-.373 4.05-1.162a1.665 1.665 0 0 1 2.256.664 1.666 1.666 0 0 1-.662 2.257c-1.077.588-2.172 1.022-3.281 1.283l3.211 3.214z"/></g></svg>