<svg xmlns="http://www.w3.org/2000/svg" width="30" height="30" viewBox="0 0 30 30"><path fill="#00A9F0" d="M30 15c0 8.284-6.715 15-15 15-8.284 0-15-6.716-15-15S6.716 0 15 0c8.285 0 15 6.716 15 15z"/><path fill="#FEFEFE" d="M19.213 19.324c-.538.611-1.213 1.001-1.979 1.223-1.438.414-2.895.429-4.328-.004-1.305-.393-2.267-1.201-2.649-2.555-.271-.962.348-1.681 1.306-1.566.414.048.686.299.879.643.122.217.224.445.332.667.354.729.928 1.14 1.74 1.229.666.072 1.312.025 1.927-.252.238-.107.448-.257.621-.456a1.143 1.143 0 0 0-.188-1.704c-.548-.406-1.203-.513-1.84-.656-.916-.203-1.831-.396-2.689-.779-.888-.396-1.608-.971-1.842-1.974-.27-1.165.056-2.149.986-2.905.822-.667 1.813-.882 2.836-.97.238-.021.479-.005.717-.005.945-.024 1.867.101 2.721.536.653.333 1.195.79 1.511 1.472.154.334.227.69.128 1.046-.119.432-.414.734-.861.824-.464.095-.897.021-1.189-.411-.14-.205-.274-.415-.399-.63-.4-.681-.97-1.058-1.778-1.057-.369.001-.736-.01-1.1.077-.324.079-.62.213-.867.443-.438.408-.422.968.047 1.34.309.246.674.383 1.052.479.885.225 1.775.435 2.661.667.481.125.941.314 1.387.538 2.072 1.044 1.925 3.526.858 4.74m4.167-2.234a.588.588 0 0 1-.049-.372 8.254 8.254 0 0 0 .043-2.998c-.729-4.421-4.895-7.521-9.321-6.923a1.1 1.1 0 0 1-.707-.129c-1.871-1-4.159-.656-5.682.838a4.844 4.844 0 0 0-.915 5.645.823.823 0 0 1 .087.593c-.092.449-.1.908-.121 1.387.016.269.019.557.051.844.5 4.792 4.889 8.154 9.669 7.408a.631.631 0 0 1 .399.065c.902.457 1.871.567 2.852.412 3.195-.509 4.974-3.794 3.694-6.77z"/></svg>