<svg xmlns="http://www.w3.org/2000/svg" width="30" height="30" viewBox="0 0 30 30"><g fill="#666"><path d="M15 0C6.716 0 0 6.716 0 15s6.716 15 15 15 15-6.716 15-15S23.284 0 15 0zm8.261 7.94l-3.077 15.947a.504.504 0 0 1-.03.093c-.423.911-1.222.999-2.027.605-.023-.012-.047-.024-.068-.042l-4.198-3.233-2.361 2.407a.41.41 0 0 1-.214.113c-.544.097-1.062-.083-1.287-.734l-1.672-5.323-4.483-1.703a.437.437 0 0 1-.135-.086c-.705-.684-.459-1.324.054-1.793a.397.397 0 0 1 .12-.075l17.713-7.133c.412-.18.885-.291 1.254-.051l.022.014.038.029.019.016c.261.218.335.555.337.869a.302.302 0 0 1-.005.08z"/><path d="M22.44 7.647l-.024-.045-.021-.007c-.052-.008-.19-.008-.491.123L4.258 14.824l-.115.118c-.076.099-.092.183-.03.29l.108.131 4.568 1.734a.403.403 0 0 1 .174.131l10.689-7.171-8.392 8.811-.531 3.912.022.069c.051.146.11.211.238.213l.039-.005 2.511-2.557a.396.396 0 0 1 .526-.035L18.5 23.88l-.025-.009c.394.19.628.194.8.013l.138-.213 3.056-15.835-.009-.107a.49.49 0 0 0-.02-.082z"/></g></svg>