<svg xmlns="http://www.w3.org/2000/svg" width="30" height="30" viewBox="0 0 30 30"><g fill="#666"><path d="M15 0C6.716 0 0 6.716 0 15s6.716 15 15 15 15-6.716 15-15S23.284 0 15 0zm9.355 17.875c-.103 2.019-.615 3.245-2.626 3.492-1.938.238-4.438.267-6.55.278h-.359c-2.111-.012-4.613-.038-6.549-.278-2.009-.247-2.522-1.473-2.626-3.491-.058-1.1-.102-1.948-.098-2.875-.004-.927.039-1.775.098-2.876.105-2.018.619-3.245 2.627-3.492 1.937-.237 4.438-.268 6.55-.275v-.003l.179.001.179-.001v.001c2.112.009 4.613.039 6.55.276 2.009.248 2.523 1.475 2.626 3.492.059 1.1.102 1.948.098 2.875.003.928-.04 1.777-.099 2.876z"/><path d="M13.103 17.812l4.886-2.828-4.886-2.826z"/></g></svg>