<svg xmlns="http://www.w3.org/2000/svg" width="30" height="30" viewBox="0 0 30 30"><circle fill="#F46600" cx="15" cy="15" r="15"/><path fill="#FFF" d="M9.51 25.154c-.65-.646-.65-1.7 0-2.351l3.177-3.177c-1.128-.257-2.229-.711-3.304-1.353a1.661 1.661 0 1 1 1.71-2.851c1.311.783 2.58 1.132 3.835 1.125 1.263-.007 2.608-.373 4.05-1.162a1.666 1.666 0 0 1 2.257.664 1.667 1.667 0 0 1-.663 2.257 13.117 13.117 0 0 1-3.28 1.283l3.211 3.213c.648.65.648 1.703 0 2.351-.646.65-1.7.65-2.35 0l-3.147-3.146-3.146 3.146a1.655 1.655 0 0 1-2.35.001zM9.253 9.35a5.753 5.753 0 0 1 11.505 0 5.755 5.755 0 0 1-5.753 5.753A5.757 5.757 0 0 1 9.253 9.35zm8.09 0a2.339 2.339 0 1 0-4.675.003 2.339 2.339 0 0 0 4.675-.003z"/></svg>